<svg width="205" height="286" viewBox="0 0 205 286" fill="none" xmlns="http://www.w3.org/2000/svg">
<path d="M10.9 286V245.6C10.9 237.867 13.3 229.333 18.1 220C22.9 210.667 29.5667 201.333 38.1 192C46.6333 182.667 56.6333 174 68.1 166L110.5 135.6C116.367 131.6 121.833 127.067 126.9 122C132.233 116.933 136.5 111.467 139.7 105.6C143.167 99.4667 144.9 93.6 144.9 88C144.9 81.0667 143.167 74.8 139.7 69.2C136.5 63.6 131.7 59.2 125.3 56C118.9 52.8 111.033 51.2 101.7 51.2C93.7 51.2 86.5 52.8 80.1 56C73.9667 59.2 68.9 63.4667 64.9 68.8C60.9 74.1333 58.1 79.8667 56.5 86L0.1 76.4C2.76667 63.0667 8.5 50.6667 17.3 39.2C26.1 27.7333 37.5667 18.5333 51.7 11.6C66.1 4.39998 82.3667 0.799976 100.5 0.799976C121.3 0.799976 139.167 4.53331 154.1 12C169.033 19.4667 180.5 29.7333 188.5 42.8C196.767 55.6 200.9 70.5333 200.9 87.6C200.9 104.933 196.1 120.4 186.5 134C177.167 147.333 164.233 159.867 147.7 171.6L109.7 199.2C101.967 204.533 95.3 210.4 89.7 216.8C84.1 223.2 79.8333 230.267 76.9 238H204.5V286H10.9Z" fill="#000D1F"/>
</svg>
