<svg width="192" height="290" viewBox="0 0 192 290" fill="none" xmlns="http://www.w3.org/2000/svg">
<path d="M96.9 289.8C80.3667 289.8 65.4333 287.4 52.1 282.6C38.7667 277.533 27.5667 270.467 18.5 261.4C9.7 252.067 3.56667 241.133 0.1 228.6L50.5 213.8C52.3667 217 54.9 221 58.1 225.8C61.3 230.333 65.7 234.2 71.3 237.4C76.9 240.6 84.2333 242.2 93.3 242.2C106.633 242.2 117.167 238.6 124.9 231.4C132.9 223.933 136.9 214.333 136.9 202.6C136.9 194.6 134.9 187.533 130.9 181.4C126.9 175.267 120.367 170.6 111.3 167.4C102.5 163.933 90.9 162.2 76.5 162.2H59.7V125H74.5C90.5 125 105.567 127 119.7 131C133.833 134.733 146.233 140.333 156.9 147.8C167.833 155 176.367 163.8 182.5 174.2C188.633 184.333 191.7 195.933 191.7 209C191.7 225.8 187.3 240.333 178.5 252.6C169.7 264.6 158.1 273.8 143.7 280.2C129.3 286.6 113.7 289.8 96.9 289.8ZM59.7 152.2V117.4H76.5C95.1667 117.4 109.033 114.2 118.1 107.8C127.167 101.4 131.7 92.6 131.7 81.4C131.7 75 130.1 69.2666 126.9 64.2C123.7 59.1333 119.167 55.1333 113.3 52.2C107.433 49.2666 100.633 47.8 92.9 47.8C87.8333 47.8 82.6333 48.7333 77.3 50.6C71.9667 52.2 67.0333 55 62.5 59C58.2333 62.7333 54.7667 68.2 52.1 75.4L2.5 60.6C6.23333 47.5333 12.6333 36.6 21.7 27.8C31.0333 18.7333 42.1 11.9333 54.9 7.4C67.7 2.6 80.9 0.199995 94.5 0.199995C111.833 0.199995 127.433 3.53333 141.3 10.2C155.167 16.6 166.1 25.5333 174.1 37C182.1 48.4667 186.1 61.6667 186.1 76.6C186.1 89.4 183.033 100.467 176.9 109.8C170.767 119.133 162.367 127 151.7 133.4C141.3 139.8 129.433 144.6 116.1 147.8C102.767 150.733 88.9 152.2 74.5 152.2H59.7Z" fill="#000D1F"/>
</svg>
