<svg width="23" height="27" viewBox="0 0 23 27" fill="none" xmlns="http://www.w3.org/2000/svg">
<path d="M18.8567 14.2406C18.8442 12.1094 19.8099 10.5031 21.7599 9.31875C20.6692 7.75625 19.0192 6.89687 16.8442 6.73125C14.7849 6.56875 12.5317 7.93125 11.7067 7.93125C10.8349 7.93125 8.84111 6.7875 7.27236 6.7875C4.03486 6.8375 0.594238 9.36875 0.594238 14.5187C0.594238 16.0406 0.872363 17.6125 1.42861 19.2313C2.17236 21.3625 4.85361 26.5844 7.65049 26.5C9.11299 26.4656 10.1474 25.4625 12.0505 25.4625C13.8974 25.4625 14.8536 26.5 16.4849 26.5C19.3067 26.4594 21.7317 21.7125 22.438 19.575C18.6536 17.7906 18.8567 14.35 18.8567 14.2406ZM15.5724 4.70937C17.1567 2.82812 17.013 1.11563 16.9661 0.5C15.5661 0.58125 13.9474 1.45313 13.0255 2.525C12.0099 3.675 11.413 5.09687 11.5411 6.7C13.0536 6.81562 14.4349 6.0375 15.5724 4.70937Z" fill="white"/>
</svg>
