<svg width="46" height="38" viewBox="0 0 46 38" fill="none" xmlns="http://www.w3.org/2000/svg">
<rect x="0.307617" width="45.6923" height="37.3846" rx="11.0769" fill="#34EBE1"/>
<path d="M20.4538 22.4424L23.1538 19.7424L25.8538 22.4424L26.9038 21.3924L24.2038 18.6924L26.9038 15.9924L25.8538 14.9424L23.1538 17.6424L20.4538 14.9424L19.4038 15.9924L22.1038 18.6924L19.4038 21.3924L20.4538 22.4424ZM23.1538 26.1924C22.1163 26.1924 21.1413 25.9954 20.2288 25.6014C19.3163 25.2074 18.5226 24.6731 17.8476 23.9986C17.1726 23.3241 16.6383 22.5304 16.2448 21.6174C15.8513 20.7044 15.6543 19.7294 15.6538 18.6924C15.6533 17.6554 15.8503 16.6804 16.2448 15.7674C16.6393 14.8544 17.1736 14.0606 17.8476 13.3861C18.5216 12.7116 19.3153 12.1774 20.2288 11.7834C21.1423 11.3894 22.1173 11.1924 23.1538 11.1924C24.1903 11.1924 25.1653 11.3894 26.0788 11.7834C26.9923 12.1774 27.7861 12.7116 28.4601 13.3861C29.1341 14.0606 29.6686 14.8544 30.0636 15.7674C30.4586 16.6804 30.6553 17.6554 30.6538 18.6924C30.6523 19.7294 30.4553 20.7044 30.0628 21.6174C29.6703 22.5304 29.1361 23.3241 28.4601 23.9986C27.7841 24.6731 26.9903 25.2076 26.0788 25.6021C25.1673 25.9966 24.1923 26.1934 23.1538 26.1924Z" fill="#120D2D"/>
</svg>
