<svg width="32" height="32" viewBox="0 0 32 32" fill="none" xmlns="http://www.w3.org/2000/svg">
<path d="M31.5214 19.8705C29.3845 28.442 20.7029 33.6584 12.1304 31.521C3.56144 29.3841 -1.65502 20.702 0.482839 12.1312C2.61882 3.5587 11.3004 -1.65814 19.8702 0.478775C28.4421 2.61569 33.6583 11.2987 31.5211 19.8706L31.5213 19.8705H31.5214Z" fill="#F7931A"/>
<path fill-rule="evenodd" clip-rule="evenodd" d="M23.0571 13.7204C23.3755 11.5912 21.7545 10.4466 19.5378 9.68311L20.2569 6.79886L18.5012 6.36137L17.8011 9.16969C17.3396 9.05457 16.8655 8.94609 16.3944 8.83856L17.0995 6.01171L15.3449 5.57422L14.6254 8.45754C14.2434 8.37057 13.8683 8.28462 13.5043 8.19406L13.5063 8.18499L11.0851 7.58037L10.6181 9.45561C10.6181 9.45561 11.9207 9.7542 11.8933 9.77258C12.6042 9.95003 12.7328 10.4207 12.7115 10.7937L11.8923 14.0796C11.9413 14.092 12.0048 14.11 12.0749 14.1381L12.0239 14.1254C11.9805 14.1146 11.9355 14.1033 11.8893 14.0922L10.7411 18.6952C10.6542 18.9113 10.4337 19.2354 9.9366 19.1123C9.9542 19.1378 8.66051 18.7939 8.66051 18.7939L7.78882 20.8036L10.0736 21.3732C10.3238 21.4359 10.5711 21.5004 10.8158 21.5642C10.9869 21.6088 11.1567 21.653 11.3254 21.6962L10.5989 24.6135L12.3526 25.051L13.0721 22.1646C13.5512 22.2947 14.0161 22.4147 14.4713 22.5278L13.7542 25.4005L15.51 25.838L16.2365 22.9261C19.2304 23.4927 21.4815 23.2643 22.4291 20.5563C23.1926 18.3761 22.3911 17.1185 20.816 16.2984C21.9632 16.0339 22.8273 15.2793 23.0577 13.7207L23.0572 13.7203L23.0571 13.7204ZM19.0456 19.3455C18.5478 21.3458 15.4168 20.5189 13.9842 20.1405C13.8554 20.1065 13.7403 20.076 13.642 20.0517L14.6062 16.1867C14.7259 16.2166 14.8721 16.2494 15.0379 16.2866L15.0379 16.2866C16.5197 16.6191 19.5557 17.3005 19.0457 19.3455H19.0456ZM15.3351 14.4928C16.5294 14.8115 19.1349 15.5069 19.5886 13.6889H19.5888C20.0521 11.8295 17.5201 11.2689 16.2834 10.9951C16.1443 10.9643 16.0216 10.9371 15.9214 10.9121L15.0472 14.4174C15.1298 14.438 15.2266 14.4638 15.3351 14.4928Z" fill="white"/>
</svg>
