<svg width="33" height="32" viewBox="0 0 33 32" fill="none" xmlns="http://www.w3.org/2000/svg">
<circle cx="16.5" cy="16" r="16" fill="#988430"/>
<circle cx="16.4999" cy="16.0002" r="15.4875" fill="#7A6A2A"/>
<circle cx="16.5" cy="16" r="15.1612" fill="#BA9F33"/>
<path fill-rule="evenodd" clip-rule="evenodd" d="M7.49537 14.2911C7.40474 14.2084 7.309 14.1254 7.22093 14.0426C7.13287 13.9599 7.04242 13.8769 6.95179 13.7941L6.68248 13.5381C6.63845 13.4941 6.59186 13.4554 6.54782 13.4112C6.50379 13.3724 6.45208 13.3284 6.40805 13.2895C6.05067 12.9504 5.69125 12.6113 5.33882 12.272C5.70388 12.606 6.06125 12.9376 6.42631 13.2765L6.55311 13.4035C6.59715 13.4474 6.64374 13.4863 6.68777 13.5303L6.95691 13.7788C7.04754 13.8616 7.1356 13.9445 7.22622 14.0348C7.31685 14.1251 7.40491 14.2082 7.49554 14.2908L7.49537 14.2911ZM2.75237 14.2399C2.75237 14.2399 4.052 14.3744 4.68636 14.465C5.27397 14.548 7.11222 14.8301 7.11222 14.8301L2.75237 14.2399ZM2.75237 14.2399C3.11742 14.271 3.48248 14.3097 3.84754 14.3486C4.0339 14.3667 4.21259 14.3874 4.39128 14.4055L4.66554 14.4367C4.75617 14.4495 4.84423 14.4625 4.93485 14.4754L6.02234 14.6488L6.56591 14.7395C6.7446 14.7705 6.92329 14.8043 7.10966 14.8354C6.93097 14.8173 6.7446 14.7914 6.56591 14.7654L6.02234 14.6878L4.93485 14.5273C4.84423 14.5144 4.75617 14.4961 4.66554 14.4833L4.39111 14.4517C4.21242 14.4336 4.02605 14.4077 3.84737 14.3869C3.48231 14.343 3.11725 14.2962 2.7522 14.2394L2.75237 14.2399ZM6.98285 15.1687C6.98285 15.1687 5.59516 15.521 5.12651 15.6556C4.66571 15.7824 3.27017 16.207 3.27017 16.207L6.98268 15.1689L6.98285 15.1687Z" fill="#CFB66C"/>
<path fill-rule="evenodd" clip-rule="evenodd" d="M6.98286 15.1689C6.67481 15.2596 6.36846 15.3476 6.05597 15.4306L5.12908 15.6791C4.82103 15.7697 4.51468 15.8578 4.20748 15.9484L3.74668 16.0752C3.59394 16.1192 3.43863 16.158 3.28076 16.2022C3.43334 16.151 3.58882 16.0986 3.74156 16.0545L4.20236 15.9071C4.51042 15.8112 4.81676 15.7205 5.12396 15.6248C5.43714 15.5471 5.74536 15.4642 6.05853 15.3891C6.35618 15.314 6.66952 15.2391 6.98286 15.1691V15.1689ZM3.46457 17.0616C3.61715 17.0046 5.37775 16.1841 5.78683 15.9924C5.99163 15.8965 6.58692 15.6852 6.58692 15.6852L3.46457 17.0616Z" fill="#CFB66C"/>
<path fill-rule="evenodd" clip-rule="evenodd" d="M3.46453 17.0615C3.59901 17.0103 3.72599 16.9476 3.85535 16.8881L4.2385 16.7094L5.00752 16.3392C5.26352 16.2175 5.51236 16.0832 5.77638 15.9688C5.91103 15.912 6.04569 15.8654 6.18017 15.8214L6.38497 15.7567C6.45478 15.7386 6.51963 15.7178 6.58977 15.6997C6.33377 15.8214 6.06429 15.925 5.80795 16.0439C5.55195 16.1709 5.29015 16.2745 5.02596 16.3883L4.24413 16.7326C3.98165 16.8389 3.72565 16.9527 3.46436 17.0615H3.46453ZM3.63519 17.7783C3.63519 17.7783 5.2299 16.8437 5.77877 16.5433C6.06617 16.3829 6.99562 15.9219 6.99562 15.9219L3.63519 17.7783Z" fill="#CFB66C"/>
<path fill-rule="evenodd" clip-rule="evenodd" d="M3.63525 17.7785C3.9044 17.6127 4.17883 17.4445 4.45326 17.2736L4.86286 17.025C5.00264 16.9422 5.13729 16.8645 5.2798 16.7818C5.41957 16.6988 5.55423 16.616 5.69657 16.5384C5.76433 16.4966 5.83532 16.4602 5.90888 16.4297L6.1263 16.321C6.41371 16.1812 6.70111 16.0387 7.00404 15.917C6.72961 16.0906 6.44733 16.2382 6.16522 16.3908C6.02544 16.4684 5.88293 16.5384 5.74316 16.616C5.60338 16.6937 5.46873 16.7766 5.32622 16.8517C5.18644 16.9345 5.05179 17.0122 4.90945 17.0873L4.48739 17.3177L3.6356 17.7785H3.63525ZM6.98271 16.1266C6.98271 16.1266 5.99114 16.8877 5.67011 17.1311C5.34909 17.3745 4.40411 18.058 4.40411 18.058L6.98271 16.1266Z" fill="#CFB66C"/>
<path fill-rule="evenodd" clip-rule="evenodd" d="M12.6734 22.2655L12.166 21.305L12.4611 20.1037L14.5659 19.2908L13.6701 17.4527L14.1128 15.5964L14.944 13.9341L17.5123 13.5303L19.3996 11.731L23.4747 12.039L24.2746 16.3963L22.7342 21.8824L21.8566 24.7226L18.2993 24.8573L16.6476 23.713L14.7136 22.905L12.6734 22.2655Z" fill="#E2CC85"/>
<path fill-rule="evenodd" clip-rule="evenodd" d="M18.913 22.2342C18.913 22.2342 18.421 22.4594 17.5818 22.4076C17.339 22.0814 15.6381 21.9287 15.6381 21.9287C15.6381 21.9287 15.4258 21.864 15.0503 22.0193C14.6725 22.1729 14.3151 22.1539 13.9811 22.2367C13.6471 22.3195 13.3155 21.8846 13.0595 21.794C12.8035 21.6983 12.464 21.4679 12.464 21.4679L11.7472 21.3979L10.3078 20.7895L8.02106 18.5112L7.39967 19.484L7.20801 20.6879L7.89938 22.1145L9.76084 23.8103L13.3906 24.7319L15.542 24.098L18.2372 22.9588L18.913 22.234V22.2342Z" fill="#F1D789"/>
<path fill-rule="evenodd" clip-rule="evenodd" d="M6.01706 14.1824L6.47786 12.787L7.0269 11.8859L8.795 11.7383L8.26423 13.2866L6.78609 15.9171L7.39963 18.2653L6.31232 18.8088L5.97815 18.2963L5.70901 17.1209L5.69092 15.8005L6.01706 14.1824Z" fill="#F4ECB4"/>
<path fill-rule="evenodd" clip-rule="evenodd" d="M8.00025 22.1383L7.66114 21.6646C7.66114 21.6646 7.57051 21.4393 7.62239 21.2425C7.67359 21.0432 7.66626 21.0302 7.64049 20.9551C7.61471 20.88 7.39711 20.6211 7.41009 20.3984C7.42289 20.1731 7.39199 20.098 7.55754 19.9195C7.73094 19.7461 7.67923 19.4457 7.67923 19.4457L7.90451 19.5855L7.95571 19.5078C7.95571 19.5078 8.03848 19.5725 8.03848 19.6736C8.05657 19.5338 7.98148 18.8864 8.15231 18.739C8.32315 18.5915 8.62609 19.4302 8.62609 19.4302L8.43972 18.2133L7.96066 16.9656L7.10886 15.8264L7.05766 14.5706V14.4619C7.05766 14.4619 6.66666 15.0627 6.55795 15.5371C6.48029 15.8633 6.66666 16.2594 6.62792 16.728C6.59669 17.1941 6.55795 17.1578 6.67178 17.3424C6.78562 17.5271 7.06278 17.9068 6.95406 18.1813C6.85832 18.4169 6.53201 18.2512 6.53201 18.2512C6.53201 18.2512 6.46732 18.4427 6.37926 18.5127C6.3482 18.3989 6.31458 18.3263 6.25245 18.2567C6.24716 18.3007 6.23436 18.3603 6.23436 18.3603C6.23436 18.3603 6.17736 18.1816 6.12036 17.9563C6.04287 17.6561 5.95993 17.26 5.88484 17.0477C5.85378 17.1694 5.77612 17.5395 5.77612 17.5395L5.82016 18.1092L6.03246 18.8911L6.23726 19.4031L6.4366 20.0296L6.60983 20.4504L6.74961 20.7715L6.87129 21.4939L7.4589 22.1151L7.77224 22.2551L7.99991 22.1385L8.00025 22.1383Z" fill="#F3E19D"/>
<path fill-rule="evenodd" clip-rule="evenodd" d="M6.3251 13.0434C6.3251 13.0434 5.90304 13.7602 5.78153 14.4828C5.66001 15.2054 5.55113 15.9689 5.62793 16.9527C5.70558 17.9444 5.85321 18.5527 5.97233 18.9877C6.17713 19.7101 6.70756 20.7147 6.70756 20.7147L6.72565 20.6758C6.63649 20.5068 6.56533 20.3289 6.51334 20.145C6.44337 19.8706 6.41743 19.5444 6.35275 19.3968C6.29574 19.2493 6.2 19.1224 6.15341 18.9411C6.10938 18.7677 6.10221 18.4933 5.96704 18.2888C5.91004 18.2059 5.84006 17.9884 5.81941 17.771C5.79347 17.4447 5.83238 17.0796 5.80132 16.7794C5.74432 16.2797 5.70558 15.9406 5.75729 15.679C5.809 15.4174 6.07849 14.6746 6.2442 14.0843C6.35292 13.7062 6.28806 13.3878 6.4874 13.0589C6.68674 12.7328 6.8086 12.4454 6.85246 12.246C6.90366 12.0648 6.32442 13.0434 6.32442 13.0434H6.3251Z" fill="#F2E8B0"/>
<path fill-rule="evenodd" clip-rule="evenodd" d="M8.32654 12.7559C8.32654 12.7559 8.10911 12.8207 8.00551 12.9345C7.90192 13.0433 7.85789 13.1339 7.71811 13.3177C7.57833 13.5015 7.57048 13.6517 7.45648 13.8821C7.34264 14.1074 7.09142 14.4465 7.06036 14.5682C7.0293 14.6899 6.97759 15.2594 6.9129 15.5287C6.8559 15.798 6.97759 16.1294 6.97759 16.1294L7.12504 16.0982C7.12504 16.0982 7.12504 16.2899 7.27267 16.4194C7.42013 16.5462 7.44607 15.9895 7.44607 15.9895L7.99749 14.128L8.82847 13.5636L8.91909 13.1079L8.3262 12.7559H8.32654Z" fill="#F5EEC0"/>
<path fill-rule="evenodd" clip-rule="evenodd" d="M8.73037 13.6C8.73037 13.6 8.33937 13.6258 8.14788 13.7657C8.07023 13.8226 8.03917 13.8692 7.9564 13.9391C7.80365 14.0659 7.64817 14.1825 7.57325 14.3487C7.4903 14.5143 7.39968 14.7655 7.33756 15.2393C7.31162 15.4386 7.31162 15.6224 7.29353 15.783C7.26758 16.0004 7.22884 16.1738 7.24949 16.295C7.27544 16.5435 7.53178 16.673 7.55669 16.9551L8.08747 16.686L8.58718 14.7157L9.64873 14.0501L9.04798 13.377L8.72969 13.5988L8.73037 13.6Z" fill="#E6DB9D"/>
<path fill-rule="evenodd" clip-rule="evenodd" d="M5.93035 26.8677C5.93257 26.8482 5.93478 26.8288 5.937 26.8088C6.01449 26.1432 6.02763 25.6387 6.08446 25.3228C6.16723 24.875 6.22423 24.7084 6.21126 24.5408C6.19317 24.2717 6.17252 24.0749 6.19846 23.8677C6.23721 23.5933 6.50652 23.2671 6.49884 23.0419C6.49355 22.8632 6.40292 22.7468 6.32527 22.6381C6.24762 22.5293 6.18549 22.4387 6.18549 22.4387C6.18549 22.4387 6.71627 22.0737 6.71115 20.603C6.72199 20.6061 6.73242 20.6104 6.74221 20.616L7.00367 21.3589L7.18236 21.5763L7.86844 22.8553L8.7513 23.7124L10.056 24.59L10.8742 25.4803L10.957 27.8545L9.88777 29.2422L9.71266 29.5593C8.32151 28.8609 7.04582 27.9531 5.93018 26.8675L5.93035 26.8677Z" fill="#E5CB7A"/>
<path fill-rule="evenodd" clip-rule="evenodd" d="M9.19653 29.1392C9.19653 29.1392 9.21462 28.8441 9.45799 28.6525C9.49691 28.7172 9.52268 28.7795 9.515 28.8259C9.55903 28.7484 9.86708 28.2512 10.5636 28.1217C11.2601 27.9949 11.4283 27.4875 11.4283 27.4875L12.9065 26.1438L14.5971 24.5879L16.6528 23.8655L17.6135 23.6298C17.6135 23.6298 17.6316 23.6997 17.5954 23.855C17.7739 23.8422 18.17 23.7516 18.5817 23.6065C18.7474 23.5419 18.9029 23.5159 18.9856 23.6014C19.1073 23.7153 19.1254 23.9846 19.1331 24.145C19.3324 24.101 19.5628 23.9095 19.7475 23.9276C20.0427 23.9586 20.3042 24.3056 20.6046 24.3056C21.0007 24.3056 21.1792 24.0622 21.4564 23.8706C21.6221 23.7567 21.8602 23.6146 21.9948 23.5185C22.3158 23.2828 25.7126 22.2446 25.7126 22.2446L26.9035 22.3223L27.0952 23.6013L26.9928 26.9446C26.9802 26.9567 26.9675 26.9694 26.9547 26.9815L21.5398 29.8096L14.0339 30.9602C12.3526 30.6855 10.73 30.1274 9.23545 29.3097L9.19705 29.1391L9.19653 29.1392Z" fill="#D8C173"/>
<path fill-rule="evenodd" clip-rule="evenodd" d="M6.3855 27.2932C6.49216 27.0702 6.58808 26.8836 6.60498 26.8169C6.61829 26.9514 6.64269 27.2465 6.69184 27.5601C6.58865 27.4724 6.48653 27.3834 6.3855 27.2931V27.2932Z" fill="#F1D789"/>
<path fill-rule="evenodd" clip-rule="evenodd" d="M11.8684 30.4397L12.8391 30.1697L12.9219 30.1957C12.9219 30.1957 12.9659 30.2216 12.9659 30.3095C13.0876 30.2397 13.1912 30.2525 13.2663 30.2061C13.3051 30.2889 13.3438 30.5633 13.5148 30.5969C13.6933 30.6358 13.885 30.5193 14.0792 30.3718C14.2707 30.219 14.4888 30.0274 14.6538 29.9497C14.7144 30.0611 14.768 30.176 14.8144 30.294C15.0319 30.1206 15.4099 29.4164 15.9483 29.4292C16.104 29.0614 16.364 28.7473 16.6962 28.5257C17.1959 28.1866 17.5091 28.1606 17.9001 28.1917C18.0554 27.99 18.2467 27.8188 18.4645 27.6869C18.5292 27.7128 18.7078 27.8215 18.9306 27.7179C19.1558 27.6145 19.4095 27.2131 19.7435 27.1614C19.9234 27.1366 20.1064 27.175 20.2613 27.2701C20.2613 27.2701 21.2341 26.3043 21.9053 25.9833C21.8793 25.9056 21.8276 25.6131 22.6146 24.9658C22.6586 25.0047 22.6276 25.1134 22.6586 25.1194C22.6714 25.1194 22.8634 25.0366 23.1064 24.85C23.4068 24.6249 23.7666 24.3892 23.984 24.3246C24.3936 24.2029 24.8281 24.4514 24.8281 24.4514C24.8651 24.4255 24.9063 24.4062 24.9498 24.3944C25.0532 24.3763 25.1283 24.3633 25.1853 24.3432C25.1802 24.4778 25.2553 24.7082 25.1853 24.9076C25.2664 24.9531 25.3522 24.9896 25.4413 25.0163C25.3975 25.112 25.3016 25.3554 25.1411 25.472C25.2756 25.5366 25.2937 25.6117 25.4854 25.6768C25.4077 25.7855 25.2806 25.972 25.2239 26.0864C25.1669 26.208 24.9623 26.7129 24.8716 26.9044C24.7759 27.096 24.6465 27.4481 24.5842 27.5188C24.522 27.5894 24.2968 27.8889 24.1234 28.0364C24.277 27.9794 24.9054 27.7879 25.172 27.7154C25.0927 27.8318 24.6904 28.4286 24.3037 29.0025C20.5578 31.2477 16.0269 31.7722 11.8672 30.4423L11.8684 30.4397Z" fill="#E0CD81"/>
<path fill-rule="evenodd" clip-rule="evenodd" d="M8.79448 13.5302C8.79448 13.5302 8.56937 13.5302 8.52534 13.5613C8.48131 13.5923 8.75062 13.6572 8.83339 13.6882C8.91617 13.7193 9.09485 13.8616 9.14145 13.9756C9.18548 14.0844 10.7595 14.7186 10.7595 14.7186L11.8728 14.6615L12.2566 14.1313L11.5265 13.4918L12.0385 11.9824L11.3603 12.0911L9.72922 13.0639L8.91105 13.3773L8.79448 13.5302Z" fill="#DFC57C"/>
<path fill-rule="evenodd" clip-rule="evenodd" d="M11.2393 14.0299C11.272 14.0829 11.3305 14.1145 11.3929 14.1127C11.6233 14.1127 11.8354 14.1697 11.9235 14.2861C12.0711 14.4726 12.4802 15.0681 12.4802 15.0681L13.4588 15.4202L13.5219 14.2678L12.4527 13.5249L11.2358 13.9727V14.0297H11.2386L11.2393 14.0299Z" fill="#E5CC7C"/>
<path fill-rule="evenodd" clip-rule="evenodd" d="M11.0471 14.4571C11.0471 14.4571 11.2257 14.47 11.4509 14.3871C11.6762 14.3041 12.0464 14.1256 12.207 14.1956C12.4321 14.2913 12.3855 14.5917 12.6291 14.8612C12.7765 15.0269 13.0458 15.0218 13.1986 15.2005C13.3513 15.3792 13.8768 15.2962 13.8768 15.2962L14.0761 16.3714L13.2762 17.3968L13.0146 18.6705H11.9329L10.9447 18.2785L10.458 17.1009L10.7014 15.9099L11.0471 14.4571Z" fill="#D2C281"/>
<path fill-rule="evenodd" clip-rule="evenodd" d="M13.1397 14.5087C13.1665 14.517 13.1944 14.5214 13.2224 14.5217C13.1914 14.5476 13.1265 14.6045 13.1525 14.7521C13.1784 14.8997 13.2612 15.0861 13.1914 15.1999C13.2471 15.2609 13.2886 15.3334 13.3131 15.4122C13.3571 15.5392 13.3701 15.6556 13.6573 15.6739C13.6158 15.6994 13.5776 15.7298 13.5435 15.7645C13.5435 15.7645 13.7428 15.9379 13.8438 16.0983C13.9473 16.0939 14.2217 16.0085 14.2217 16.0085L14.2787 16.0475L14.4004 15.9963C14.4004 15.9963 14.2865 15.9522 14.3693 15.6752C14.447 15.4319 14.5169 15.4448 14.5229 15.4267C14.5289 15.4087 14.5799 15.1523 14.5799 15.0487C14.6187 14.9142 14.6497 14.5051 14.6497 14.5051L14.5669 13.6016L14.101 13.3194L13.7221 12.9536L13.3648 13.6267L13.1294 13.8614L13.1113 14.4439L13.1397 14.5087Z" fill="#E2C270"/>
<path fill-rule="evenodd" clip-rule="evenodd" d="M14.2605 13.7527C14.2605 13.7527 14.3433 13.9882 14.3745 14.1695C14.3855 14.1343 14.3916 14.0977 14.3926 14.0608C14.3926 14.0608 14.4573 14.4181 14.4701 14.5658C14.496 14.5605 14.5213 14.5528 14.5271 14.5786C14.5329 14.6043 14.5919 14.8919 14.5783 15.0523C14.6861 14.8745 14.8353 14.7253 15.0131 14.6175C15.1167 14.5526 15.2384 14.4828 15.3654 14.4775C15.5647 14.4724 15.7096 14.6045 15.9479 14.6045C16.5225 14.6045 17.043 14.1825 17.4262 14.0531C17.7083 13.9572 17.9517 13.8874 18.1225 13.7319C18.2055 13.6621 18.3531 13.5068 18.4876 13.2762C18.6663 12.969 18.8526 12.7016 19.0392 12.668C18.9548 12.6835 18.8689 12.6895 18.7832 12.6861C18.7832 12.6861 18.8402 12.629 18.9368 12.5514C19.0334 12.4737 19.1491 12.378 19.3146 12.378C19.6099 12.378 19.7573 12.4219 19.923 12.4219C20.0888 12.4167 20.1845 12.378 20.1845 12.378C20.1845 12.378 20.3581 12.4997 20.7489 12.4997C21.1399 12.5048 21.4014 12.5384 21.606 12.5567C21.8106 12.5749 22.4965 12.4997 22.6933 12.5055C22.8216 12.5104 22.9476 12.5413 23.0637 12.5961L22.4293 10.7529L20.1505 8.76123L18.7939 9.72174L16.707 11.8085L14.6877 12.5567L14.2656 13.0305V13.7527H14.2605Z" fill="#CCB360"/>
<path fill-rule="evenodd" clip-rule="evenodd" d="M18.7913 12.6966C18.7913 12.6966 18.8483 12.6397 18.9439 12.5621C19.0395 12.4844 19.1564 12.3885 19.3219 12.3885C19.617 12.3885 19.7647 12.4326 19.9304 12.4326C20.0961 12.4274 20.1918 12.3885 20.1918 12.3885C20.1918 12.3885 20.3656 12.51 20.7562 12.51C21.1472 12.5152 21.4087 12.5488 21.6133 12.5669C21.8179 12.585 22.5039 12.51 22.7006 12.5157C22.8289 12.5205 22.9548 12.5513 23.0708 12.6063L22.7834 11.7751L22.4496 11.1409L21.4968 10.0975C21.4968 10.0975 20.3533 9.42438 20.3446 9.41926C20.3395 9.41414 19.9485 9.31055 19.9485 9.31055L18.9129 9.93706L17.9732 12.3682L17.9551 12.8802L18.5633 13.1676C18.7161 12.9116 18.8845 12.7068 19.0424 12.6809C18.8999 12.6964 18.7912 12.6964 18.7912 12.6964L18.7913 12.6966Z" fill="#D5B457"/>
<path fill-rule="evenodd" clip-rule="evenodd" d="M18.7784 12.8702C18.6877 12.8753 18.6128 12.8572 18.592 12.7925C18.5143 12.5751 18.4522 12.544 18.3872 12.544C18.3222 12.544 18.2345 12.6838 18.1824 12.6966C18.1303 12.7094 18.0686 12.5362 18.0686 12.5362L18.0116 12.5103C18.0116 12.5103 17.6776 12.7277 17.4421 12.984C17.2065 13.2404 16.8207 13.6754 16.6473 13.7529C16.4739 13.8304 15.8782 13.8565 15.6745 13.9005C15.4707 13.9445 15.2447 14.0922 15.2137 14.1258C15.1826 14.1594 15.3045 14.1956 15.3225 14.2292C15.3406 14.2603 15.123 14.2473 15.1049 14.2804C15.0921 14.3063 15.1561 14.4538 15.1879 14.5289C15.2434 14.5013 15.3044 14.4862 15.3664 14.4849C15.5657 14.4797 15.7108 14.6118 15.9489 14.6118C16.5237 14.6118 17.0441 14.1898 17.4272 14.0602C17.7095 13.9645 17.9529 13.8945 18.1237 13.7392C18.2065 13.6694 18.3541 13.5139 18.4887 13.2835C18.5871 13.1257 18.683 12.9781 18.7789 12.8693L18.7784 12.8702Z" fill="#D2B257"/>
<path fill-rule="evenodd" clip-rule="evenodd" d="M10.5352 25.6832C10.5352 25.6832 10.484 25.4915 10.0096 24.9971C9.87489 24.8573 9.79212 24.7411 9.7015 24.658C9.47622 24.4455 9.34412 24.3887 9.18369 24.267C8.83161 24.0055 8.44846 24.0055 8.15338 23.6845C7.8583 23.3635 7.5144 22.7501 7.27547 22.1232C7.03995 21.4967 6.9751 21.2974 6.9751 21.2793C6.9751 21.2612 7.03995 21.1395 7.12272 21.1576C7.2055 21.1757 7.2055 21.3361 7.22632 21.375C7.26756 21.4385 7.31433 21.4983 7.36609 21.5535C7.48778 21.6935 7.66118 21.8607 7.74924 22.1103C7.73115 21.8979 7.65862 21.6624 7.65862 21.6624C7.65862 21.6624 8.1143 21.9498 8.50256 22.25C8.89356 22.5504 9.05399 22.654 9.16816 22.8455C9.28234 23.037 9.55131 23.542 9.68016 23.6896C9.80902 23.8372 11.5746 24.3938 11.5746 24.3938L12.4144 25.0199L12.8314 25.9339L12.505 26.4459L11.8785 26.5805L10.861 26.1248L10.5352 25.683V25.6832Z" fill="#D2B159"/>
<path fill-rule="evenodd" clip-rule="evenodd" d="M8.27466 22.5347C8.27466 22.5347 8.48697 22.8738 9.00477 23.1948C9.47086 23.4771 10.2087 23.7335 10.8664 23.8862C11.2443 23.9768 11.6223 24.0466 11.9614 24.0519C12.8753 24.0647 13.5044 23.8034 14.2838 23.7179C14.7059 23.6739 15.2237 23.6403 15.7621 23.5131C16.4533 23.3474 16.8624 23.1609 17.4191 22.8987C17.8229 22.7124 18.1933 22.5726 18.4935 22.3939C18.9156 22.1454 19.2236 21.8684 19.581 21.7856C19.537 21.9073 19.4904 22.1248 19.1383 22.35C19.3246 22.3447 19.581 22.3319 19.581 22.3319C19.581 22.3319 19.3325 22.4794 18.8949 22.8108C18.6256 23.0156 18.2684 23.3623 17.9033 23.5927C17.6676 23.7403 17.4113 23.8487 17.243 23.9371C16.8334 24.1623 16.6682 24.2762 16.3991 24.5515C16.4948 24.5463 16.5027 24.5515 16.5027 24.5515C16.5027 24.5515 16.1634 24.5955 15.9202 24.7249C15.869 24.7249 15.7802 24.7068 15.6249 24.7508C15.5032 24.7895 15.3426 24.8778 15.1771 24.9242C14.9414 24.9942 14.8639 24.9631 14.8639 24.9631L14.9027 25.0408C14.9027 25.0408 14.5955 25.0355 14.4931 25.0459C14.5112 25.051 14.506 25.0589 14.506 25.0589C14.4881 25.0619 14.4707 25.068 14.4548 25.077C14.4056 25.1089 14.3514 25.1325 14.2944 25.1468C14.2634 25.1519 14.2374 25.1519 14.1985 25.1597C14.2115 25.1908 14.3125 25.3645 14.3591 25.4669C14.3204 25.4929 13.7377 25.933 13.7377 25.933C13.7558 25.9615 13.7705 25.9919 13.7817 26.0236C13.7998 26.0805 13.8077 26.1634 13.8258 26.2022C13.8696 26.2798 13.8956 26.2928 13.8956 26.2928C13.8956 26.2928 13.8258 26.3057 13.7039 26.3368C13.6005 26.3628 13.4735 26.4066 13.2943 26.4326C13.2393 26.4397 13.184 26.444 13.1286 26.4455C13.1545 26.5025 13.2684 26.72 13.0586 26.971C12.8489 27.2221 12.7842 27.2586 12.7195 27.419C12.6869 27.3944 12.6523 27.3727 12.6159 27.3542C12.5461 27.3231 12.4502 27.2767 12.4166 27.2144C12.397 27.2974 12.371 27.3787 12.3389 27.4577C12.2742 27.6311 12.1785 27.8022 12.1604 27.9315C12.0904 27.8539 11.9611 27.7011 11.7824 27.7322C11.6037 27.7632 11.4613 28.0066 11.4303 28.0766C11.4303 28.0326 11.3992 27.9989 11.3915 28.0506C11.3863 28.1076 11.2879 28.7029 10.7391 29.1846C10.734 29.0629 10.734 28.7936 10.721 28.7057C10.6698 28.7569 10.6072 28.8325 10.2343 28.9931C9.8692 29.1535 9.92705 29.3141 9.92705 29.3141C9.92705 29.3141 9.89599 29.0581 10.0928 28.7884C10.2921 28.5193 10.4138 28.3923 10.4138 28.3717C10.4106 28.3506 10.4016 28.3309 10.3879 28.3147C10.3619 28.2887 10.3102 28.2577 10.3102 28.237C10.3413 28.2242 10.6493 28.0766 10.6312 27.7709C10.6131 27.4967 10.4967 27.3542 10.4138 27.2533C10.401 27.2403 10.5357 27.1446 10.5174 27.1135C10.5044 27.0954 10.3389 26.9736 10.3181 26.9087C10.3229 26.87 10.3316 26.8319 10.344 26.7949C10.3621 26.7379 10.3751 26.699 10.3699 26.6602C10.357 26.5955 10.287 26.4169 10.2663 26.3988C10.2844 26.4039 10.4138 26.3988 10.4138 26.3988C10.4138 26.3988 10.3104 26.233 10.2921 26.1554C10.2738 26.0777 10.2351 25.8731 10.2145 25.8344C10.2585 25.8395 10.3672 25.8472 10.3672 25.8344C10.3725 25.7955 10.2715 25.7308 10.316 25.6808C10.3471 25.6859 10.4066 25.7118 10.4635 25.7844C10.4324 25.7014 10.3807 25.541 10.2718 25.4763C10.323 25.4582 10.4971 25.4115 10.6498 25.5021C10.8026 25.5927 10.8546 25.7195 10.8546 25.7195C10.8546 25.7195 10.9453 25.7895 11.0852 25.8931C11.2456 26.0199 11.4501 26.2003 11.7764 26.3279C11.8464 26.3668 12.0249 26.3668 12.1544 26.3409C12.2108 26.3275 12.2649 26.3057 12.3149 26.2762C12.3329 26.2656 12.352 26.2569 12.3719 26.2503C12.344 26.1944 12.312 26.1407 12.2761 26.0897C12.3201 26.0897 12.3719 26.095 12.3719 26.095C12.3719 26.095 12.4029 26.025 12.2631 25.8902C12.2942 25.8591 12.3331 25.839 12.3331 25.7866C12.2891 25.7815 12.2114 25.7168 12.1933 25.6908C12.2191 25.6727 12.258 25.6132 12.3021 25.5951C12.2631 25.564 12.1674 25.4345 12.1234 25.4217C12.1654 25.4061 12.2061 25.387 12.245 25.3647C12.245 25.3647 12.0276 25.3077 11.9576 25.2611C11.8877 25.2099 11.7842 25.1213 11.7221 25.0954C11.6573 25.0694 11.5434 25.0566 11.4968 25.0048C11.5407 25.0177 11.6107 25.0048 11.6626 25.0048C11.7013 25.0048 11.7196 25.0099 11.7324 25.0099C11.7272 24.9918 11.7272 24.9529 11.8283 24.9401C11.8769 24.9328 11.924 24.9179 11.9681 24.896C11.9681 24.896 11.8721 24.8909 11.7633 24.7873C11.6544 24.6837 11.5639 24.601 11.5018 24.588C11.4371 24.575 11.3154 24.632 11.2403 24.6267C11.1367 24.6139 11.0927 24.562 11.0927 24.562C11.0927 24.562 10.7485 24.5931 9.98474 24.1272C9.32443 23.7232 9.03703 23.366 9.03703 23.366C8.97523 23.3436 8.9155 23.3158 8.85851 23.2831C8.61002 23.1537 8.26561 22.8844 8.27602 22.5321L8.27466 22.5347Z" fill="#C2A44D"/>
<path fill-rule="evenodd" clip-rule="evenodd" d="M17.7997 6.9953C17.8596 7.01475 17.9129 7.05065 17.9533 7.09889C18.075 7.23867 18.1527 7.50269 17.8757 7.78497C17.9844 7.82371 18.0293 7.83617 18.1242 7.82371C18.0284 7.93772 17.811 8.18109 17.798 8.3934C17.7851 8.5668 17.8938 8.61868 17.8938 8.61868C17.8938 8.61868 17.7281 8.81017 17.7204 9.13068C17.7986 9.04243 17.8843 8.96101 17.9764 8.88731C18.168 8.73456 18.4321 8.56116 18.6107 8.45245C18.6083 8.49802 18.6145 8.54363 18.6288 8.58694C18.6288 8.58694 18.9627 8.3125 19.2432 8.43436C19.37 8.49136 19.313 8.66988 19.313 8.66988C19.313 8.66988 19.4866 8.6052 19.6083 8.72688C19.73 8.84857 19.902 9.16242 19.9902 9.28411C20.029 9.34111 20.13 9.44983 20.2334 9.6181C20.3747 9.8537 20.4927 10.1025 20.5857 10.361C20.5908 10.2264 20.6244 10.0168 21.0078 10.1487C21.3909 10.2834 21.8258 10.5656 22.1908 11.1215C22.5559 11.6774 22.6463 12.3049 22.8301 12.5438C23.0165 12.7742 23.2082 13.1574 23.2211 13.318C23.2341 13.4786 23.1641 13.9962 23.5473 15.3969C23.656 14.962 23.8217 13.9962 23.8217 13.9962L23.9123 13.1444L24.0159 10.5088L21.2638 8.22239L19.1123 6.66113L17.7117 6.79579L17.7996 6.99513L17.7997 6.9953Z" fill="#CAA13E"/>
<path fill-rule="evenodd" clip-rule="evenodd" d="M22.913 10.9179C22.913 10.9179 22.8741 10.6619 22.2269 10.2267C21.5796 9.79695 21.0747 9.79695 20.6088 9.43189C20.2514 9.14449 19.8787 8.48418 19.636 8.26675C19.4003 8.05188 19.3616 7.43049 19.3616 7.43049L20.1564 6.76489L21.3384 5.05634L22.3377 3.95605L22.8165 4.62165L23.4821 5.40348L23.8523 6.97242L23.987 9.26891L22.9118 10.9181L22.913 10.9179Z" fill="#B59544"/>
<path fill-rule="evenodd" clip-rule="evenodd" d="M23.713 13.6706C23.7326 13.3223 23.6895 12.9734 23.586 12.6403C23.4153 12.1095 23.0424 11.1671 22.8692 10.8142C22.7992 10.4232 22.8511 10.3921 22.9262 10.3481C23.0013 10.304 23.2836 10.1433 23.4382 9.57921C23.5928 9.01516 24.0726 8.99673 24.0726 8.99673L24.3676 8.7793L24.8156 9.90024L25.2065 10.9126L25.3282 11.6868L25.4188 12.3469L25.2065 13.7425L24.1581 14.69L23.7128 13.6706H23.713Z" fill="#C89D3A"/>
<path fill-rule="evenodd" clip-rule="evenodd" d="M9.08276 29.225V29.1963C9.10455 29.1827 9.12378 29.1654 9.1396 29.1451C9.15769 29.1192 9.17083 29.0881 9.18363 29.0804C9.20957 29.0675 9.33125 29.0292 9.39594 29.0415C9.46062 29.0538 9.63163 29.1243 9.72225 29.1192C9.90862 29.1141 10.126 28.9716 10.4705 29.0364C10.9883 29.1322 11.1099 29.4842 11.4103 29.6836C11.6151 29.8235 11.8271 29.7612 11.8581 29.7612H11.9279C11.9409 29.7612 12.0367 29.6525 12.0885 29.6578C12.1921 29.6629 12.2024 29.7484 12.2671 29.7536C12.4198 29.7716 12.7151 29.6759 12.8627 29.7148C12.9515 29.7426 13.0211 29.8122 13.0491 29.901C13.0801 29.9968 13.0542 30.1184 12.9791 30.1884C12.8187 30.3359 12.6659 30.4758 12.6348 30.598C12.6744 30.6281 12.7123 30.6603 12.7485 30.6943C11.4675 30.3679 10.235 29.8744 9.08276 29.2265V29.225Z" fill="#CEB052"/>
<path fill-rule="evenodd" clip-rule="evenodd" d="M22.8689 24.052C22.8689 24.052 23.2727 23.5135 23.4126 23.2468C23.5524 22.9718 22.9699 19.4902 22.9699 19.4902L24.1402 15.656L24.109 14.4081C24.109 14.4081 24.166 13.256 24.3006 12.7562C24.4612 13.0436 24.9609 13.3906 25.0696 13.5744C25.1208 13.2222 25.2948 12.4792 25.269 11.687C25.3647 11.8345 25.5951 13.3181 25.5951 13.3181L25.8255 14.3173L26.1259 15.3789L26.4599 16.5L26.6592 17.2741L26.7731 17.4605L26.869 17.7866L26.9596 18.1389L27.2211 18.9648L27.3747 19.643L27.4964 20.8728C27.5228 20.967 27.5419 21.0631 27.5534 21.1602C27.5585 21.2949 27.5353 21.3725 27.5353 21.3959C27.5353 21.4193 27.5793 21.691 27.5612 21.8956C27.5353 22.1004 27.5353 22.2607 27.3747 22.4076C27.2141 22.5546 27.1132 23.4328 27.1132 23.4328L26.8258 23.2413C26.8258 23.2413 26.8828 22.9797 26.7482 22.7416C26.6135 22.5035 26.352 22.4542 26.2044 22.4931C26.057 22.5242 25.7619 22.5706 25.666 22.6535C25.5753 22.7363 25.3528 22.9927 25.1482 23.1092C24.8922 23.2628 24.475 23.2749 24.2525 23.3266C24.0272 23.3778 23.7787 23.5315 23.5171 23.7098C23.312 23.8426 23.0954 23.9568 22.8699 24.0511L22.8689 24.052Z" fill="#CCA847"/>
<path fill-rule="evenodd" clip-rule="evenodd" d="M22.8689 29.7086C22.8689 29.7086 22.886 29.7197 22.9189 29.7378C24.7583 28.876 26.4063 27.6545 27.7658 26.1452C27.751 25.6213 27.7317 25.0842 27.7105 24.8852C27.6667 24.4632 27.6977 24.0334 27.6848 23.7849C27.6718 23.5364 27.532 22.524 27.4673 22.2626C27.3974 22.0011 27.2625 21.8716 27.2421 21.8716C27.224 21.8769 27.1151 22.3636 27.1151 22.486C27.1151 22.6084 27.0891 22.9029 27.0891 22.978C27.0711 22.9727 27.0634 22.9268 27.0634 22.908C27.0374 22.9727 27.0064 23.0867 26.9934 23.0997C26.9804 23.1127 27.0115 22.991 26.9934 22.965C26.9753 22.9391 26.9422 22.9521 26.9494 22.8874C26.9524 22.849 26.9585 22.811 26.9675 22.7736C26.9675 22.7736 26.8898 22.8874 26.833 23.1774C26.776 23.4648 26.776 23.4726 26.7553 23.4984C26.7372 23.5296 26.6336 23.633 26.6283 23.6719C26.6232 23.7417 26.7243 23.8117 26.7319 23.8505C26.7371 23.9153 26.6413 24.2155 26.6103 24.3625C26.5792 24.5094 26.5922 24.7973 26.5591 24.9449C26.5331 25.0796 26.5079 25.1573 26.4193 25.2141C26.484 25.2271 26.5461 25.2452 26.5461 25.2452C26.5461 25.2452 26.6367 25.6283 26.4063 25.9546C26.3235 26.0684 26.3029 26.1203 26.2148 26.2239C26.0412 26.4154 25.9066 26.6335 25.8936 26.7753C25.8847 26.7335 25.8786 26.6911 25.8755 26.6484C25.8755 26.6484 25.6064 26.9617 25.4924 27.1404C25.3449 27.3708 25.1403 27.3578 25.0828 27.4148C25.0253 27.4718 25.0128 27.5753 25.0316 27.6582C24.9804 27.671 24.8841 27.6893 24.8193 27.8886C24.7882 27.992 24.7106 28.0934 24.5889 28.163C24.4672 28.2327 24.3196 28.2537 24.2445 28.2718C24.3092 28.2898 24.3351 28.2898 24.3662 28.3105C24.3274 28.3752 24.1487 28.4762 23.9494 28.6057C23.75 28.7274 23.6541 28.906 23.605 29.0225C23.5538 29.1312 23.4782 29.2012 23.3565 29.2142C23.4077 29.2452 23.4835 29.3176 23.5222 29.341C23.4652 29.354 23.3686 29.354 23.1961 29.5016C23.0148 29.6518 22.9527 29.6958 22.8697 29.7088L22.8689 29.7086Z" fill="#C39D3C"/>
<path fill-rule="evenodd" clip-rule="evenodd" d="M19.2665 30.9087C19.3656 30.8392 19.473 30.7823 19.5861 30.7392C19.9899 30.5788 20.4171 30.5478 20.5854 30.496C20.746 30.4448 20.8728 30.3742 21.0721 30.3354C21.0668 30.3808 21.0624 30.4235 21.0576 30.4638C20.4699 30.6485 19.8715 30.7971 19.2656 30.9087H19.2665Z" fill="#D2BA6B"/>
<path fill-rule="evenodd" clip-rule="evenodd" d="M26.7143 20.2876C26.7143 20.2876 26.6315 20.7354 26.4839 21.0177C26.3363 21.3 26.1767 21.6908 26.1767 21.6908C26.1777 21.6027 26.1881 21.515 26.2078 21.4292C26.0214 21.5379 25.5683 21.7995 25.4398 21.9159C25.3181 22.0246 25.1134 22.2163 25.0617 22.3069C25.1834 21.9497 25.3102 21.6287 25.331 21.481C25.1447 21.6157 24.2746 22.3328 23.8217 22.8066L22.4106 23.9484C22.2478 24.0362 22.0801 24.1147 21.9083 24.1836C21.6651 24.287 21.3777 24.375 21.1654 24.458C21.2224 24.3052 21.3129 24.1704 21.4398 24.041C21.5745 23.9142 21.9783 23.4767 22.0404 23.273C22.0974 23.0607 22.1104 22.9339 22.0353 22.7552C21.9653 22.7733 21.8049 22.7812 21.6962 22.8122C21.5875 22.8433 21.4709 22.9597 21.4709 22.9597C21.4709 22.9597 21.5537 22.4859 21.7324 22.0381C21.5977 22.0432 21.3673 22.082 21.3673 22.082C21.3673 22.082 21.6883 21.5435 22.2377 21.1682C22.0695 21.204 21.9048 21.2551 21.7459 21.3208C21.4248 21.4554 21.0727 21.6548 20.8113 21.7635C20.9587 21.5587 21.9943 20.0807 22.6106 18.7033C23.225 17.3286 23.4546 16.9765 23.5892 16.2387C23.659 15.8736 23.6404 15.3341 23.659 14.851C23.6771 14.3719 23.7367 13.9422 23.6979 13.6548C23.8584 13.8541 24.4591 14.416 24.4798 15.6717C24.4979 16.9273 23.9051 18.6232 23.2759 19.537C23.4295 19.581 23.8275 19.6329 24.2364 18.9226C24.6453 18.2123 24.6404 18.014 24.788 17.7187C24.8061 17.8663 24.8008 17.918 24.8008 17.918C24.8008 17.918 25.3964 17.1958 25.6785 16.287C25.7355 16.678 25.9038 17.0224 25.6396 17.7395C25.4041 18.3867 25.096 18.5447 25.096 18.5447C25.096 18.5447 25.2488 18.5188 25.4739 18.3841C25.5128 18.4799 25.5051 18.5889 25.5698 18.6275C25.6345 18.6661 25.7226 18.7311 25.7355 18.7932C25.8053 18.6896 25.914 18.5575 25.9478 18.4592C25.9219 18.664 25.9038 19.5595 25.999 20.0152C26.1985 19.9971 26.403 19.9841 26.5428 19.6242C26.447 19.9764 26.447 20.1886 26.5117 20.489C26.6179 20.4166 26.7136 20.2871 26.7136 20.2871L26.7143 20.2876Z" fill="#C0993A"/>
<path fill-rule="evenodd" clip-rule="evenodd" d="M19.9874 6.0169C19.9874 6.0169 19.788 6.09967 19.4489 6.09967C19.1538 6.09967 19.2366 5.98584 18.7758 5.98584C18.0665 5.98584 15.5888 6.39544 15.1538 6.38964C14.8715 6.38452 16.1064 6.51132 16.1064 6.51132L19.2626 6.55535L19.8968 6.50415L20.1324 6.02458L19.9874 6.0169Z" fill="#A88F33"/>
<path fill-rule="evenodd" clip-rule="evenodd" d="M11.8037 12.1862C11.8037 12.1862 11.3997 12.4943 11.2289 12.73C11.058 12.9657 10.9674 13.1208 10.7732 13.3125C10.8188 13.3142 10.8643 13.3081 10.9078 13.2944C10.9078 13.2944 10.9078 13.3456 10.8768 13.3591C10.9312 13.353 10.9853 13.3718 11.0242 13.4103C10.9672 13.4413 10.8119 13.5968 10.9336 13.7806C11.0242 13.9204 11.2159 13.9332 11.2159 13.9332C11.2159 13.9332 11.1719 14.0602 11.3557 14.0472C11.7518 14.0291 12.1945 13.8555 12.399 13.8996C12.6038 13.9508 12.7202 13.9695 12.8651 14.2208C13.0187 14.4692 13.1525 14.5082 13.1525 14.5082C13.1525 14.5082 13.2431 14.2776 13.2224 13.9334C13.2967 13.7478 13.3379 13.5506 13.3441 13.3509L13.2095 12.3593L12.6219 11.6162L11.8607 12.0383L11.8037 12.1857V12.1862Z" fill="#E3C571"/>
<path fill-rule="evenodd" clip-rule="evenodd" d="M12.5259 12.0391C12.5259 12.0391 12.5829 12.1737 12.8211 12.1865C12.7952 12.2435 12.7952 12.2514 12.803 12.2952C12.8082 12.3393 12.8158 12.4039 12.8158 12.4039C12.8421 12.3912 12.8658 12.3739 12.8858 12.3527C12.8988 12.4097 12.8728 12.5002 12.8858 12.565C12.8938 12.6045 12.9068 12.6427 12.9246 12.6789C12.9283 12.67 12.9327 12.6614 12.9375 12.6531C12.9426 12.6401 12.9887 12.7929 13.1162 12.9091C13.1161 12.8912 13.1205 12.8736 13.129 12.8579C13.131 12.8904 13.1417 12.9217 13.1601 12.9485C13.1505 12.944 13.1418 12.9379 13.1343 12.9304C13.1343 12.9304 13.1471 13.34 13.2171 13.5518C13.2288 13.5382 13.2392 13.5234 13.2481 13.5078C13.2481 13.495 13.243 13.6218 13.23 13.7126C13.212 13.8032 13.2249 13.93 13.2249 13.93C13.2716 13.8933 13.3229 13.8628 13.3775 13.8394C13.4552 13.8082 13.5823 13.7124 13.6598 13.5001C13.7047 13.3799 13.7394 13.2561 13.7634 13.13C13.7884 13.1781 13.8057 13.23 13.8146 13.2836C13.8199 13.3482 13.9416 13.3146 13.9416 13.3146L13.9675 13.0323L14.1211 12.3928L14.2609 11.9967L14.934 10.9483L16.1502 10.0117L17.2117 10.2551L18.1074 9.03822L16.5644 8.11133L15.1041 8.26407L13.7789 10.0996L12.7175 11.7644L12.5259 12.0389L12.5259 12.0391Z" fill="#D8B65B"/>
<path fill-rule="evenodd" clip-rule="evenodd" d="M20.1737 9.38235C20.1737 9.38235 20.083 9.40044 19.8216 9.53595C19.5601 9.67146 19.3789 9.71447 19.2778 9.91381C19.1768 10.1131 19.1691 10.2712 19.1691 10.2712C19.1691 10.2712 19.3478 10.1935 19.4514 10.1676C19.5601 10.1418 19.6818 10.1495 19.6688 10.1935C19.6564 10.2237 19.6391 10.2517 19.6176 10.2763C19.6176 10.2763 19.8224 10.2712 19.817 10.3722C19.8115 10.4733 19.7782 10.5845 19.7395 10.6337C19.7006 10.6849 19.5401 10.7607 19.5221 10.8202C19.478 10.9419 19.5401 10.947 19.5168 11.0453C19.4987 11.1412 19.4133 11.3276 19.1336 11.6538C18.8462 11.9801 18.724 12.2105 18.724 12.2105C18.724 12.2105 18.5842 11.949 18.5117 11.7237C18.4605 11.7495 18.1856 11.9022 18.1856 11.9022L17.5486 9.68358L17.5614 9.53595C17.5614 9.53595 17.6184 9.46615 17.6314 9.33662C17.5357 9.30555 17.5227 9.27961 17.3957 9.1581C17.2687 9.03658 17.1653 8.88879 16.9532 8.78775C16.9221 8.73075 16.8832 8.65327 16.7279 8.62203C16.5726 8.5908 16.4794 8.5652 16.4794 8.5652C16.4794 8.5652 16.5622 8.53397 16.6011 8.46929C16.5052 8.48226 16.4277 8.51332 16.218 8.5082C16.0056 8.50291 15.9823 8.49523 15.8659 8.51332C15.7495 8.53141 15.6099 8.58329 15.5578 8.4046C15.5008 8.36057 15.3791 8.39948 15.2755 8.55206C15.1719 8.70464 15.1358 8.82649 14.9364 8.88606C14.9224 8.97392 14.8916 9.05828 14.8458 9.13455C14.7888 9.23046 14.6982 9.32621 14.5765 9.46854C14.3848 9.69382 14.4159 10.064 14.1104 10.3463C13.8023 10.6284 14.1616 9.56429 14.1616 9.56429L14.6534 8.38669L16.0541 7.01708L18.2289 6.86963L18.4412 7.99603L19.5028 8.36108L20.1733 9.38372L20.1737 9.38235Z" fill="#D3AE4D"/>
<path fill-rule="evenodd" clip-rule="evenodd" d="M20.5181 9.63114L19.6042 8.31343L18.9647 7.82139C18.9647 7.82139 18.5091 6.98274 18.478 6.9568C18.4521 6.93871 18.0223 6.89211 17.7479 6.87402L17.7991 7.00083C17.859 7.02029 17.9122 7.05618 17.9527 7.10442C18.0744 7.2442 18.152 7.50822 17.875 7.7905C17.9837 7.82924 18.0286 7.8417 18.1235 7.82924C18.0278 7.94325 17.8104 8.18662 17.7974 8.39893C17.7844 8.57233 17.8931 8.62404 17.8931 8.62404C17.8931 8.62404 17.7274 8.8157 17.7197 9.13604C17.798 9.04779 17.8836 8.96637 17.9757 8.89267C18.1674 8.73907 18.4314 8.56635 18.6101 8.45764C18.6077 8.50326 18.6138 8.54893 18.6282 8.5923C18.6282 8.5923 18.962 8.31786 19.2426 8.43955C19.3694 8.49655 19.3124 8.67524 19.3124 8.67524C19.3124 8.67524 19.486 8.61056 19.6076 8.73224C19.7293 8.85393 19.9027 9.1671 19.9908 9.28896C20.0295 9.34596 20.1306 9.45467 20.234 9.62278C20.3753 9.85842 20.4933 10.1073 20.5862 10.3659C20.5914 10.2623 20.6122 10.1174 20.791 10.1174L20.5192 9.63063L20.5181 9.63114Z" fill="#CAA13E"/>
<path fill-rule="evenodd" clip-rule="evenodd" d="M6.81732 13.3747C6.81732 13.3747 6.75264 13.2142 6.81732 12.901C6.882 12.5878 6.98304 12.4402 7.01666 11.9794C7.05028 11.5186 7.35066 10.9438 7.35066 10.9438L8.18163 10.5659L8.76941 10.7263L8.9428 11.5135L8.19972 11.9231C8.19972 11.9231 8.16098 12.0965 7.95123 12.2362C7.74148 12.376 7.45152 12.4847 7.38172 12.6272C7.33999 12.7145 7.30953 12.8067 7.29109 12.9017C7.29109 12.9017 7.07878 12.8576 6.95198 12.9974C6.81732 13.1399 6.82244 13.2667 6.81732 13.3754V13.3747Z" fill="#F4EFC8"/>
<path fill-rule="evenodd" clip-rule="evenodd" d="M8.4949 13.1648C8.4949 13.1648 8.42493 13.2089 8.37322 13.3184C8.32202 13.2357 8.19965 12.7436 8.19453 12.3009C8.18941 11.8582 8.16296 11.7485 8.26536 11.5959C8.36776 11.4433 8.76934 11.2825 8.71233 11.0078C8.65533 10.7463 8.41708 10.6376 8.12456 10.7127C7.91976 10.7639 7.76735 11.1994 7.55504 11.4169C7.39445 11.5826 7.20296 11.5566 7.15125 11.6473C7.08127 11.7689 7.14595 11.8906 7.1253 11.9683C7.12001 11.9942 7.05533 12.134 6.93877 12.3023C6.70325 12.6414 6.30457 13.1205 6.25269 13.5502C6.27078 13.3068 6.25798 13.3017 6.32266 13.0324L6.28375 12.9677L6.53975 12.1289L6.70546 11.4377L7.07581 10.2802L7.7281 9.09716L8.36247 8.3877L9.02261 8.43173L9.10026 9.4233L9.47829 11.2849L10.2731 12.2635L8.99922 13.1208L8.49439 13.1648H8.4949Z" fill="#EBCC73"/>
<path fill-rule="evenodd" clip-rule="evenodd" d="M8.89109 13.5168C8.89109 13.5168 8.78238 13.5427 8.74347 13.522C8.70456 13.5014 8.66598 13.478 8.67878 13.4521C8.69158 13.4261 8.76156 13.3823 8.76156 13.3614C8.76455 13.3223 8.73589 13.2879 8.69688 13.2838C8.63731 13.2761 8.61922 13.3149 8.61922 13.3149C8.61922 13.3149 8.56222 13.271 8.5158 13.2637C8.54326 13.2603 8.5709 13.2585 8.59857 13.2584C8.52703 13.226 8.45113 13.2042 8.37329 13.1937C8.43797 13.1549 8.56495 13.0409 8.64772 13.0409C8.7305 13.0409 8.78238 13.0281 8.76941 12.9841C8.75644 12.9401 8.69176 12.8754 8.62195 12.8494C8.64772 12.8184 8.66598 12.7718 8.60386 12.6446C8.53901 12.5178 8.56495 12.4323 8.58577 12.4014C8.60386 12.3625 8.66854 12.2927 8.69961 12.2487C8.73067 12.2047 8.75661 12.1451 8.80832 12.114C8.83426 12.096 8.91704 12.0628 8.99998 12.0313C9.0906 12.0002 9.1657 11.9613 9.21741 12.0002C9.27441 12.0389 9.24847 12.0908 9.24847 12.0908C9.24847 12.0908 9.42716 12.026 9.58758 12.1089C9.74818 12.1864 10.1392 12.2357 10.1392 12.2357L10.2793 12.518L9.35241 13.3128L8.96926 13.5045L8.89161 13.5173L8.89109 13.5168Z" fill="#E5C66B"/>
<path fill-rule="evenodd" clip-rule="evenodd" d="M10.1777 12.2175C10.1777 12.2175 9.89025 12.4091 9.82557 12.4789C9.86431 12.4842 9.929 12.5102 9.90305 12.5489C9.87199 12.5877 9.68563 12.7223 9.58203 12.8493C9.47332 12.9761 9.36972 13.1367 9.33354 13.2143C9.2948 13.2841 8.99955 13.4888 8.89868 13.5145C9.11099 13.5145 9.53817 13.2531 9.6986 13.2531C9.69348 13.3307 9.74263 13.4188 9.83325 13.4265C9.92388 13.4342 10.1853 13.4835 10.5374 13.2661C10.8895 13.0537 10.7731 12.8957 10.9206 12.7923C11.2029 12.6057 11.3167 12.44 11.472 12.3366C11.6273 12.2332 11.7077 12.2096 11.7077 12.2096C11.7077 12.2096 11.7128 12.132 11.7589 12.1398C11.7846 12.1428 11.8065 12.1597 11.8159 12.1839C11.8159 12.1839 12.0852 11.9922 12.4303 11.9405C12.4222 11.9369 12.4158 11.9304 12.4122 11.9224C12.4122 11.9224 12.438 11.9094 12.4433 11.8965C12.4433 11.8965 12.4613 11.8705 12.4743 11.8835C12.4873 11.8965 12.5054 11.9922 12.5313 12.0311C12.5883 12.0052 12.697 11.7618 12.697 11.7618L12.9587 11.0136V10.3301L12.7539 10.369L11.2179 11.0213L10.2857 11.9871L10.177 12.2175H10.1777Z" fill="#E6BD62"/>
<path fill-rule="evenodd" clip-rule="evenodd" d="M14.5996 8.86482C14.6827 8.84466 14.7624 8.81234 14.836 8.7689C14.8049 8.85184 14.8049 8.94247 14.6703 9.13925C14.5356 9.33603 14.5305 9.36453 14.4218 9.56899C14.3131 9.7813 14.3001 10.0868 14.1965 10.2213C14.2429 10.1987 14.2927 10.1839 14.344 10.1774C14.344 10.1774 14.2405 10.268 14.1965 10.3638C14.1525 10.4595 14.0748 10.6589 13.8833 10.7807C13.6918 10.9026 13.4483 10.9801 13.1868 11.2675C12.9252 11.5496 12.6561 11.9069 12.5212 12.0355C12.5912 11.9138 12.687 11.6704 12.7129 11.51C12.7388 11.3496 12.7076 11.1577 12.7516 10.9456C12.7957 10.7334 12.7957 10.5805 13.0076 10.2102C13.2196 9.83983 13.5824 8.55318 13.5824 8.55318L14.3643 8.30469L14.6 8.86396L14.5996 8.86482Z" fill="#B6933F"/>
<path fill-rule="evenodd" clip-rule="evenodd" d="M14.0352 8.39094C14.0352 8.39094 13.7997 8.73005 13.735 9.03043C13.6703 9.3308 13.7297 9.30486 13.691 9.45249C13.6678 9.5425 13.6678 9.63691 13.691 9.72692C13.7725 9.59551 13.8842 9.48541 14.0168 9.40572C14.2395 9.27124 14.4207 9.17532 14.5288 9.06149C14.6375 8.9398 14.7281 8.74047 14.9636 8.58772C14.8679 8.57475 14.7332 8.53072 14.7076 8.53652C14.8035 8.4278 15.0908 8.26209 15.3807 8.06275C15.6681 7.85795 15.65 7.77535 16.1161 7.57089C15.9634 7.59683 15.8909 7.55792 15.7639 7.57089C15.8151 7.46217 15.9943 7.41029 16.1735 7.23177C16.3527 7.05325 16.0596 6.78906 16.0596 6.78906L14.6943 7.61492L14.0342 8.39162L14.0352 8.39094Z" fill="#C49937"/>
<path fill-rule="evenodd" clip-rule="evenodd" d="M10.3303 7.77467L10.3614 7.52618L10.7524 6.89966L11.1615 5.79937V4.29512L11.1304 3.42523L11.1951 2.85554L11.2442 2.67447L11.2961 2.60449L11.6299 2.77789L12.0909 3.40441L12.135 4.61358L11.687 6.52163L10.408 7.91718L10.3303 7.77467Z" fill="#DFC068"/>
<path fill-rule="evenodd" clip-rule="evenodd" d="M11.348 2.53474C11.348 2.53474 11.1432 2.54003 11.0995 3.39183C11.0558 4.24362 11.0346 4.69145 11.0036 5.11351C10.9725 5.53557 10.9001 5.79174 10.8638 6.0404C10.8274 6.28906 10.8068 6.62801 10.6904 6.8352C10.6392 6.93094 10.5298 7.23131 10.2734 7.45659C9.98604 7.70508 9.55664 7.87865 9.49161 7.89162C9.37761 7.91739 8.80024 7.9744 8.56472 8.10393C8.48195 8.14796 8.33944 8.19968 8.18158 8.3473C7.86823 8.62942 7.45147 9.13425 7.15109 9.74267C6.69029 10.6515 6.22949 13.2171 6.22949 13.2171L6.33309 13.0437C6.33309 13.0437 6.34606 12.8133 6.57646 12.4093C6.80174 12.0055 6.73705 11.5524 7.05023 10.7783C7.17191 10.4832 7.32466 10.1 7.51103 9.77374C7.80628 9.24296 8.16349 8.78728 8.52342 8.53879C9.11103 8.13499 9.75837 8.04693 9.75837 8.04693L10.4549 7.58613C10.4549 7.58613 10.5765 7.35061 10.7371 7.0813C10.9622 6.70344 11.2491 6.28138 11.3118 5.66784C11.4077 4.75904 11.1771 4.16358 11.1901 3.62513C11.2031 3.08667 11.2082 2.69056 11.3171 2.59464C11.426 2.49873 11.3481 2.53508 11.3481 2.53508L11.348 2.53474Z" fill="#A88F33"/>
<path fill-rule="evenodd" clip-rule="evenodd" d="M11.348 6.59911C11.348 6.59911 11.6552 5.84306 11.7958 5.17251C11.8218 5.03785 11.8735 4.90337 11.8864 4.79465C11.9511 4.16028 11.9692 3.89882 11.8864 3.55186C11.8218 3.29586 11.5733 3.06512 11.4437 2.88626C11.3169 2.69972 11.2574 2.63026 11.2833 2.591C11.3093 2.55175 11.4101 2.48758 11.5084 2.49526C11.7196 2.50141 11.919 2.59395 12.06 2.75126C12.2594 2.98166 12.4172 3.76365 12.4172 3.76365L12.5833 4.79551L13.0053 6.09513L11.3483 6.60013L11.348 6.59911Z" fill="#C99E3D"/>
<path fill-rule="evenodd" clip-rule="evenodd" d="M14.2345 5.81248C14.2345 5.81248 14.1775 5.83825 14.0741 5.81248C14.0831 5.89865 14.0431 5.9826 13.9705 6.0299C13.8618 5.98587 12.8441 6.07394 12.8441 6.07394C12.8441 6.07394 12.3703 5.99099 12.2227 5.36448C12.1193 4.94754 12.3004 4.3729 12.2408 3.99488C12.1502 3.43816 12.0234 3.32928 12.0104 3.15605C11.9974 2.98282 11.9845 2.93862 11.9845 2.8299C11.9275 2.81693 11.8938 2.79884 11.837 2.79884C11.824 2.74764 11.8498 2.70293 11.793 2.6123C11.824 2.62528 12.0363 2.65122 12.2848 2.88674C12.4896 3.0784 12.4896 3.1482 12.5205 3.18711C12.5593 3.22585 12.8726 3.49431 13.0073 3.76192C13.1419 4.02952 13.4034 4.88285 13.4629 5.02263C13.481 5.07963 13.5199 5.13664 13.6165 5.266C13.7667 5.45254 13.9867 5.76093 14.2352 5.81213L14.2345 5.81248Z" fill="#B58634"/>
<path fill-rule="evenodd" clip-rule="evenodd" d="M12.5571 3.2002C12.714 3.45355 12.8549 3.71643 12.979 3.98731C13.1318 4.33154 13.2224 4.61383 13.414 4.84423C13.3105 4.54402 13.1266 3.95369 13.0179 3.74394C12.8962 3.52207 12.6478 3.28314 12.5571 3.20037V3.2002Z" fill="#A88F33"/>
<path fill-rule="evenodd" clip-rule="evenodd" d="M10.7964 7.45623C10.7964 7.45623 10.535 7.52091 10.0482 7.77725C9.88762 7.86002 9.73504 7.92983 9.58741 7.99468C9.20393 8.16808 8.79262 8.32833 8.46631 8.41674C8.49225 8.4478 8.50505 8.4606 8.50505 8.4606C8.50505 8.4606 8.50505 8.58757 8.57502 8.65994C8.53628 8.69885 8.01831 9.05093 8.17122 10.2289C8.27465 10.1901 8.39633 10.1383 8.41442 10.1383C8.44565 10.1435 8.45333 10.2289 8.49208 10.2289C8.53082 10.2289 8.65779 10.1777 8.79245 10.0036C8.78733 10.0736 8.70968 10.7777 9.12644 11.2515C9.2041 11.1609 9.40088 10.8605 9.40088 10.8605L9.406 10.7648C9.406 10.7648 9.42409 10.4308 9.53297 10.1253C9.64186 9.81979 9.854 9.59451 9.854 9.59451L10.9618 8.0126L10.7961 7.45605L10.7964 7.45623Z" fill="#E6C367"/>
<path fill-rule="evenodd" clip-rule="evenodd" d="M9.76091 9.77899C9.71019 9.81483 9.65431 9.84274 9.59519 9.86177C9.5771 9.79708 9.55116 9.57436 9.7039 9.35694C9.88259 9.0953 10.2734 8.75619 10.3821 8.48654C10.4521 8.31297 10.421 7.87811 11.0424 7.32139C11.6638 6.76468 11.907 6.57319 11.907 6.57319L12.9116 6.06836L14.1465 6.5551L13.533 8.95979L13.0566 10.0862L11.1622 9.72899L9.76073 9.77899H9.76091Z" fill="#DCBA5A"/>
<path fill-rule="evenodd" clip-rule="evenodd" d="M10.4839 9.1264L10.7196 8.83132V8.62157C10.7196 8.62157 10.981 8.5516 11.2632 8.26419C11.5453 7.97679 11.9363 7.42537 12.2807 7.45899C12.6251 7.4979 12.6587 8.20719 12.6717 8.4067C12.6846 8.60621 12.7287 9.05899 12.7985 9.30253C12.8761 9.5459 11.9596 10.4675 11.9596 10.4675L11.3372 10.9413L10.4839 9.1264Z" fill="#E9CE77"/>
<path fill-rule="evenodd" clip-rule="evenodd" d="M11.2134 11.5832C11.2134 11.5832 11.405 11.2828 11.2646 11.2182C11.3474 11.0318 11.5001 10.835 11.5001 10.835C11.5001 10.835 11.6088 10.5659 11.9609 10.2344C12.313 9.903 12.5306 9.68284 12.5876 9.46029C12.6227 9.31525 12.6418 9.16679 12.6446 9.01758C12.6827 9.04867 12.7234 9.07637 12.7663 9.10035C12.8233 9.12629 13.0924 9.34884 13.0537 9.79684C13.0149 10.2448 12.8489 10.4312 12.8489 10.4312C12.8489 10.4312 12.6885 10.5916 12.5746 10.6746C12.4528 10.7574 12.4089 10.8531 12.2043 10.8609C12.2253 10.8442 12.2489 10.8311 12.2742 10.822C12.2742 10.822 12.0619 10.7963 11.9479 10.8997C11.8339 11.0031 11.5916 11.3217 11.4699 11.4177C11.3482 11.4953 11.2139 11.5834 11.2139 11.5834L11.2134 11.5832Z" fill="#CDAE50"/>
<path fill-rule="evenodd" clip-rule="evenodd" d="M19.8217 6.54752C19.5158 6.43604 19.1944 6.37316 18.8691 6.36115C18.3253 6.34306 17.5305 6.37412 16.7513 6.37924C15.9124 6.38436 15.1513 6.09184 14.095 6.04013C13.9216 5.93653 13.4806 5.48341 12.104 6.44392C12.1868 6.4388 13.1034 6.23161 13.4217 6.63046C13.7427 7.02658 13.6521 7.69969 13.6083 7.86012C13.5253 8.21749 13.256 8.73785 13.1475 9.10291C13.0389 9.46797 13.0645 9.6598 12.9869 9.9158C12.9092 10.1718 12.7384 10.2989 12.8392 10.594C12.9739 10.5113 13.044 10.5113 13.269 10.0064C13.4939 9.50159 13.4477 9.14165 13.8206 8.71447C14.1856 8.28473 14.7934 7.69696 15.0245 7.54933C15.2555 7.40171 17.0904 6.44904 19.0116 7.35784C19.4749 7.30869 19.8219 6.54735 19.8219 6.54735L19.8217 6.54752Z" fill="#D2A83E"/>
<path fill-rule="evenodd" clip-rule="evenodd" d="M12.878 6.19523C12.8761 6.17577 12.8718 6.15663 12.8652 6.13823C12.8472 6.10036 12.8237 6.06544 12.7952 6.03463C12.7952 6.03463 12.3396 5.95186 12.1092 5.97763C11.7052 6.02166 11.3401 6.52137 11.1693 6.77771C10.9985 7.03406 10.7862 7.43 10.5558 7.63463C10.5583 7.6147 10.5537 7.59451 10.5428 7.57763C10.5428 7.57763 10.5558 7.59572 10.53 7.62166C10.5042 7.6476 10.504 7.6604 10.517 7.67286L10.5559 7.7116C10.5687 7.7116 10.9261 7.55101 11.4128 7.0972C11.9306 6.62343 12.3268 6.3804 12.534 6.29712C12.6444 6.25016 12.7599 6.21598 12.8782 6.19523H12.878Z" fill="#C29637"/>
<path fill-rule="evenodd" clip-rule="evenodd" d="M21.717 4.24854C21.717 4.24854 21.634 4.35196 21.5304 4.46596C21.3 4.70934 20.9997 4.9836 20.7433 5.26588C20.5001 5.53519 20.2257 5.74494 19.9175 6.09703C19.6092 6.44911 19.2519 6.83994 19.1614 6.95394C19.0786 7.06795 19.014 7.25432 19.014 7.35006C18.9699 7.319 18.9182 7.28538 18.9182 7.28538C18.94 7.32602 18.966 7.36424 18.9959 7.39938C19.0605 7.49001 19.1614 7.60418 19.2133 7.67382C19.2769 7.76246 19.3226 7.8627 19.3478 7.9689C19.3788 7.97402 19.5782 8.01293 19.8268 7.60384C20.0755 7.19475 20.4015 6.74692 20.4015 6.74692L20.9193 5.9779L21.2456 5.32561L21.6552 4.5955L21.7175 4.24854H21.717Z" fill="#AC8132"/>
<path fill-rule="evenodd" clip-rule="evenodd" d="M22.2477 3.72559C22.2477 3.72559 21.9344 3.98159 21.8127 4.13519C21.691 4.28879 21.4031 4.6919 21.4031 4.6919L21.5067 4.67893L22.0323 4.21301L22.2371 3.84795L22.2475 3.72627L22.2477 3.72559Z" fill="#A88F33"/>
<path fill-rule="evenodd" clip-rule="evenodd" d="M22.1518 24.3002C22.1518 24.3002 22.1466 24.0879 22.2658 23.9611C22.3874 23.8341 22.6955 23.6477 22.9959 22.9487C23.2962 22.2496 23.3297 22.0918 23.3297 22.0918C23.3297 22.0918 22.7912 22.5526 22.4593 22.6613C22.537 22.5007 22.581 22.3868 22.6199 22.3039C22.5759 22.2652 22.3895 22.2211 22.3714 22.2005C22.4748 22.0969 22.5318 21.8431 22.7416 21.6748C23.0109 21.47 23.5028 21.1181 23.885 20.8044C24.2673 20.4907 25.019 19.7611 25.1149 19.5488C25.1719 19.6316 25.1847 19.6833 25.1847 19.6833C25.1847 19.6833 24.8068 20.1753 24.61 20.4885C24.4365 20.7578 24.4494 20.9106 24.4494 20.9106L24.8068 20.757C24.8068 20.757 24.9102 21.1401 24.4418 21.7228C24.6466 21.6451 24.7292 21.6917 24.8456 21.6269C24.6539 21.7487 24.3899 21.9144 24.1414 22.3699C23.898 22.8256 23.5666 23.3564 23.0075 23.6877C22.4637 24.0372 22.1504 24.2987 22.1504 24.2987L22.1518 24.3002Z" fill="#A67A2E"/>
<path fill-rule="evenodd" clip-rule="evenodd" d="M20.7487 6.81688C20.7487 6.81688 20.5363 7.25942 20.5053 7.60382C20.5002 7.68677 20.4793 7.75145 20.4793 7.84719C20.4742 8.15525 20.4974 8.49965 20.4281 8.66008C20.4022 8.5954 20.3892 8.55136 20.3633 8.52559C20.3245 8.63431 20.2546 8.97342 20.1976 9.10023C20.1718 9.01745 20.1148 8.73005 20.1201 8.39094C20.1254 8.05182 20.1329 7.98697 20.1329 7.91717C20.1201 8.02059 20.0501 8.16054 20.0242 8.24331C19.9854 8.17351 19.9414 8.08288 19.8895 8.00779C19.8585 8.05899 19.8197 8.1346 19.7861 8.17351C19.7808 8.14245 19.768 8.0595 19.7602 7.94311C19.755 7.80845 19.7472 7.63505 19.755 7.5987C19.7678 7.5289 19.8767 7.25447 20.1071 7.00325C20.3816 6.70287 20.6638 6.12568 20.7466 5.94699C20.8294 5.7683 21.1815 5.02539 21.1815 5.02539H21.4508L21.0598 5.91593C21.0598 5.91593 20.8243 6.40267 20.7026 6.58153C20.5809 6.76039 20.3245 7.2729 20.2105 7.47224C20.2933 7.36352 20.3633 7.30652 20.4462 7.20293C20.5264 7.13039 20.749 6.81722 20.749 6.81722L20.7487 6.81688Z" fill="#8C6228"/>
<path fill-rule="evenodd" clip-rule="evenodd" d="M22.2529 3.69189C22.2089 3.82729 22.1394 3.953 22.0481 4.06224C21.8875 4.2539 21.5431 4.51007 21.375 4.71453C21.2214 4.91387 20.9142 5.45761 21.0538 6.10222C21.105 5.96244 21.2014 5.68545 21.4577 5.37211C21.7141 5.05876 21.9885 4.699 22.1233 4.41945C22.2578 4.13716 22.2759 3.91461 22.2759 3.91461L22.3271 3.84993L22.2961 3.70231L22.252 3.69189L22.2529 3.69189Z" fill="#CBA94C"/>
<path fill-rule="evenodd" clip-rule="evenodd" d="M27.4955 20.8646C27.4955 20.8646 27.3919 20.5825 27.3608 20.3262C27.3298 20.0698 27.412 20.019 27.3168 19.7256C27.2598 19.5469 27.1564 19.572 27.1304 19.5469C27.1045 19.5218 27.0864 19.2518 27.0915 19.1042C27.0966 18.9566 27.0864 18.7651 27.0605 18.6822C27.0217 18.6511 26.9958 18.6252 26.9388 18.4337C26.8741 18.242 26.843 18.1463 26.812 18.0894C26.7809 18.0326 26.6901 17.9807 26.6901 17.9237C26.6901 17.8097 26.7937 17.7503 26.7937 17.7189C26.7886 17.6542 26.7109 17.7061 26.6901 17.6878C26.6644 17.6568 26.755 17.4704 26.7214 17.4445C26.7084 17.4317 26.6178 17.5404 26.5944 17.5093C26.5684 17.4781 26.5374 17.17 26.4908 16.9656C26.4469 16.7662 26.4002 16.6214 26.395 16.5618C26.3899 16.5048 26.0377 15.5002 25.9523 15.2569C25.8836 15.0512 25.8257 14.8421 25.7789 14.6304C25.753 14.5087 25.7349 14.26 25.7219 14.286C25.709 14.3119 25.7168 14.4387 25.696 14.4336C25.6779 14.4283 25.6132 13.9857 25.5926 13.9158C25.5745 13.8458 25.4656 13.6086 25.439 13.4369C25.413 13.2633 25.3562 12.8102 25.3173 12.5021C25.2784 12.1941 25.2603 12.0673 25.2603 11.9901C25.2666 11.8015 25.2562 11.6126 25.2292 11.4257C25.178 11.0994 25.0756 10.7033 24.9858 10.4731C24.8124 10.0381 24.3515 8.9248 24.269 8.64781C24.269 8.57783 24.3597 8.61675 24.3597 8.61675C24.3597 8.61675 24.5848 9.18114 24.7505 9.616C24.9111 10.051 25.0638 10.4342 25.1027 10.4731C25.1338 10.5118 25.3772 10.939 25.4859 11.6381C25.5946 12.3371 25.6334 12.9817 25.6982 13.4115C25.7293 13.6163 25.7552 13.8335 25.8199 14.0509C25.8897 14.2866 25.9984 14.53 26.1409 14.9027C26.2626 15.2161 26.3532 15.4775 26.4024 15.7028C26.4594 15.9902 26.4594 16.2077 26.493 16.3502C26.5242 16.4718 26.5707 16.715 26.6795 17.067C26.7884 17.4189 26.9487 17.8722 27.0574 18.1543C27.2699 18.7187 27.3646 19.1899 27.3967 19.4411C27.425 19.7 27.5209 20.5958 27.495 20.865L27.4955 20.8646Z" fill="#A88F33"/>
<path fill-rule="evenodd" clip-rule="evenodd" d="M22.2658 3.66085L22.2528 3.69192C22.2528 3.69192 22.2916 3.70489 22.2839 3.75677C22.2844 3.82775 22.2801 3.89869 22.2709 3.96908C22.2581 4.0597 22.2322 4.1295 22.227 4.18651C22.227 4.30819 22.2451 4.44797 22.0734 4.79493C22.0222 4.89068 21.9907 4.97345 21.9647 5.03045C21.9001 5.17023 21.8871 5.19105 21.8301 5.25573C21.9207 5.20453 22.247 4.99973 22.4126 5.03045C22.2987 5.09514 22.1252 5.22211 22.0164 5.38783C22.0424 5.39295 22.1511 5.41377 22.3236 5.38783C22.611 5.3438 22.9321 5.2402 23.2142 5.26085C23.5224 5.27894 23.4007 4.89068 23.4007 4.89068L23.0451 4.10885L22.3719 3.63525L22.2658 3.66102V3.66085Z" fill="#BE9C44"/>
<path fill-rule="evenodd" clip-rule="evenodd" d="M24.0211 9.51699C24.0211 9.51699 23.7207 9.21662 23.599 8.18579C23.4773 7.15018 23.5033 5.62579 23.5033 5.62579L23.2599 5.03033C23.2599 5.03033 23.2087 4.63422 23.0812 4.48676C22.9537 4.33931 22.7033 4.09064 22.5893 3.96896C22.4753 3.84727 22.346 3.68156 22.2683 3.65561C22.3071 3.59093 22.4806 3.22588 23.1459 3.22076C23.8111 3.21564 24.0163 3.58581 24.0857 3.72047C24.1552 3.85512 24.4689 4.43727 24.5853 5.5466C24.694 6.65457 24.6993 6.73751 24.6812 7.12066C24.6682 7.33297 24.5983 7.82483 24.4764 8.35031C24.3651 8.79575 24.2434 9.2929 24.0207 9.51801L24.0211 9.51699Z" fill="#A17C34"/>
<path fill-rule="evenodd" clip-rule="evenodd" d="M23.0792 10.4002C23.1793 10.4074 23.2793 10.3849 23.3666 10.3354C23.4624 10.3302 23.8093 10.3743 24.0759 10.0352C24.094 10.1126 24.1408 10.3226 24.0189 10.5089C24.0838 10.4441 24.1795 10.4183 24.1925 10.4002C24.1976 10.496 24.2882 10.791 23.9051 11.5082C24.0085 11.3943 24.1302 11.3995 24.2389 11.3865C24.2442 11.5212 24.3166 11.9741 24.1251 12.2176C23.9983 12.3834 23.7911 12.3315 23.7911 12.3315C23.7941 12.2953 23.7941 12.2589 23.7911 12.2228C23.786 12.1528 23.76 12.083 23.7783 12.0364C23.6782 11.9907 23.587 11.9275 23.509 11.8499C23.2837 11.6375 22.9912 11.2752 22.9705 11.0059C22.9446 10.7055 23.2139 10.6409 23.2139 10.6409C23.1913 10.6207 23.1721 10.5971 23.1569 10.5709C23.1439 10.527 23.1309 10.457 23.0792 10.4002Z" fill="#8C6228"/>
<path fill-rule="evenodd" clip-rule="evenodd" d="M21.0823 7.1431C21.0823 7.1431 21.0693 7.12501 20.9995 7.20778C21.0125 7.12501 21.0255 7.04718 21.0306 6.97209C21.0636 6.90257 21.1064 6.83809 21.1575 6.7806C21.1186 6.85809 21.0927 6.92806 21.0927 6.92806C21.0927 6.92806 21.1886 6.74937 21.3284 6.64066C21.4241 6.563 21.5458 6.52682 21.5975 6.45429C21.6545 6.37663 21.6416 6.36366 21.6545 6.35069C21.6545 6.35069 21.7815 6.26792 21.9757 6.02438C22.0015 5.99332 22.0404 5.9597 22.0663 5.92863C22.1102 5.91054 22.2138 5.86395 22.3355 5.80166C22.4625 5.73186 22.6048 5.63611 22.6929 5.59686C22.8663 5.51921 23.0502 5.52706 23.1356 5.4052C23.2003 5.38711 23.2701 5.19289 23.2573 5.02734C23.353 5.06609 23.8449 5.37158 24.0133 6.03957C24.135 6.51334 23.9174 7.24345 23.8268 7.59571C23.7362 7.94796 23.7234 8.20925 23.5964 8.36968C23.4358 8.58216 22.9181 8.88168 22.7912 9.02999C22.6825 9.15167 22.3563 9.45973 22.3691 9.68228C22.3821 9.84799 22.5865 9.93828 22.6307 9.96968C22.6749 10.0011 22.6746 10.0397 22.7575 10.0209C22.8405 10.0021 22.8714 9.96388 22.9052 9.96388C22.9439 9.969 22.9439 9.97685 22.962 9.97685C22.9751 9.97646 22.9882 9.97468 23.0009 9.97156C23.0009 9.97156 22.9879 10.2072 22.4365 10.2788C22.3976 10.284 22.3589 10.2968 22.3095 10.3047C22.3744 10.2736 22.4131 10.2736 22.4831 10.1779C22.4055 10.1649 22.1827 10.152 22.1257 10.1339C22.1438 10.1028 22.2034 10.0199 22.2525 9.98111C22.2966 9.94237 22.2474 9.92991 22.2087 9.95005C22.142 9.99543 22.078 10.0447 22.017 10.0975C21.9523 10.1545 21.8953 10.2322 21.7917 10.3023C21.7607 10.1987 21.7658 10.0019 21.8877 9.8596C21.8564 9.86472 21.7969 9.95534 21.74 9.93725C21.7298 9.84282 21.7359 9.74732 21.7581 9.65497C21.7892 9.53841 21.9575 9.33395 21.9575 9.33395L22.7703 7.8814L22.9437 6.78111L21.0823 7.14276V7.1431Z" fill="#92723A"/>
<path fill-rule="evenodd" clip-rule="evenodd" d="M21.0386 7.20513C21.0386 7.20513 20.9946 7.23619 21.0826 7.29575C21.0697 7.31384 21.0386 7.37852 20.9997 7.42256C20.9558 7.47376 20.9091 7.5055 20.891 7.54953C20.8522 7.64016 20.8212 7.70228 20.8212 7.74119C20.8212 7.7801 20.8082 8.02859 20.6995 8.18902C20.6606 8.24602 20.6165 8.34177 20.5855 8.40645C20.5208 8.52029 20.4638 8.61125 20.4508 8.66245C20.425 8.75307 20.407 9.00157 20.407 9.00157C20.407 9.00157 20.464 8.93159 20.4846 8.90582C20.4534 8.9705 20.4198 9.04031 20.3706 9.09219C20.4017 9.06625 20.4923 9.00157 20.645 8.86691C20.8573 8.68839 21.1888 8.38802 21.5927 8.15011C21.4709 8.19414 21.3675 8.19414 21.2847 8.20711C21.3494 8.14243 21.9319 7.45891 22.2374 7.39423C22.2559 7.37071 22.2651 7.34118 22.2633 7.31128L22.0017 7.28551L21.4709 7.39935L21.3934 6.98975L21.0386 7.20462V7.20513Z" fill="#B18E3E"/>
<path fill-rule="evenodd" clip-rule="evenodd" d="M21.8828 9.53556C21.8828 9.53556 21.8128 9.60536 21.7481 9.77893C21.6983 9.72693 21.6556 9.66856 21.6211 9.60536C21.5254 9.44493 21.3779 9.2403 21.0335 9.35687C21.0284 9.24815 21.0205 9.19115 21.0335 9.1135C21.0905 9.1007 21.2639 8.96092 21.4373 8.75629C21.5592 8.61652 21.673 8.45592 21.7507 8.25146C21.8019 8.21255 21.8904 8.14787 22.0067 8.07277C22.1724 7.95894 22.3717 7.80346 22.4028 7.63006C22.3251 7.66112 22.1594 7.73878 21.9107 7.72598C22.0067 7.68195 22.1541 7.63535 22.136 7.44369C22.1749 7.41775 22.206 7.39966 22.206 7.39966C22.1768 7.38993 22.1461 7.38554 22.1154 7.38669C22.1101 7.3686 22.1024 7.34283 22.0584 7.35563C22.0143 7.36843 22.0072 7.3686 22.0014 7.38669C21.9833 7.39198 21.9237 7.38669 21.8797 7.41792C21.8357 7.44916 21.714 7.55241 21.6674 7.5705C21.6855 7.53944 21.7112 7.49302 21.7112 7.49302C21.7112 7.49302 21.5844 7.50582 21.4938 7.54422C21.3281 7.60122 21.1366 7.70481 20.9424 7.80568C20.9605 7.77462 20.9683 7.75448 20.9811 7.74868C20.9939 7.74287 21.0252 7.73588 21.0252 7.73059C21.0252 7.72529 21.0124 7.67939 21.02 7.66078C21.0781 7.53777 21.1466 7.41998 21.2248 7.3087C21.3155 7.18684 21.3336 7.01344 21.3336 7.01344L21.7297 6.81411L22.8429 6.55811L23.5654 6.60214L23.4747 7.10185L23.0481 7.9743L22.683 8.76909L22.2661 9.256L21.8829 9.53556H21.8828Z" fill="#543E26"/>
<path fill-rule="evenodd" clip-rule="evenodd" d="M23.6872 7.37287C23.6872 7.37287 23.2521 7.91132 23.1305 7.99427C23.2081 7.82855 23.6872 6.8421 23.8606 6.56766C23.8218 6.5366 23.7699 6.5366 23.8916 6.05566C23.7882 6.29886 23.7519 6.42584 23.6665 6.49052C23.5812 6.55521 23.5706 6.53455 23.5129 6.53455C23.5238 6.51485 23.5283 6.49224 23.5257 6.46987C23.5257 6.46987 23.1607 6.42584 22.9113 6.42584C22.662 6.42584 22.1684 6.5605 21.8938 6.66921C21.6764 6.75983 21.5547 6.75983 21.477 6.81667C21.3994 6.88135 21.3554 6.95132 21.3164 6.96941C21.2854 6.9875 21.1379 7.0341 21.1041 7.08325C21.0731 7.13445 21.0214 7.19196 21.0214 7.20493C21.0214 7.2179 21.0084 7.23617 21.0473 7.22302C21.0601 7.2179 21.156 7.16602 21.2647 7.10134C21.4122 7.01857 21.5909 6.92282 21.7204 6.86582C22.0906 6.71819 22.2072 6.74413 22.3727 6.71307C22.5461 6.68201 22.7948 6.60948 22.9603 6.60948C23.126 6.60436 23.4394 6.60948 23.5119 6.62245C23.4808 6.64839 23.4549 6.67945 23.4679 6.78817C23.4679 6.81923 23.4419 6.85285 23.4167 6.92794C23.3392 7.14025 23.1916 7.49234 23.1095 7.67102C22.9956 7.91422 22.8663 8.11885 22.8023 8.24566C22.7383 8.37246 22.5975 8.70646 22.458 8.88515C22.3186 9.06383 22.2457 9.17255 22.202 9.21146C22.1583 9.25037 21.8447 9.4806 21.868 9.56355C21.925 9.54546 22.285 9.40995 22.5463 9.11572C22.8076 8.82149 22.8596 8.64195 23.0641 8.48135C23.2685 8.32075 23.4291 8.05161 23.5249 7.82906C23.6051 7.62187 23.587 7.55719 23.6879 7.37338L23.6872 7.37287Z" fill="#806031"/>
<path fill-rule="evenodd" clip-rule="evenodd" d="M14.3124 11.3915C14.3124 11.3915 14.2554 11.627 14.1258 11.7436C13.999 11.8576 13.7737 11.9559 13.748 12.1475C13.7169 12.339 13.9733 12.4349 13.9733 12.4349C13.9733 12.4349 13.8333 12.6653 13.8333 12.8387C13.8333 13.0174 13.8282 13.0511 13.8463 13.2219C13.8257 13.2351 13.8083 13.2526 13.7951 13.2731C13.7951 13.2731 13.8079 13.4388 13.9349 13.5422C14.0618 13.6457 14.1704 13.7079 14.2351 13.682C14.2449 13.7031 14.2536 13.7248 14.261 13.7469C14.261 13.7469 14.3569 13.5035 14.4216 13.2912C14.4863 13.0738 14.5433 13.1046 14.569 12.8121C14.5948 12.5196 14.8762 12.0173 14.8762 12.0173L15.0682 11.5881L14.7551 11.3447L14.3124 11.3913V11.3915Z" fill="#B6903C"/>
<path fill-rule="evenodd" clip-rule="evenodd" d="M14.8948 11.8135C14.8302 11.8798 14.7706 11.9507 14.7164 12.0258C14.6337 12.1398 14.569 12.2432 14.4473 12.2874C14.3256 12.3316 14.248 12.3313 14.2556 12.4531C14.2633 12.575 14.3773 12.6265 14.442 12.6887C14.512 12.7533 14.569 12.8621 14.5379 12.9839C14.5767 12.9658 14.6466 12.945 14.7113 12.8052C14.776 12.6654 15.2284 11.8136 15.2284 11.8136H14.8948V11.8135Z" fill="#685026"/>
<path fill-rule="evenodd" clip-rule="evenodd" d="M16.6792 9.84852C16.6792 9.84852 16.7179 9.74509 16.6792 9.67C16.6403 9.59234 16.4047 9.5664 16.2882 9.47834C16.1665 9.38772 16.0189 9.32474 15.8972 9.3645C15.9153 9.32047 15.9878 9.22456 15.9282 9.20391C15.8712 9.18582 15.6591 9.28156 15.6021 9.32559C15.5451 9.36962 15.4156 9.42134 15.3898 9.45257C15.364 9.4838 15.3198 9.54319 15.2939 9.51725C15.2679 9.49916 15.2551 9.45257 15.2111 9.47834C15.1671 9.50411 14.9551 9.67768 14.916 9.77871C14.8769 9.87975 14.789 10.105 14.525 10.3612C14.261 10.6174 14.147 10.7833 14.2246 10.879C14.3023 10.9747 14.3386 10.9049 14.3516 10.9877C14.3616 11.069 14.3572 11.1514 14.3386 11.2311C14.3076 11.3657 14.2559 11.4925 14.3257 11.5185C14.5044 11.5755 14.6779 11.4673 14.7167 11.5004C14.7943 11.5702 14.6726 11.8214 14.8564 11.8706C15.043 11.9218 15.2268 11.8265 15.2268 11.8265L15.905 11.4615L16.5575 11.1173L16.8913 10.4569L16.7123 9.90552L16.6781 9.84852H16.6792Z" fill="#D4B968"/>
<path fill-rule="evenodd" clip-rule="evenodd" d="M16.0391 11.425C16.0391 11.425 15.9251 11.2516 16.0651 11.0987C16.205 10.9458 16.4042 10.8813 16.4818 10.7856C16.4671 10.7673 16.4472 10.7539 16.4248 10.7468C16.4764 10.6546 16.555 10.5804 16.6501 10.5343C16.6114 10.4956 16.5595 10.4645 16.5027 10.4645C16.3757 10.4645 16.2979 10.5422 16.1815 10.5422C16.0676 10.5422 16.0547 10.4852 16.0547 10.4852C16.0547 10.4852 16.2463 10.4671 16.2281 10.3816C16.21 10.291 16.1769 10.291 16.1769 10.291C16.1769 10.291 16.547 10.1374 16.6117 10.0554C16.6764 9.97353 16.6687 9.87676 16.6817 9.83802C16.7256 9.83802 16.9819 9.70336 17.0855 9.76036C17.1891 9.81737 17.1166 9.97267 17.1166 9.97267C17.1166 9.97267 17.4301 9.73698 17.5898 9.5059C17.7296 9.51887 17.7946 9.41016 17.897 9.41016C18.024 9.41016 18.2233 9.58355 18.2621 9.95373C18.288 10.166 18.3268 10.2877 18.288 10.6632C18.2699 10.8755 18.275 11.3288 18.3392 11.5537C18.3831 11.7324 18.4867 11.7143 18.4867 11.7143C18.4708 11.7688 18.4393 11.8174 18.396 11.8541C18.3261 11.9188 18.3184 12.0898 18.3261 12.1545C18.3364 12.2018 18.3494 12.2484 18.365 12.2943C18.365 12.2943 18.2822 12.39 18.2614 12.4548C18.2433 12.5195 18.158 12.5636 18.0957 12.5636C18.0334 12.5636 18.0646 12.5583 17.9818 12.5636C17.8991 12.5689 17.8731 12.5817 17.8212 12.5636C17.7694 12.5455 17.7306 12.5247 17.7514 12.3588C17.7695 12.193 17.1119 11.8073 17.1119 11.8073L16.0367 11.4242L16.0391 11.425Z" fill="#CCA849"/>
<path fill-rule="evenodd" clip-rule="evenodd" d="M14.8043 13.0617C14.8043 13.0617 15.0398 13.375 16.0082 13.375C16.469 13.375 16.6296 13.331 16.725 13.305C16.8286 13.2791 17.2169 13.1265 17.6079 12.6655C17.9599 12.2488 17.8823 12.0779 17.8823 12.0779L17.6775 12.0469L17.0119 12.1375L15.0424 12.9763L14.8035 13.0617H14.8043Z" fill="#585136"/>
<path fill-rule="evenodd" clip-rule="evenodd" d="M15.5266 13.1389C15.5266 13.1389 14.6877 13.3255 14.6877 12.7947C14.6877 12.2769 15.2055 11.7332 15.3351 11.6374C15.4697 11.5415 15.7908 11.4326 15.7908 11.4326H16.5649L16.7124 11.8236L16.6477 12.6676L15.5266 13.1388V13.1389Z" fill="#252211"/>
<path fill-rule="evenodd" clip-rule="evenodd" d="M16.3006 11.5908C16.3006 11.5908 16.1402 11.4432 15.7751 11.642C15.4101 11.8408 15.1148 12.2564 15.0967 12.6337C15.0787 12.9676 15.3712 13.2162 15.8269 13.2292C16.166 13.242 16.3706 13.2033 16.4742 13.178C16.4483 13.1469 16.3136 12.9787 16.3136 12.9787L16.3008 11.591L16.3006 11.5908Z" fill="#C3B378"/>
<path fill-rule="evenodd" clip-rule="evenodd" d="M16.1428 11.6738C16.1428 11.6738 16.104 11.6427 15.9892 11.7048C15.8934 11.756 15.7537 11.8914 15.6449 11.9871C15.575 12.0441 15.5309 12.0699 15.4913 12.1139C15.3307 12.3056 15.1961 12.6189 15.2739 12.7742C15.3517 12.9295 15.6079 13.1082 16.2604 12.9865L16.1409 11.674L16.1428 11.6738Z" fill="#E6D89C"/>
<path fill-rule="evenodd" clip-rule="evenodd" d="M15.9305 11.9947C15.9305 11.9947 15.8269 12.1553 15.8269 12.4116C15.8269 12.6731 15.9745 13.0898 16.5182 13.1209C16.935 13.1468 17.2146 12.5203 17.5175 12.2769C17.7479 12.0906 17.8877 12.0853 17.8877 12.0853C17.8877 12.0853 17.6521 11.8293 17.0231 11.4977C16.4017 11.1637 15.7052 11.1196 15.3271 11.6323C15.5058 11.6194 16.0832 11.4717 16.0832 11.4717L16.3655 11.5624L15.9305 11.9948V11.9947Z" fill="#252211"/>
<path fill-rule="evenodd" clip-rule="evenodd" d="M16.7433 12.334C16.7252 12.2953 16.7122 12.2434 16.7873 12.2306C16.8624 12.2178 16.896 12.2253 16.922 12.2818C16.9479 12.3383 16.9732 12.3854 16.9348 12.4088C16.896 12.4294 16.795 12.4088 16.7431 12.3337L16.7433 12.334ZM16.6216 11.969C16.6216 11.969 16.5956 11.9871 16.6086 11.9509C16.6137 11.907 16.6475 11.8292 16.7303 11.8475C16.8131 11.8657 16.7952 11.9562 16.7815 11.9821C16.7678 12.0081 16.6987 12.0519 16.6468 12.0333C16.6335 12.0299 16.6226 12.0203 16.6175 12.0075C16.6123 11.9948 16.6136 11.9803 16.6209 11.9686L16.6216 11.969Z" fill="#6F674D"/>
<path fill-rule="evenodd" clip-rule="evenodd" d="M9.61353 12.1346C9.61353 12.1346 9.81833 12.2882 10.0562 12.2822C10.2918 12.2769 10.5947 12.0337 10.7345 11.8783C10.8172 11.7876 10.8881 11.6919 10.9649 11.6168C11.0297 11.5521 11.0736 11.5211 11.1046 11.477C11.1487 11.4258 11.1953 11.3296 11.2186 11.2983C11.1616 11.3424 11.0789 11.4202 10.9934 11.4719C10.9106 11.5231 10.7319 11.6194 10.6594 11.6453C10.5896 11.6712 9.86458 12.0549 9.86458 12.0549L9.61353 12.1346Z" fill="#AC924C"/>
<path fill-rule="evenodd" clip-rule="evenodd" d="M9.92651 10.2215C9.92651 10.2215 10.0403 10.1439 10.2605 10.0945C10.4728 10.0433 10.9 10.0039 10.9 10.0039L11.2521 10.1575L11.3919 10.6883L11.1359 11.2399L10.8097 11.4447L10.4394 10.8492L9.92737 10.2225L9.92651 10.2215Z" fill="#9F8E57"/>
<path fill-rule="evenodd" clip-rule="evenodd" d="M9.46585 10.695L9.34399 10.786C9.34399 10.786 9.37523 10.729 9.401 10.5556C9.42677 10.3822 9.56159 9.96012 9.75837 9.71675C9.95515 9.47338 9.95003 9.48635 9.95003 9.48635C9.9134 9.47965 9.87566 9.48904 9.84644 9.51212C9.87238 9.45478 10.0381 9.24998 10.2038 9.14758C10.3695 9.04518 10.4342 9.01292 10.6076 9.09638C10.781 9.17983 10.825 9.22318 10.952 9.21806C11.079 9.21294 11.1875 9.07828 11.1875 9.07828C11.1875 9.07828 11.2135 9.16106 11.1177 9.35272C11.022 9.54438 10.644 9.9352 10.644 9.9352L9.85685 10.4737L9.46585 10.6955V10.695Z" fill="#EAC970"/>
<path fill-rule="evenodd" clip-rule="evenodd" d="M10.048 10.1565C10.048 10.1565 10.6177 10.2341 10.7911 10.0737C10.7962 10.0918 10.8171 10.0918 10.8171 10.1048C10.8157 10.1146 10.8111 10.1236 10.8041 10.1305C10.823 10.1275 10.842 10.1258 10.8611 10.1254C10.8839 10.1322 10.9074 10.1366 10.9311 10.1384C10.9502 10.138 10.9692 10.1362 10.9881 10.1331C10.9844 10.1591 10.9704 10.1825 10.9492 10.198C10.9751 10.198 11.0004 10.2031 11.0004 10.2237C11.0004 10.2444 11.0055 10.3067 10.9744 10.3196C10.9487 10.3268 10.9213 10.3249 10.8968 10.3144C10.8988 10.3634 10.9121 10.4113 10.9357 10.4543C10.9869 10.55 11.0961 10.6591 11.2429 10.6277C11.2429 10.6277 11.3204 10.8141 10.9942 11.2283C10.9504 11.2853 10.9036 11.3629 10.8468 11.4276C10.8243 11.4766 10.8071 11.5278 10.7956 11.5804C10.7956 11.5804 11.3472 11.368 11.505 10.8839C11.6656 10.3971 11.6967 9.91824 11.6656 9.47041C11.6603 9.34343 11.6397 9.25298 11.6086 9.18812C11.531 9.02753 11.3134 9.05347 11.2255 9.14409C11.0985 9.27107 10.8862 9.5868 10.5911 9.80423C10.2907 10.0217 10.2779 10.0602 10.0474 10.1565H10.048Z" fill="#D7BC6B"/>
<path fill-rule="evenodd" clip-rule="evenodd" d="M9.36489 10.8556C9.36489 10.8556 9.25617 10.9203 9.19917 11.1628C9.14217 11.4113 9.25037 11.7142 9.31301 11.8099C9.37564 11.9057 9.51781 12.1673 9.81272 12.1803C9.88571 12.1799 9.9579 12.1649 10.025 12.1363C10.128 12.089 10.2245 12.029 10.3124 11.9576C10.4394 11.8618 10.5428 11.779 10.5299 11.7712C10.4988 11.7582 9.74804 11.1368 9.74804 11.1368L9.46575 10.8218L9.36472 10.8559L9.36489 10.8556Z" fill="#585136"/>
<path fill-rule="evenodd" clip-rule="evenodd" d="M10.0745 11.886C10.0745 11.886 10.2273 11.8732 10.3179 11.8162C10.4085 11.7592 9.78711 11.1431 9.78711 11.1431L9.83114 11.8087L10.0745 11.886Z" fill="#453A25"/>
<path fill-rule="evenodd" clip-rule="evenodd" d="M9.41396 10.809C9.41396 10.809 9.3363 10.9567 9.3363 10.9956C9.32333 11.1224 9.36224 11.5211 9.39331 11.6479C9.42437 11.7825 9.59264 11.987 9.81024 11.987C9.94473 11.987 10.1313 11.9042 10.1313 11.8836C10.1313 11.8576 9.93961 11.8324 9.8879 11.7359C9.85684 11.6847 9.84387 11.5574 9.8367 11.4287C9.83158 11.346 9.83158 11.2553 9.86264 11.2239C9.93261 11.1463 9.94541 10.9236 9.94541 10.9236L10.1939 10.4619H9.86708L9.47608 10.7053L9.41396 10.809Z" fill="#84754B"/>
<path fill-rule="evenodd" clip-rule="evenodd" d="M9.31812 10.9517C9.31812 10.9517 9.57412 10.6125 9.80486 10.5347C10.0356 10.4569 10.1389 10.5037 10.1389 10.5037L10.0042 10.8481L9.81254 11.0604L9.82551 11.1691C9.82551 11.1691 9.79428 11.4565 9.98593 11.6558C10.1776 11.8552 10.3199 11.8475 10.4029 11.8475C10.4858 11.8475 10.7239 11.7775 10.8456 11.4901C10.9543 11.221 11.0449 10.8757 10.8275 10.5296C10.615 10.1852 10.2397 10.1719 10.1672 10.1719C10.0946 10.1719 9.52513 10.2004 9.31812 10.9511V10.9517Z" fill="#252211"/>
<path fill-rule="evenodd" clip-rule="evenodd" d="M15.8916 12.1033C15.7958 12.0592 15.8865 11.7901 15.9822 11.7072C16.0779 11.6242 16.1996 11.5286 16.4121 11.5155C16.4896 11.5104 16.5647 11.5595 16.5519 11.6114C16.5338 11.7072 16.3991 11.8418 16.2775 11.9376C16.1092 12.0697 16.0003 12.1524 15.8916 12.1033Z" fill="#F7F7E7"/>
<path fill-rule="evenodd" clip-rule="evenodd" d="M10.7136 10.6356C10.7835 10.6305 10.8742 10.6868 10.8923 10.7626C10.9103 10.8453 10.8482 11.011 10.7136 11.011C10.6049 11.011 10.5479 10.8764 10.5479 10.8376C10.5491 10.8058 10.558 10.7747 10.5738 10.747C10.5789 10.7392 10.5919 10.6485 10.7136 10.6356Z" fill="#F8F6DE"/>
<path fill-rule="evenodd" clip-rule="evenodd" d="M9.70381 10.6953C9.70381 10.6953 9.52513 10.7781 9.44235 10.9513C9.38321 11.0792 9.36532 11.2224 9.39115 11.3609C9.40412 11.4256 9.46881 11.586 9.51284 11.643C9.55687 11.7 9.61643 11.7389 9.66046 11.7336C9.7045 11.7284 9.79495 11.612 9.79495 11.5422C9.79495 11.4724 9.80024 11.1771 9.88557 11.0165C9.96067 10.8561 9.70433 10.6955 9.70433 10.6955L9.70381 10.6953Z" fill="#D4C38B"/>
<path fill-rule="evenodd" clip-rule="evenodd" d="M9.72993 10.6821C9.69887 10.7002 9.64716 10.7261 9.65996 10.7597C9.67293 10.7908 9.78164 10.8109 9.82055 10.8867C9.86459 10.9644 9.86459 11.0471 9.85161 11.0861C9.88543 11.07 9.91612 11.048 9.94224 11.0212C9.99924 10.9565 10.069 10.8686 10.1286 10.8686C10.1675 10.8686 10.2063 10.8867 10.2426 10.8867C10.2996 10.8867 10.3564 10.8686 10.3643 10.8091C10.3771 10.7314 10.2556 10.6614 10.1856 10.6744C10.1986 10.6232 10.2167 10.5476 10.1597 10.4957C10.1027 10.4438 9.92415 10.5346 9.88524 10.5606C9.84632 10.5865 9.72993 10.6823 9.72993 10.6823V10.6821Z" fill="#E2D59D"/>
<path fill-rule="evenodd" clip-rule="evenodd" d="M13.8438 16.1215L14.227 16.0083L14.3357 16.086C14.3357 16.086 14.4132 16.2517 14.535 16.2723C14.4961 16.3551 14.3951 16.4259 14.4004 16.4846C14.4057 16.5433 14.4574 16.5882 14.4574 16.5882C14.4574 16.5882 14.113 17.1577 14.7914 17.7317C14.6308 17.7964 14.4263 17.8853 14.3176 17.9365C14.3951 17.9546 14.5608 17.9877 14.6308 18.0505C14.7007 18.1133 14.7007 18.1333 14.7654 18.1722C14.8301 18.2111 14.8688 18.2628 14.856 18.286C14.812 18.2601 14.6644 18.1826 14.6386 18.255C14.6128 18.3273 13.9991 18.299 13.9991 18.299L12.9635 18.4983C12.9635 18.4983 13.0023 18.3947 12.8935 18.299C12.7667 18.1852 12.6114 18.3041 12.4457 18.1773C12.2283 18.0116 12.2204 17.8199 12.1506 17.7476C12.2204 17.7035 12.3629 17.6388 12.7021 17.594C12.6891 17.568 12.6451 17.4904 12.671 17.4206C12.7021 17.3299 12.8314 17.2729 12.7927 17.1646C12.8497 17.1516 12.8755 17.1516 13.018 16.9729C13.1526 16.7942 13.2354 16.7555 13.339 16.7425C13.4426 16.7295 13.5047 16.7425 13.6964 16.5638C13.8308 16.437 13.787 16.3283 13.787 16.3283C13.787 16.3283 13.8749 16.2998 13.844 16.1211L13.8438 16.1215Z" fill="#CBAC5A"/>
<path fill-rule="evenodd" clip-rule="evenodd" d="M12.7125 16.1791C12.7176 16.1531 12.7385 16.1401 12.8782 16.1531C13.018 16.1661 13.9034 16.0703 14.1442 16.0574C14.3876 16.0393 15.2445 16.0521 15.6615 16.1401C16.0784 16.2282 16.5003 16.3318 16.7047 16.3835C16.9095 16.4405 16.9741 16.461 16.9662 16.4869C16.9611 16.5129 16.915 16.5381 16.8886 16.531C16.8628 16.5259 16.1844 16.3187 15.9748 16.275C15.7652 16.2313 15.0401 16.1144 14.6436 16.1214C14.2734 16.1267 14.1258 16.1163 13.8126 16.1524C13.4993 16.1913 12.9815 16.2431 12.8262 16.2224C12.6726 16.2043 12.7043 16.2043 12.7122 16.1784L12.7125 16.1791Z" fill="#D6BC6F"/>
<path fill-rule="evenodd" clip-rule="evenodd" d="M14.7965 18.2084C14.7965 18.2084 15.3273 18.4958 15.5189 18.8479C15.6587 19.1094 15.4362 19.2389 15.4362 19.2389C15.4362 19.2389 15.7365 19.2389 15.6976 19.4046C15.6795 19.508 15.1798 19.7876 14.8458 19.9352C14.5067 20.0828 14.5197 20.0752 14.354 20.1009C14.1934 20.1269 13.7532 20.0497 13.6626 20.1786C13.572 20.3074 13.6114 20.4402 13.6367 20.4609C13.6626 20.479 13.8724 20.5049 13.8724 20.5049C13.8724 20.5049 13.8283 20.6266 13.3935 20.6396C12.9586 20.6525 12.8497 20.6834 12.8238 20.7302C12.7978 20.774 12.9065 20.7483 13.1061 20.7814C13.3054 20.8124 13.585 20.8326 13.585 20.8326C13.585 20.8326 13.4943 20.9102 13.2588 20.9724C12.9895 21.0422 12.5674 21.107 12.4406 21.1847C12.5053 21.2287 12.6012 21.2934 12.6454 21.2985C12.5367 21.3244 12.3838 21.3814 12.358 21.4021C12.3968 21.428 12.4487 21.4591 12.4487 21.4591C12.4487 21.4591 12.2311 21.7206 12.1042 21.7854C11.9774 21.8503 11.2473 22.1892 10.9961 22.1245C10.3696 21.9588 10.2919 21.2727 10.1392 21.221C9.90879 21.1434 9.80008 21.2985 9.59545 21.1898C9.68607 21.1251 9.73539 21.0864 9.83114 21.0423C9.72754 20.9911 9.19165 20.6513 9.19165 20.6513C9.13561 20.5292 9.07341 20.41 9.00528 20.2941C8.90169 20.1154 8.74928 19.8772 8.63493 19.6674C8.38644 19.2066 8.37347 18.9943 8.14819 18.7329C8.18711 18.6817 8.32159 18.6888 8.32159 18.6888L10.2092 19.3102L13.5561 19.4072L14.4265 18.1646L14.7967 18.2086L14.7965 18.2084Z" fill="#DFC677"/>
<path fill-rule="evenodd" clip-rule="evenodd" d="M9.83862 20.1035C9.85882 20.1259 9.88236 20.1452 9.90843 20.1605C9.97328 20.2045 10.069 20.2564 10.1337 20.3339C10.1596 20.2951 10.2243 20.2252 10.3385 20.3339C10.4527 20.4426 10.5945 20.3651 10.6827 20.3909C10.7734 20.4221 10.7785 20.4349 10.7785 20.4349C10.7785 20.4349 10.8297 20.3909 10.9442 20.3443C11.0142 20.3183 11.0969 20.3002 11.1876 20.2745C11.2703 20.2564 11.361 20.2304 11.4233 20.2304C11.4803 20.2692 11.6847 20.4864 12.5055 20.1658C13.2796 19.8654 13.4581 19.8318 13.5877 19.8782C13.6006 19.8471 13.6136 19.7876 13.8129 19.7954C13.8129 19.7126 13.6472 19.4304 13.6472 19.4304L12.7333 19.1172H12.2334L10.7345 19.3916L9.90382 19.8656L9.83914 20.1045L9.83862 20.1035Z" fill="#C4A859"/>
<path fill-rule="evenodd" clip-rule="evenodd" d="M9.33887 19.5781C9.33887 19.5781 9.35696 19.7179 9.56415 19.8655C9.76895 20.0129 9.83329 20.101 9.83329 20.101C9.83329 20.101 9.8722 20.0498 9.90326 19.9976C9.93432 19.9406 9.96026 19.8759 10.012 19.8578C10.1156 19.8138 10.3511 19.8966 10.403 19.8836C10.447 19.8708 10.434 19.7802 10.4806 19.7802C10.5893 19.7749 10.6591 19.85 10.6981 19.85C10.737 19.85 10.8325 19.8448 10.8455 19.8242C10.8585 19.8035 10.8636 19.5885 11.0112 19.4849C11.1718 19.3711 11.3686 19.4202 11.4208 19.4462C11.4208 19.4849 11.426 19.5808 11.5295 19.5859C11.6331 19.5911 11.6434 19.573 11.7343 19.604C11.8253 19.6351 11.9337 19.5989 11.9828 19.7515C12.0269 19.7387 12.1305 19.7257 12.1045 19.5781C12.1557 19.5393 12.2004 19.5134 12.3093 19.3607C12.3353 19.3219 12.3791 19.2779 12.4129 19.2209C12.5035 19.2209 12.6123 19.2028 12.7571 19.3296C12.7131 19.3607 12.6872 19.3808 12.6744 19.4124C12.7123 19.4499 12.7469 19.4906 12.7778 19.5341C12.8167 19.5853 12.8427 19.6481 12.8918 19.661C13.0005 19.6921 13.1792 19.6481 13.3785 19.661C13.5702 19.674 13.7306 19.7438 13.8006 19.7878C13.8265 19.775 13.8265 19.7697 13.8912 19.7827C13.9559 19.7957 14.0051 19.8008 13.9353 19.718C13.974 19.7361 14.018 19.775 14.0569 19.7361C14.0959 19.6972 14.1267 19.6404 14.2355 19.6274C14.3442 19.6144 14.3831 19.6325 14.4271 19.5187C14.4841 19.3789 14.2873 19.3789 14.2873 19.3789C14.2873 19.3789 14.378 19.296 14.479 19.1873C14.6007 19.0734 14.7405 18.9258 14.7741 18.7446C14.8311 18.4106 14.5049 18.3667 14.5049 18.3667L12.923 18.8534L10.989 18.7575L9.33989 19.5783L9.33887 19.5781Z" fill="#927D49"/>
<path fill-rule="evenodd" clip-rule="evenodd" d="M7.91743 15.0085C7.91743 15.0085 7.86623 15.0732 7.83466 15.226C7.80309 15.3787 7.81657 15.3606 7.79063 15.4693C7.76469 15.5781 7.44605 16.6602 7.56552 17.0253C7.68499 17.3904 7.89183 17.525 8.0212 17.8201C8.04714 17.8848 8.0724 17.9237 8.08588 17.9807C8.12991 18.1722 8.09117 18.3198 8.14288 18.5115C8.16097 18.5762 8.20774 18.6512 8.27754 18.7289C8.43114 18.8893 8.68151 19.0421 8.78954 19.1508C8.94212 19.3114 9.15972 19.6377 9.43671 19.6686C9.58433 19.6867 9.79408 19.6246 9.96748 19.5211C10.1211 19.4252 10.216 19.2907 10.3771 19.2139C10.4909 19.1569 10.6126 19.1363 10.7213 19.1103C10.9466 19.0663 11.1512 19.0591 11.2729 19.0844C11.4593 19.1233 11.8994 19.258 12.1433 19.258C12.3339 19.2549 12.5234 19.2288 12.7077 19.1803C13.0779 19.0716 13.5257 18.8851 13.821 18.8023C13.9944 18.7511 14.1341 18.7376 14.2766 18.7065C14.52 18.6495 14.7245 18.5719 14.841 18.4243C14.7634 18.3336 14.6676 18.1939 14.1497 18.199C13.5621 18.2119 12.8837 18.5381 12.5497 18.59C12.2157 18.6419 12.0708 18.6857 11.6979 18.5511C11.3323 18.415 11.3202 18.3251 11.3202 18.3251C11.3202 18.3251 10.9364 18.0566 10.7758 17.3723C10.6152 16.6879 10.7758 16.1892 11.1927 15.7153C11.3014 15.5936 11.2755 15.4849 11.2755 15.4849C11.2755 15.4849 11.5499 15.1147 11.4748 14.7681C11.392 14.4237 10.8613 14.4936 10.8613 14.4936L7.9176 15.0085H7.91743Z" fill="#6E6342"/>
<path fill-rule="evenodd" clip-rule="evenodd" d="M8.36027 16.1606C8.33745 16.2036 8.32671 16.2519 8.32921 16.3004C8.33433 16.3702 8.35515 16.4608 8.56473 16.6655C8.74342 16.844 8.70451 17.0433 8.70451 17.0433C8.70451 17.0433 8.79445 17.0614 9.0385 16.9472C9.23016 16.8566 9.2945 17.0172 9.2945 17.0172C9.35029 16.988 9.41076 16.9687 9.47319 16.9602C9.52975 16.955 9.5845 16.9375 9.63362 16.909C9.63362 16.909 9.8589 17.1394 10.0557 17.2481C10.2344 17.344 10.338 17.4087 10.426 17.344C10.5088 17.287 10.5088 17.1705 10.5035 17.1188C10.483 17.071 10.457 17.0259 10.426 16.9841C10.369 16.9013 10.2784 16.8054 10.2724 16.7281C10.2595 16.5496 10.4071 16.3371 10.3758 16.2854C10.3446 16.2337 10.2284 16.2207 9.94099 16.3243C9.64335 16.4226 8.35908 16.1612 8.35908 16.1612L8.36027 16.1606Z" fill="#39331F"/>
<path fill-rule="evenodd" clip-rule="evenodd" d="M9.03838 17.3178C9.03838 17.3178 8.89093 17.178 8.94264 16.4996C9.00524 16.4987 9.06775 16.5048 9.129 16.5177C9.129 16.5177 9.20939 17.0433 9.03838 17.3178Z" fill="#292311"/>
<path fill-rule="evenodd" clip-rule="evenodd" d="M7.98745 14.4907C8.00802 14.4755 8.02711 14.4583 8.04445 14.4395C7.99325 14.5352 7.75688 14.9184 7.94854 15.5217C8.1402 16.1223 8.62165 16.5701 9.21454 16.5909C9.80744 16.6117 10.1191 16.3216 10.4754 15.8868C10.6152 15.7134 10.7758 15.4958 10.9181 15.3483C11.1304 15.1177 11.2962 15.053 11.2962 14.8305C11.2962 14.3748 10.8301 14.1702 10.144 13.9657C9.45791 13.7613 8.83908 13.7865 8.51805 13.9265C8.20488 14.079 8.07022 14.2396 7.98728 14.4909L7.98745 14.4907Z" fill="#252211"/>
<path fill-rule="evenodd" clip-rule="evenodd" d="M10.1907 17.5223L10.2419 17.4963C10.2419 17.4963 10.2547 17.2915 10.3376 17.297C10.4204 17.31 10.4593 17.4188 10.4515 17.4576C10.4464 17.4963 10.4257 17.5612 10.3428 17.5533C10.234 17.5559 10.1902 17.5223 10.1902 17.5223H10.1907Z" fill="#3F3824"/>
<path fill-rule="evenodd" clip-rule="evenodd" d="M9.96021 16.6524C9.96021 16.6524 10.0114 16.6343 10.074 16.6964C10.1252 16.6964 10.3485 16.6704 10.4184 16.7145C10.4884 16.7585 10.5091 16.7972 10.5091 16.7972C10.5091 16.7972 10.2476 16.8543 10.1051 16.7972C9.96021 16.7481 9.96021 16.6524 9.96021 16.6524H9.96021Z" fill="#2D2815"/>
<path fill-rule="evenodd" clip-rule="evenodd" d="M11.1124 16.691C11.1124 16.6781 10.9726 16.5823 10.825 16.5511C10.799 16.546 10.7937 16.5641 10.7738 16.5641C10.7608 16.5589 10.7557 16.52 10.7557 16.52L10.6717 16.5642C10.6717 16.5642 10.6587 16.5823 10.7028 16.6154C10.7415 16.6465 10.8064 16.6724 10.8245 16.7241C10.8425 16.7758 10.8425 16.7939 10.8504 16.8018C10.8555 16.8069 10.9461 16.8018 10.9902 16.7758C11.0342 16.7499 11.1171 16.7076 11.1119 16.6905L11.1124 16.691Z" fill="#82764F"/>
<path fill-rule="evenodd" clip-rule="evenodd" d="M9.80493 17.2168C9.80493 17.2168 9.8307 17.0383 10.0043 17.0305C10.1828 17.0175 10.2166 17.1909 10.2166 17.1909L10.113 17.2945C10.113 17.2919 10.0353 17.1832 9.80578 17.2168H9.80493Z" fill="#2D2816"/>
<path fill-rule="evenodd" clip-rule="evenodd" d="M10.9312 16.4479C10.9312 16.4479 10.8353 16.5515 10.6231 16.5825C10.605 16.5566 10.5661 16.5049 10.6231 16.4221C10.6801 16.3393 10.7448 16.3134 10.8095 16.3391C10.8678 16.3486 10.9152 16.391 10.9312 16.4479Z" fill="#574F35"/>
<path fill-rule="evenodd" clip-rule="evenodd" d="M11.3219 16.5748C11.3272 16.5489 11.3091 16.5438 11.3219 16.5308C11.3347 16.5178 11.4049 16.492 11.4179 16.5048C11.423 16.5101 11.4179 16.5308 11.4179 16.556C11.4179 16.5813 11.4179 16.6072 11.4049 16.6258C11.3868 16.6518 11.3351 16.6648 11.3091 16.6571C11.2832 16.6494 11.2781 16.613 11.2781 16.6059C11.2909 16.6008 11.3219 16.5878 11.3219 16.5748ZM11.764 16.2953C11.764 16.2823 11.808 16.2563 11.8339 16.2563C11.8727 16.2563 11.8727 16.2874 11.878 16.2953C11.8908 16.3004 11.8908 16.29 11.9037 16.3134C11.9167 16.3367 11.935 16.378 11.9218 16.404C11.9087 16.4299 11.8571 16.4478 11.8443 16.4427C11.8263 16.4297 11.7693 16.3134 11.764 16.2953Z" fill="#82764F"/>
<path fill-rule="evenodd" clip-rule="evenodd" d="M10.874 16.6344C10.874 16.6344 10.931 16.6472 11.0087 16.7121C10.9827 16.7302 10.9438 16.7508 10.9438 16.7508C10.9438 16.7508 10.9387 16.6913 10.874 16.6343V16.6344Z" fill="#6E6342"/>
<path fill-rule="evenodd" clip-rule="evenodd" d="M10.7474 16.0647C10.7344 16.0519 10.7861 16.0208 10.8172 16.0259C10.8483 16.0311 10.8612 16.0519 10.8949 16.057C10.9285 16.0621 10.9338 16.044 10.9461 16.0311C10.9584 16.0181 11.0031 16.0259 11.0107 16.0311C11.0155 16.0367 11.0199 16.0428 11.0237 16.0492C11.0248 16.0292 11.0342 16.0107 11.0495 15.998C11.0696 15.9832 11.0954 15.9784 11.1195 15.985C11.1246 16.0031 11.1505 16.0678 11.1454 16.0807C11.1403 16.0937 11.0626 16.112 11.0495 16.0988C11.0625 16.13 11.1195 16.1947 11.1271 16.2075C11.1348 16.2203 11.0701 16.2516 11.0444 16.2464C11.0082 16.2439 10.7855 16.1143 10.7467 16.0652L10.7474 16.0647ZM11.0865 15.6349C11.0817 15.6219 11.0726 15.6109 11.0606 15.6039C11.0425 15.5988 10.9829 15.6039 10.9829 15.6349C10.9829 15.666 11.0341 15.8397 11.0916 15.9302C11.1565 16.0208 11.2004 16.0957 11.2444 16.1166C11.2731 16.1296 11.307 16.1183 11.322 16.0906C11.3272 16.0777 11.3401 15.9819 11.335 15.7566C11.3299 15.5313 11.322 15.3139 11.3091 15.3009C11.2961 15.288 11.2444 15.2881 11.2263 15.3139C11.2082 15.3397 11.0916 15.5962 11.0864 15.6349H11.0865Z" fill="#585136"/>
<path fill-rule="evenodd" clip-rule="evenodd" d="M10.856 16.9604C10.856 16.9604 10.7654 16.9034 10.6773 16.9423C10.5946 16.9812 10.5997 17.134 10.5997 17.134C10.6375 17.1488 10.6802 17.1439 10.7137 17.121C10.7707 17.0823 10.843 17.0176 10.856 16.9606V16.9604Z" fill="#574F35"/>
<path fill-rule="evenodd" clip-rule="evenodd" d="M11.0268 17.1651C11.0217 17.1139 10.9756 17.1139 10.9756 17.0875C10.9821 17.0614 11.0056 17.0433 11.0324 17.0434C11.0584 17.0434 11.0836 17.0745 11.1154 17.0946C11.1464 17.1127 11.193 17.1458 11.1981 17.1853C11.2033 17.2247 11.1469 17.3327 11.0843 17.3327C11.0217 17.3327 11.0403 17.2161 11.0273 17.1644L11.0268 17.1651ZM11.5265 17.0951C11.5265 17.0951 11.4229 17.1262 11.4306 17.0951C11.4383 17.0641 11.4618 17.0564 11.4954 17.0564C11.5125 17.0385 11.5355 17.0274 11.5601 17.0252C11.5742 17.0245 11.588 17.0291 11.5989 17.0381C11.5989 17.0381 11.6688 17.0071 11.6895 17.0252C11.7101 17.0433 11.6948 17.0433 11.7076 17.0641C11.7239 17.0872 11.7346 17.1138 11.7388 17.1417C11.7388 17.1624 11.6612 17.2064 11.5989 17.1987C11.5265 17.1832 11.5393 17.1081 11.5265 17.0951ZM12.1296 16.9786C12.1296 16.9786 12.1607 16.9967 12.1349 17.0175C12.1168 17.0356 12.0262 17.0687 11.9484 17.0745C11.8707 17.0745 11.8009 17.0873 11.8009 17.0615C11.8009 17.0357 11.8656 16.9839 11.9044 16.9709C11.9201 16.9512 11.944 16.9397 11.9692 16.9398C12.0003 16.9398 12.1218 16.9269 12.1556 16.9217C12.1866 16.9165 12.2126 16.9345 12.1943 16.9605C12.1866 16.9786 12.1296 16.9786 12.1296 16.9786ZM12.3083 16.1792C12.3083 16.1792 12.2694 16.2619 12.2255 16.2619C12.1815 16.2568 12.1815 16.2439 12.1815 16.2309C12.1815 16.2128 12.2255 16.1662 12.2203 16.1532C12.2075 16.1532 12.1762 16.1532 12.1815 16.1222C12.1815 16.0962 12.2255 16.0652 12.2643 16.071C12.2936 16.0469 12.33 16.0333 12.3679 16.0322C12.4119 16.0322 12.4507 16.045 12.4507 16.071C12.4507 16.0969 12.3995 16.1537 12.3807 16.1669C12.36 16.1875 12.3341 16.201 12.3083 16.1797V16.1792ZM11.718 17.7092C11.718 17.7092 11.6668 17.7145 11.6668 17.7403C11.6668 17.7532 11.6796 17.7532 11.6978 17.7456C11.7084 17.745 11.7188 17.7432 11.7289 17.7403C11.734 17.7456 11.734 17.7713 11.7729 17.7713C11.8049 17.767 11.8357 17.7565 11.8636 17.7403C11.8946 17.7275 11.9206 17.7143 11.9206 17.6891C11.9076 17.645 11.8817 17.6242 11.8429 17.6242C11.8231 17.6229 11.8033 17.6275 11.7859 17.6372C11.7859 17.6372 11.7729 17.6112 11.7289 17.6372C11.6849 17.6631 11.69 17.6631 11.703 17.6761C11.7262 17.6967 11.7185 17.7102 11.7185 17.7102L11.718 17.7092ZM11.4255 17.9785C11.4255 17.9655 11.4901 17.9396 11.5082 17.9475C11.5263 17.9526 11.578 18.0509 11.578 18.0613C11.578 18.0743 11.5134 18.1053 11.4874 18.1053C11.4615 18.1053 11.4176 18.0613 11.4176 18.0541C11.4176 18.049 11.4487 18.0413 11.4487 18.036C11.4564 18.0232 11.4255 17.992 11.4255 17.979V17.9785ZM11.2207 17.6005C11.2336 17.5954 11.2336 17.5824 11.2517 17.5694C11.2632 17.5618 11.2776 17.5599 11.2906 17.5643C11.2999 17.5478 11.316 17.5363 11.3347 17.5331C11.3657 17.528 11.3917 17.5331 11.3859 17.546C11.3859 17.585 11.4118 17.6107 11.4118 17.6418C11.4118 17.6728 11.3937 17.7118 11.329 17.7377C11.2644 17.7558 11.1763 17.7558 11.1633 17.7507C11.1503 17.7456 11.1374 17.6937 11.1503 17.6677C11.1633 17.6418 11.1995 17.6135 11.2203 17.6005H11.2207Z" fill="#82764F"/>
<path fill-rule="evenodd" clip-rule="evenodd" d="M11.3031 17.6182C11.3031 17.6182 11.2591 17.6441 11.2591 17.6571C11.2552 17.6696 11.2535 17.6827 11.254 17.6958C11.254 17.7035 11.311 17.6907 11.3187 17.6828C11.3212 17.6777 11.3031 17.6316 11.3031 17.6182Z" fill="#6E6342"/>
<path fill-rule="evenodd" clip-rule="evenodd" d="M10.9182 17.4964C10.944 17.5017 10.988 17.4964 11.0217 17.5094C11.0476 17.5224 11.0657 17.5483 11.0397 17.5794C11.0138 17.6105 10.9885 17.657 10.931 17.6492C10.8663 17.6441 10.8042 17.6105 10.8042 17.5845C10.802 17.5514 10.8132 17.5187 10.8353 17.4939C10.8612 17.4732 10.874 17.4862 10.9181 17.4964H10.9182Z" fill="#585136"/>
<path fill-rule="evenodd" clip-rule="evenodd" d="M10.887 17.5225C10.887 17.5225 10.8043 17.5871 10.7834 17.6184C10.7575 17.6494 10.6307 17.8099 10.5919 17.8435C10.6048 17.8208 10.6195 17.7992 10.6358 17.7788C10.5846 17.8115 10.5462 17.8609 10.5271 17.9186C10.496 18.0145 10.7007 18.0662 10.8351 18.1051C10.9696 18.144 11.0217 18.1563 11.0217 18.1563C10.9722 18.0819 10.9297 18.0031 10.8947 17.9208C10.8435 17.7991 10.8171 17.7861 10.8507 17.7291C10.8766 17.6721 10.9155 17.6334 10.9155 17.5894C10.9 17.5484 10.887 17.5225 10.887 17.5225Z" fill="#574F35"/>
<path fill-rule="evenodd" clip-rule="evenodd" d="M7.93564 17.7269C7.95449 17.7303 7.9738 17.7303 7.99265 17.7269C8.03139 17.7216 8.43536 17.5733 8.85741 17.5999C9.17337 17.619 9.48654 17.6704 9.79199 17.7535C10.3228 17.8933 10.9829 18.1702 11.4101 18.3283C11.5239 18.3721 11.6354 18.45 11.7173 18.4809C12.0436 18.6078 12.0564 18.6078 12.248 18.6415C12.4733 18.6725 12.7037 18.5974 12.9445 18.5457C13.2396 18.4809 13.7445 18.4498 14.1872 18.3851C14.3303 18.3653 14.4715 18.3332 14.6092 18.2894C14.6092 18.2894 14.2571 18.6415 13.413 18.7683C13.0718 18.8201 12.7251 18.8244 12.3827 18.7812C12.1134 18.7553 11.9349 18.7164 11.8002 18.6776C11.6475 18.6336 11.3341 18.517 10.9484 18.4216C10.6791 18.3517 10.3787 18.3 10.0345 18.2353C9.18527 18.0798 8.26367 17.9013 7.9353 17.7279L7.93564 17.7269Z" fill="#252211"/>
<path fill-rule="evenodd" clip-rule="evenodd" d="M6.98286 16.127C6.77806 16.3004 6.56081 16.4661 6.34867 16.6265L5.70918 17.1178C5.49175 17.2783 5.27944 17.444 5.06184 17.6046C4.84424 17.7652 4.62698 17.9178 4.39624 18.0654C4.60104 17.892 4.8183 17.7314 5.03573 17.5735C5.25316 17.4157 5.47861 17.2609 5.68836 17.1008L6.32785 16.6087C6.54783 16.4483 6.76014 16.2826 6.98286 16.1273V16.127ZM5.85152 17.9393C5.85152 17.9393 6.08192 17.7476 6.36932 17.4785C6.72652 17.1446 7.16411 16.7173 7.30389 16.6398L5.85135 17.9394L5.85152 17.9393Z" fill="#CFB66C"/>
<path fill-rule="evenodd" clip-rule="evenodd" d="M5.85132 17.9392C5.96532 17.8254 6.08701 17.7141 6.20869 17.6052L6.39506 17.4448C6.45207 17.3936 6.51692 17.3361 6.57375 17.2791C6.68759 17.1652 6.79903 17.0434 6.91287 16.927C6.96929 16.8684 7.02894 16.8131 7.09155 16.7613C7.12285 16.7336 7.15762 16.71 7.19498 16.6913C7.22621 16.6732 7.25983 16.6401 7.30369 16.6343C7.27792 16.6732 7.24686 16.6913 7.22092 16.7249C7.18986 16.7508 7.16392 16.7819 7.13815 16.8077C7.08114 16.8647 7.01646 16.9164 6.95946 16.9683C6.83777 17.0719 6.71097 17.1731 6.58928 17.2814C6.4676 17.3898 6.35376 17.5067 6.23191 17.6154C6.09998 17.7269 5.97829 17.8356 5.85132 17.9397V17.9392ZM7.39961 16.9036C7.39961 16.9036 6.55566 17.7296 6.38209 17.8641L7.39961 16.9036Z" fill="#CFB66C"/>
<path fill-rule="evenodd" clip-rule="evenodd" d="M7.39959 16.9033C7.32367 16.9912 7.24227 17.0742 7.15588 17.1518L6.89988 17.3952C6.81711 17.478 6.73929 17.5609 6.65139 17.6437C6.56077 17.7213 6.47799 17.7973 6.38208 17.869L6.63057 17.6256C6.71351 17.5428 6.80414 17.473 6.8922 17.3901L7.14069 17.1467C7.22603 17.0614 7.30897 16.9784 7.39959 16.9033ZM7.43834 17.3512C7.36054 17.5683 7.26888 17.7802 7.1639 17.9855C6.94647 18.4205 6.62033 18.9641 6.47782 19.2413L7.43834 17.3512Z" fill="#CFB66C"/>
<path fill-rule="evenodd" clip-rule="evenodd" d="M7.43842 17.3516C7.43842 17.4473 7.41248 17.5303 7.38142 17.613C7.35114 17.6959 7.31662 17.7771 7.27799 17.8564C7.23908 17.934 7.19505 18.017 7.15102 18.0921C7.10699 18.1672 7.05527 18.2447 7.01636 18.3225L6.7549 18.7833C6.66428 18.9369 6.57621 19.0913 6.48047 19.239C6.54515 19.0732 6.63322 18.9179 6.71616 18.7652C6.80678 18.6116 6.88956 18.458 6.97216 18.2991C7.01249 18.2199 7.04877 18.1388 7.08087 18.0559C7.11962 17.973 7.15836 17.8953 7.18959 17.8202C7.22833 17.7374 7.25939 17.6596 7.2983 17.5847C7.34216 17.5043 7.37852 17.4267 7.43808 17.3516L7.43842 17.3516Z" fill="#CFB66C"/>
<path fill-rule="evenodd" clip-rule="evenodd" d="M8.36013 19.4746C8.36013 19.4746 8.10413 19.8137 8.12973 20.2435C8.19953 20.0184 8.2876 19.6739 8.36013 19.4746ZM8.6035 19.8146C8.6035 19.8146 8.51288 20.7362 8.43778 21.1893C8.54394 20.6655 8.56459 20.7096 8.6035 19.8146ZM10.2992 21.2437C10.2992 21.2437 9.9161 22.3701 9.90825 22.6831C9.99119 22.3613 10.1516 21.7037 10.2992 21.2429V21.2437Z" fill="#DEC270"/>
<path fill-rule="evenodd" clip-rule="evenodd" d="M11.1951 19.4048C11.1951 19.4048 11.8165 20.43 12.2826 21.305C12.1564 20.8647 11.8663 20.0571 11.1951 19.4048Z" fill="#CBAF59"/>
<path fill-rule="evenodd" clip-rule="evenodd" d="M12.8652 20.9141C13.2064 21.5171 13.5141 22.1386 13.7868 22.7755C13.7351 22.3354 13.5952 21.5821 12.8652 20.9141Z" fill="#E3C677"/>
<path fill-rule="evenodd" clip-rule="evenodd" d="M17.7739 22.4254C17.8773 22.3607 18.082 22.0085 18.2606 21.9206C18.4392 21.8299 18.5738 21.8118 18.7344 21.6332C18.8948 21.4466 18.9392 21.3328 19.291 21.1853C19.783 20.9729 19.4446 20.6984 19.4446 20.6984C19.4988 20.6452 19.5567 20.5959 19.618 20.551C19.7449 20.4552 19.8924 20.3387 19.8796 20.134C19.8615 19.7898 19.7968 19.2901 19.5145 19.0001C19.789 18.9431 20.3144 18.9044 20.6409 18.8216C21.0188 18.7257 21.1924 18.591 21.1924 18.591C21.1924 18.591 20.9749 18.2209 21.327 17.8481C21.6791 17.4754 21.9665 17.2527 22.1788 16.8357C21.9354 16.8047 21.5644 16.6753 20.6176 17.0351C20.6687 17.0591 20.718 17.0868 20.7652 17.1178C20.7652 17.1178 20.1827 17.2784 19.9704 17.4571C19.6 17.7703 19.5534 18.0266 19.1522 18.2183C18.751 18.41 18.347 18.3581 18.0132 18.5134C17.6794 18.6687 17.63 18.8008 17.5082 18.8578C17.5341 18.8888 17.5031 18.9406 17.5522 18.9846C17.5211 19.0286 17.3399 19.3237 17.1561 19.3237C17.1742 19.3937 17.3295 19.4454 17.3295 19.4454C17.3295 19.4454 17.2157 19.5283 16.9257 19.549C17.0731 19.7026 17.2131 19.87 17.5988 20.1134C17.5677 20.1781 17.4382 20.274 17.4901 20.3957C17.5471 20.5173 17.6949 20.6831 18.2849 20.8177C17.9845 20.8305 17.6326 20.9005 17.1585 20.8358C16.6847 20.7788 16.6071 20.7452 16.3145 20.8177C16.3456 20.8488 16.4284 20.8488 16.5009 20.9316C16.4232 20.9367 15.9365 20.8745 15.7708 21.0921C15.5974 21.3173 15.5223 21.6876 15.5353 21.9361C15.4446 21.9801 15.3566 22.0578 15.4006 22.2184C15.4446 22.379 15.675 22.4307 15.8227 22.5316C15.9701 22.6403 15.9831 22.679 16.123 22.6532C16.2705 22.6222 16.4879 22.4747 16.6149 22.4747C16.7419 22.4747 16.8323 22.5705 16.8323 22.5705C16.8323 22.5705 17.1767 22.4047 17.2104 22.4358C17.2414 22.4669 17.2155 22.6662 17.2491 22.6973C17.2832 22.7206 17.6712 22.4902 17.7748 22.4254H17.7739Z" fill="#ECD592"/>
</svg>
