<svg width="33" height="32" viewBox="0 0 33 32" fill="none" xmlns="http://www.w3.org/2000/svg">
<circle cx="16.6334" cy="15.8668" r="14.2667" fill="white"/>
<path fill-rule="evenodd" clip-rule="evenodd" d="M0.5 16C0.5 7.16344 7.66341 0 16.4999 0H16.5929C20.824 0.0123117 24.877 1.70494 27.8601 4.70553C30.8432 7.70611 32.5122 11.7689 32.4999 16C32.4999 24.8366 25.3364 32 16.4999 32C7.66341 32 0.5 24.8366 0.5 16ZM15.1053 22.1598L16.7711 16.5424L19.3667 15.8063L19.9091 13.9467L17.3522 14.7215L20.0641 5.50121V5.354C20.06 5.23478 20.0088 5.12207 19.9216 5.04068C19.8344 4.9593 19.7184 4.91592 19.5992 4.9201H16.1513C15.8827 4.91182 15.643 5.08759 15.5702 5.34625L12.3547 16.2712L9.79778 17.046L9.21667 18.8281L11.7736 18.0533L9.48786 25.8402H23.1246C23.3941 25.8513 23.6354 25.6744 23.7057 25.414L24.4805 22.7409V22.5937C24.4765 22.4745 24.4252 22.3618 24.338 22.2804C24.2508 22.199 24.1348 22.1556 24.0156 22.1598H15.1053Z" fill="#345D9D"/>
</svg>
