<svg width="70" height="18" viewBox="0 0 70 18" fill="none" xmlns="http://www.w3.org/2000/svg">
<path d="M18.2307 11.1771C17.0286 15.9986 12.1453 18.9329 7.32323 17.7306C2.5032 16.5285 -0.431053 11.6449 0.77149 6.82378C1.97298 2.00177 6.85635 -0.932704 11.6769 0.269311C16.4986 1.47133 19.4327 6.35553 18.2305 11.1772L18.2306 11.1771H18.2307Z" fill="#F7931A"/>
<path fill-rule="evenodd" clip-rule="evenodd" d="M13.4693 7.71775C13.6484 6.52005 12.7365 5.87624 11.4897 5.44675L11.8942 3.82436L10.9066 3.57827L10.5128 5.15795C10.2531 5.09319 9.98652 5.03218 9.72152 4.97169L10.1181 3.38158L9.13115 3.1355L8.72644 4.75736C8.51158 4.70845 8.30056 4.6601 8.09582 4.60916L8.09697 4.60406L6.73504 4.26396L6.47233 5.31878C6.47233 5.31878 7.20504 5.48674 7.1896 5.49708C7.58953 5.59689 7.66185 5.86163 7.64984 6.07147L7.18908 7.91976C7.21661 7.92675 7.25234 7.93687 7.29175 7.95271L7.26303 7.94554C7.23868 7.93945 7.21336 7.93311 7.18736 7.92689L6.54153 10.5161C6.49265 10.6376 6.3686 10.8199 6.08899 10.7507C6.09889 10.765 5.37118 10.5715 5.37118 10.5715L4.88086 11.702L6.16606 12.0224C6.30681 12.0577 6.4459 12.094 6.58357 12.1299L6.58372 12.1299C6.67986 12.155 6.77533 12.1799 6.87018 12.2041L6.46151 13.8451L7.44796 14.0912L7.85268 12.4676C8.12217 12.5408 8.3837 12.6083 8.63973 12.6719L8.23637 14.2878L9.22402 14.5339L9.63265 12.896C11.3167 13.2147 12.583 13.0862 13.116 11.5629C13.5455 10.3365 13.0946 9.62917 12.2086 9.16788C12.854 9.01905 13.34 8.59463 13.4696 7.71788L13.4693 7.71766L13.4693 7.71775ZM11.2128 10.8822C10.9328 12.0074 9.17161 11.5422 8.3658 11.3294L8.36578 11.3294C8.2933 11.3103 8.22855 11.2932 8.1733 11.2794L8.71563 9.1054C8.78296 9.12221 8.86525 9.14068 8.95847 9.1616C9.79198 9.34865 11.4997 9.7319 11.2129 10.8822H11.2128ZM9.12561 8.15259C9.79743 8.33188 11.263 8.72301 11.5182 7.70037H11.5183C11.7789 6.65446 10.3547 6.33913 9.65905 6.18512C9.58079 6.1678 9.51176 6.15251 9.45538 6.13846L8.96369 8.11019C9.01012 8.12176 9.06459 8.1363 9.12561 8.15259Z" fill="white"/>
<circle cx="19.7856" cy="9" r="9" fill="#EDF0F4"/>
<path d="M19.761 3.6001L19.6895 3.84329V10.8995L19.761 10.971L23.0364 9.03487L19.761 3.6001Z" fill="#343434"/>
<path d="M19.7608 3.6001L16.4854 9.03487L19.7608 10.971V7.54606V3.6001Z" fill="#8C8C8C"/>
<path d="M19.7606 11.5911L19.7202 11.6403V14.1539L19.7606 14.2716L23.0379 9.65601L19.7606 11.5911Z" fill="#3C3C3B"/>
<path d="M19.7608 14.2716V11.5911L16.4854 9.65601L19.7608 14.2716Z" fill="#8C8C8C"/>
<path d="M19.7607 10.9711L23.0361 9.03495L19.7607 7.54614V10.9711Z" fill="#141414"/>
<path d="M16.4854 9.03495L19.7608 10.9711V7.54614L16.4854 9.03495Z" fill="#393939"/>
<path d="M38.8 11.1771C37.598 15.9986 32.7146 18.9329 27.8926 17.7306C23.0725 16.5285 20.1383 11.6449 21.3408 6.82378C22.5423 2.00177 27.4257 -0.932704 32.2462 0.269311C37.0679 1.47133 40.002 6.35553 38.7999 11.1772L38.8 11.1771H38.8Z" fill="#50AF95"/>
<path fill-rule="evenodd" clip-rule="evenodd" d="M31.2102 10.02C31.1465 10.0248 30.8177 10.0444 30.0843 10.0444C29.501 10.0444 29.0868 10.0269 28.9415 10.02C26.6871 9.92087 25.0044 9.52844 25.0044 9.05858C25.0044 8.58872 26.6871 8.19681 28.9415 8.09605V9.6292C29.0889 9.63981 29.511 9.66473 30.0944 9.66473C30.7944 9.66473 31.1449 9.63556 31.2081 9.62973V8.09711C33.4577 8.19734 35.1366 8.58978 35.1366 9.05858C35.1366 9.52738 33.4582 9.91981 31.2081 10.0195L31.2102 10.02ZM31.21 7.93889V6.56696H34.3495V4.47485H25.8018V6.56696H28.9408V7.93836C26.3894 8.05556 24.4707 8.56095 24.4707 9.16658C24.4707 9.7722 26.3894 10.2771 28.9408 10.3948V14.7911H31.2095V10.3932C33.755 10.276 35.6705 9.77114 35.6705 9.16605C35.6705 8.56095 33.7566 8.05609 31.2095 7.93836L31.21 7.93889Z" fill="white"/>
<path d="M49.0856 11.1771C47.8836 15.9986 43.0003 18.9329 38.1782 17.7306C33.3582 16.5285 30.4239 11.6449 31.6265 6.82378C32.828 2.00177 37.7113 -0.932704 42.5319 0.269311C47.3536 1.47133 50.2877 6.35553 49.0855 11.1772L49.0856 11.1771H49.0856Z" fill="#F3BA2F"/>
<path fill-rule="evenodd" clip-rule="evenodd" d="M40.3571 5.712L38.0266 8.0425L38.0266 8.0424L36.6707 6.6864L40.3571 3L44.0447 6.6875L42.6887 8.0435L40.3571 5.712ZM35.713 7.64376L34.3569 9L35.7129 10.3558L37.0689 8.99971L35.713 7.64376ZM38.0266 9.95765L40.3571 12.288L42.6886 9.95654L44.0454 11.3118L44.0447 11.3125L40.3571 15L36.6707 11.3136L36.6688 11.3117L38.0266 9.95765ZM45.0011 7.64471L43.6451 9.00075L45.0011 10.3567L46.3571 9.00066L45.0011 7.64471Z" fill="white"/>
<path d="M41.732 8.99926H41.7325L40.3567 7.62329L39.3397 8.63998L39.2229 8.75686L38.9819 8.99787L38.98 8.99974L38.9819 9.00171L40.3567 10.3767L41.7326 9.0007L41.7333 8.99993L41.7321 8.99926" fill="white"/>
<circle cx="50.6431" cy="9" r="9" fill="#EDF0F4"/>
<path d="M47.933 8.95448C47.9074 9.39926 48.2498 9.78005 48.6946 9.80565C48.7106 9.80565 48.7266 9.80565 48.7426 9.80565C49.1905 9.80565 49.5521 9.44406 49.5489 8.99608C49.5489 8.5481 49.1873 8.18652 48.7394 8.18972C48.3106 8.18972 47.9554 8.5257 47.933 8.95448Z" fill="#0033AD"/>
<path d="M44.9185 8.74642C44.7745 8.73682 44.6497 8.84882 44.6433 8.99281C44.6369 9.13681 44.7457 9.2616 44.8897 9.268C45.0337 9.2776 45.1553 9.1656 45.1649 9.02161C45.1745 8.87762 45.0625 8.75602 44.9185 8.74642Z" fill="#0033AD"/>
<path d="M47.8815 4.26353C48.0095 4.19953 48.0607 4.03954 47.9967 3.91155C47.9327 3.78355 47.7727 3.73235 47.6447 3.79635C47.5167 3.86035 47.4655 4.01714 47.5295 4.14513C47.5935 4.27633 47.7503 4.33073 47.8815 4.26353C47.8815 4.26353 47.8783 4.26353 47.8815 4.26353Z" fill="#0033AD"/>
<path d="M48.701 5.69369C48.8994 5.5945 48.9794 5.35131 48.8802 5.15292C48.781 4.95453 48.5378 4.87453 48.3394 4.97373C48.1411 5.07292 48.0611 5.31611 48.1602 5.5145C48.2594 5.71289 48.5026 5.79289 48.701 5.69369Z" fill="#0033AD"/>
<path d="M45.9427 6.6762C46.0963 6.77539 46.301 6.73379 46.4034 6.5802C46.5026 6.42661 46.461 6.22182 46.3074 6.11942C46.1539 6.02023 45.9491 6.06182 45.8467 6.21542C45.7443 6.36901 45.7891 6.577 45.9427 6.6762Z" fill="#0033AD"/>
<path d="M46.4321 8.60249C46.2081 8.58969 46.0193 8.75928 46.0065 8.98327C45.9937 9.20726 46.1633 9.39605 46.3873 9.40885C46.6113 9.42165 46.8001 9.25206 46.8129 9.02807C46.8257 8.80728 46.6561 8.61529 46.4321 8.60249Z" fill="#0033AD"/>
<path d="M45.9876 11.3126C45.8245 11.3958 45.7573 11.5942 45.8405 11.7606C45.9236 11.9238 46.122 11.991 46.2884 11.9078C46.4516 11.8246 46.5188 11.6262 46.4356 11.4598C46.3524 11.2966 46.1508 11.2294 45.9876 11.3126Z" fill="#0033AD"/>
<path d="M47.5554 7.76732C47.7762 7.91131 48.0706 7.85052 48.2114 7.62972C48.3554 7.40893 48.2946 7.11455 48.0738 6.97375C47.853 6.82976 47.5586 6.89056 47.4178 7.11135C47.2739 7.32894 47.3346 7.62333 47.5554 7.76732Z" fill="#0033AD"/>
<path d="M52.531 5.66153C52.7166 5.78313 52.9694 5.73193 53.091 5.54634C53.2126 5.36075 53.1614 5.10796 52.9758 4.98636C52.7902 4.86477 52.5374 4.91597 52.4158 5.10156C52.291 5.29035 52.3422 5.53994 52.531 5.66153Z" fill="#0033AD"/>
<path d="M53.3568 4.23784C53.4784 4.31784 53.6384 4.28264 53.7184 4.16104C53.7984 4.03945 53.7632 3.87946 53.6416 3.79946C53.52 3.71946 53.36 3.75466 53.28 3.87306C53.2032 3.99465 53.2384 4.15784 53.3568 4.23784Z" fill="#0033AD"/>
<path d="M52.5918 8.18323C52.147 8.15763 51.763 8.50002 51.7406 8.9448C51.715 9.38958 52.0574 9.77356 52.5022 9.79596C52.5182 9.79596 52.5342 9.79596 52.547 9.79596C52.9917 9.79596 53.3533 9.43438 53.3533 8.9864C53.3565 8.56081 53.0205 8.20563 52.5918 8.18323Z" fill="#0033AD"/>
<path d="M48.9665 7.70951C49.1041 7.9815 49.3825 8.15429 49.6897 8.15429C50.1345 8.15429 50.4961 7.7927 50.4961 7.34472C50.4961 7.21993 50.4673 7.09513 50.4097 6.97994C50.2081 6.57996 49.7217 6.41997 49.3249 6.62156C48.9249 6.82635 48.7649 7.31273 48.9665 7.70951Z" fill="#0033AD"/>
<path d="M55.299 6.67602C55.4622 6.59282 55.5262 6.39123 55.443 6.22804C55.3598 6.06484 55.1582 6.00085 54.995 6.08404C54.8318 6.16724 54.7678 6.36563 54.8478 6.52882C54.9342 6.69201 55.1326 6.75921 55.299 6.67602Z" fill="#0033AD"/>
<path d="M53.2512 6.93195C53.0176 7.05035 52.9216 7.33513 53.04 7.56872C53.1584 7.80231 53.4432 7.89831 53.6768 7.77991C53.9104 7.66152 54.0064 7.37673 53.888 7.14314C53.7696 6.90955 53.4848 6.81676 53.2512 6.93195Z" fill="#0033AD"/>
<path d="M50.6114 4.11624C50.7938 4.12584 50.9506 3.98504 50.9634 3.80265C50.9762 3.62026 50.8322 3.46347 50.6498 3.45067C50.4674 3.44107 50.3106 3.57866 50.2978 3.76105C50.2882 3.94665 50.429 4.10344 50.6114 4.11624Z" fill="#0033AD"/>
<path d="M50.6082 6.20562C50.8706 6.22162 51.0946 6.02002 51.1074 5.75764C51.1234 5.49525 50.9218 5.27126 50.6594 5.25846C50.397 5.24246 50.1731 5.44405 50.1603 5.70644C50.1475 5.96883 50.3458 6.19282 50.6082 6.20562Z" fill="#0033AD"/>
<path d="M48.0352 11.0565C48.2688 10.9381 48.3648 10.6533 48.2464 10.4197C48.128 10.1861 47.8432 10.0901 47.6096 10.2085C47.376 10.3269 47.28 10.6117 47.3984 10.8453C47.5168 11.0789 47.8016 11.1749 48.0352 11.0565Z" fill="#0033AD"/>
<path d="M50.9154 6.89994C50.6723 7.27432 50.7746 7.7735 51.149 8.01669C51.5234 8.25988 52.0226 8.15748 52.2658 7.7831C52.509 7.40872 52.4066 6.90954 52.0322 6.66635C51.901 6.57995 51.7474 6.53516 51.5906 6.53516C51.3186 6.53516 51.0658 6.67275 50.9154 6.89994Z" fill="#0033AD"/>
<path d="M52.3198 10.279C52.1182 9.87903 51.6318 9.71904 51.2351 9.92063C50.8351 10.1222 50.6751 10.6086 50.8767 11.0054C51.0783 11.4054 51.5647 11.5654 51.9614 11.3638C52.3582 11.1654 52.5214 10.6854 52.323 10.2854C52.323 10.2822 52.323 10.2822 52.3198 10.279Z" fill="#0033AD"/>
<path d="M53.731 10.2218C53.5103 10.0778 53.2159 10.1386 53.0751 10.3594C52.9311 10.5802 52.9919 10.8746 53.2127 11.0154C53.4335 11.1594 53.7278 11.0986 53.8686 10.8778C54.0126 10.6602 53.9518 10.3658 53.731 10.2218Z" fill="#0033AD"/>
<path d="M55.2797 9.00902C55.2925 8.78503 55.1229 8.59624 54.8989 8.58344C54.6749 8.57064 54.4861 8.74024 54.4733 8.96423C54.4605 9.18822 54.6301 9.37701 54.8541 9.38981C55.0749 9.40261 55.2669 9.22981 55.2797 9.00902Z" fill="#0033AD"/>
<path d="M56.3965 8.72079C56.2526 8.71119 56.1278 8.82318 56.1214 8.96718C56.115 9.11117 56.2238 9.23597 56.3678 9.24237C56.5117 9.25197 56.6333 9.13997 56.6429 8.99598C56.6493 8.85198 56.5405 8.73039 56.3965 8.72079Z" fill="#0033AD"/>
<path d="M55.3436 11.3128C55.19 11.2136 54.9852 11.2552 54.8828 11.4088C54.7837 11.5624 54.8253 11.7672 54.9788 11.8696C55.1324 11.9688 55.3372 11.9272 55.4396 11.7736C55.542 11.62 55.4972 11.412 55.3436 11.3128Z" fill="#0033AD"/>
<path d="M47.9267 13.7511C47.8051 13.6711 47.6451 13.7063 47.5651 13.8247C47.4851 13.9463 47.5203 14.1063 47.6387 14.1863C47.7603 14.2663 47.9203 14.2311 48.0003 14.1127C48.0835 13.9943 48.0483 13.8311 47.9267 13.7511Z" fill="#0033AD"/>
<path d="M53.405 13.7252C53.277 13.7892 53.2258 13.9492 53.2898 14.0772C53.3538 14.2051 53.5137 14.2563 53.6417 14.1923C53.7697 14.1283 53.8209 13.9716 53.7569 13.8436C53.6929 13.7124 53.5361 13.658 53.405 13.7252C53.4082 13.7252 53.405 13.7252 53.405 13.7252Z" fill="#0033AD"/>
<path d="M50.371 11.0886C50.6142 10.7142 50.5118 10.2151 50.1374 9.96866C49.763 9.72548 49.2638 9.82787 49.0174 10.2023C48.7711 10.5766 48.8766 11.0758 49.251 11.3222C49.3822 11.4086 49.5358 11.4534 49.6926 11.4534C49.9678 11.4566 50.2206 11.319 50.371 11.0886Z" fill="#0033AD"/>
<path d="M48.7553 12.3272C48.5697 12.2056 48.3169 12.2568 48.1953 12.4424C48.0738 12.628 48.125 12.8808 48.3105 13.0024C48.4961 13.1239 48.7489 13.0728 48.8705 12.8872C48.9953 12.7016 48.9441 12.4488 48.7553 12.3272Z" fill="#0033AD"/>
<path d="M50.6399 13.8725C50.4575 13.8629 50.3007 14.0037 50.2879 14.1861C50.2751 14.3685 50.4191 14.5253 50.6015 14.5381C50.7839 14.5477 50.9407 14.4101 50.9535 14.2277C50.9631 14.0421 50.8223 13.8853 50.6399 13.8725Z" fill="#0033AD"/>
<path d="M50.6431 11.7831C50.3807 11.7671 50.1568 11.9687 50.144 12.2311C50.128 12.4935 50.3295 12.7175 50.5919 12.7303C50.8543 12.7431 51.0783 12.5447 51.0911 12.2823C51.1071 12.0231 50.9055 11.7959 50.6431 11.7831Z" fill="#0033AD"/>
<path d="M52.5854 12.2952C52.387 12.3976 52.307 12.6408 52.4094 12.8392C52.5118 13.0376 52.755 13.1176 52.9534 13.0152C53.1518 12.916 53.2318 12.6728 53.1326 12.4744C53.0302 12.276 52.787 12.1928 52.5854 12.2952Z" fill="#0033AD"/>
<path d="M69.6574 11.1771C68.4554 15.9986 63.572 18.9329 58.75 17.7306C53.93 16.5285 50.9957 11.6449 52.1982 6.82378C53.3997 2.00177 58.2831 -0.932704 63.1037 0.269311C67.9254 1.47133 70.8594 6.35553 69.6573 11.1772L69.6574 11.1771H69.6574Z" fill="#23292F"/>
<path d="M65.3541 3.75H67.1703L63.3907 7.49232C62.0219 8.84685 59.8027 8.84685 58.433 7.49232L54.6519 3.75H56.4695L59.341 6.59282C60.2116 7.45082 61.6098 7.45082 62.4803 6.59282L65.3541 3.75Z" fill="white"/>
<path d="M56.4463 14.1563H54.6289L58.4331 10.3909C59.8018 9.03637 62.021 9.03637 63.3908 10.3909L67.1949 14.1563H65.3788L62.4827 11.2904C61.6121 10.4324 60.2139 10.4324 59.3434 11.2904L56.4463 14.1563Z" fill="white"/>
</svg>
