<svg width="69" height="64" viewBox="0 0 69 64" fill="none" xmlns="http://www.w3.org/2000/svg">
<path d="M57.4602 41.43C58.656 38.5259 59.3052 35.4167 59.3052 32C59.3052 29.54 58.9293 27.1825 58.2802 24.9959C56.0593 25.5084 53.736 25.7817 51.3102 25.7817C46.3422 25.787 41.4458 24.5979 37.0337 22.3145C32.6216 20.0312 28.8231 16.7206 25.9585 12.6617C22.897 20.0784 17.1152 26.0436 9.79766 29.335C9.661 30.1892 9.661 31.1117 9.661 32C9.661 35.262 10.3035 38.492 11.5518 41.5056C12.8 44.5192 14.6297 47.2575 16.9362 49.564C21.5945 54.2222 27.9124 56.8392 34.5002 56.8392C38.0877 56.8392 41.5385 56.0534 44.6477 54.6525C46.5952 58.3767 47.4835 60.2217 47.4152 60.2217C41.8118 62.1009 37.4727 63.0234 34.5002 63.0234C26.2318 63.0234 18.3393 59.7775 12.531 53.935C8.99491 50.4156 6.36825 46.0887 4.87766 41.3275H0.333496V25.7817H4.05766C5.18599 20.2895 7.7801 15.2051 11.5647 11.0681C15.3494 6.93118 20.1833 3.89593 25.5537 2.28447C30.9241 0.672999 36.6306 0.545428 42.0676 1.91529C47.5047 3.28515 52.4694 6.10134 56.4352 10.065C60.7394 14.3549 63.6761 19.824 64.8743 25.7817H68.6668V41.3275H68.4618L56.2985 52.5L38.1902 50.45V44.7442H54.6927L57.4602 41.43ZM25.1727 31.2142C26.1977 31.2142 27.1885 31.6242 27.906 32.3759C28.6271 33.1028 29.0317 34.0853 29.0317 35.1092C29.0317 36.1331 28.6271 37.1156 27.906 37.8425C27.1885 38.56 26.1977 38.97 25.1727 38.97C23.0202 38.97 21.2777 37.2617 21.2777 35.1092C21.2777 32.9567 23.0202 31.2142 25.1727 31.2142ZM43.7935 31.2142C45.946 31.2142 47.6543 32.9567 47.6543 35.1092C47.6543 37.2617 45.946 38.97 43.7935 38.97C41.641 38.97 39.8985 37.2617 39.8985 35.1092C39.8985 34.0762 40.3089 33.0855 41.0393 32.355C41.7698 31.6246 42.7605 31.2142 43.7935 31.2142Z" fill="#E1DFF3"/>
</svg>
