<svg width="23" height="22" viewBox="0 0 23 22" fill="none" xmlns="http://www.w3.org/2000/svg">
<path d="M22.5591 15.609C22.5591 19.613 20.1721 22 16.1681 22H14.8591C14.2541 22 13.7591 21.505 13.7591 20.9V14.553C13.7591 14.256 14.0011 14.003 14.2981 14.003L16.2341 13.97C16.3881 13.959 16.5201 13.849 16.5531 13.695L16.9381 11.594C16.9711 11.396 16.8171 11.209 16.6081 11.209L14.2651 11.242C13.9571 11.242 13.7151 11 13.7041 10.703L13.6601 8.008C13.6601 7.832 13.8031 7.67801 13.9901 7.67801L16.6301 7.634C16.8171 7.634 16.9601 7.49101 16.9601 7.30401L16.9161 4.66399C16.9161 4.47699 16.7731 4.334 16.5861 4.334L13.6161 4.37801C11.7901 4.41101 10.3381 5.907 10.3711 7.733L10.4261 10.758C10.4371 11.066 10.1951 11.308 9.88708 11.319L8.56708 11.341C8.38008 11.341 8.23709 11.484 8.23709 11.671L8.27009 13.761C8.27009 13.948 8.41308 14.091 8.60008 14.091L9.92008 14.069C10.2281 14.069 10.4701 14.311 10.4811 14.608L10.5801 20.878C10.5911 21.494 10.0961 22 9.48008 22H6.95008C2.94608 22 0.559082 19.613 0.559082 15.598V6.391C0.559082 2.387 2.94608 0 6.95008 0H16.1681C20.1721 0 22.5591 2.387 22.5591 6.391V15.609Z" fill="#E1DFF3"/>
</svg>
