<svg width="22" height="23" viewBox="0 0 22 23" fill="none" xmlns="http://www.w3.org/2000/svg">
<path d="M15.7899 4.95057C16.3334 4.95057 16.8547 4.73466 17.239 4.35032C17.6234 3.96599 17.8393 3.44472 17.8393 2.90119C17.8393 2.35766 17.6234 1.83639 17.239 1.45206C16.8547 1.06772 16.3334 0.851807 15.7899 0.851807C15.2464 0.851807 14.7251 1.06772 14.3408 1.45206C13.9564 1.83639 13.7405 2.35766 13.7405 2.90119C13.7405 3.44472 13.9564 3.96599 14.3408 4.35032C14.7251 4.73466 15.2464 4.95057 15.7899 4.95057ZM12.101 19.1938L13.1257 14.6851L15.2776 16.7345V22.8827H17.3269V15.1975L15.1751 13.1481L15.7899 10.074C16.492 10.8785 17.3583 11.5234 18.3304 11.9653C19.3025 12.4071 20.3579 12.6358 21.4257 12.6358V10.5864C19.6223 10.6171 17.9418 9.6744 17.0195 8.12712L15.9948 6.48761C15.626 5.87279 14.9702 5.46292 14.2529 5.46292C13.9455 5.46292 13.7405 5.56539 13.4331 5.56539L8.10472 7.81971V12.6358H10.1541V9.15181L11.9986 8.43452L10.359 16.7345L5.33806 15.7098L4.92818 17.7592L12.101 19.1938ZM2.98127 8.53699C2.7095 8.53699 2.44887 8.42903 2.2567 8.23687C2.06453 8.0447 1.95658 7.78407 1.95658 7.5123C1.95658 7.24054 2.06453 6.9799 2.2567 6.78773C2.44887 6.59557 2.7095 6.48761 2.98127 6.48761H6.05534V8.53699H2.98127ZM4.00596 4.43823C3.73419 4.43823 3.47356 4.33027 3.28139 4.1381C3.08923 3.94593 2.98127 3.6853 2.98127 3.41354C2.98127 3.14177 3.08923 2.88114 3.28139 2.68897C3.47356 2.4968 3.73419 2.38884 4.00596 2.38884H9.12942V4.43823H4.00596ZM1.95658 12.6358C1.68481 12.6358 1.42418 12.5278 1.23201 12.3356C1.03984 12.1435 0.931885 11.8828 0.931885 11.6111C0.931885 11.3393 1.03984 11.0787 1.23201 10.8865C1.42418 10.6943 1.68481 10.5864 1.95658 10.5864H6.05534V12.6358H1.95658Z" fill="#E1DFF3"/>
</svg>
