<svg width="45" height="36" viewBox="0 0 45 36" fill="none" xmlns="http://www.w3.org/2000/svg">
<rect x="0.648438" width="44.3077" height="36" rx="11.0769" fill="#34EBE1"/>
<path d="M28.3419 21.8078C28.6086 21.8079 28.865 21.9106 29.0581 22.0947C29.2511 22.2787 29.3659 22.53 29.3787 22.7963C29.3915 23.0627 29.3014 23.3238 29.1269 23.5255C28.9525 23.7273 28.7071 23.8541 28.4416 23.8799L28.3419 23.8847H17.265C16.9983 23.8846 16.7419 23.7818 16.5489 23.5978C16.3559 23.4138 16.2411 23.1625 16.2283 22.8962C16.2155 22.6298 16.3056 22.3687 16.4801 22.167C16.6545 21.9652 16.8999 21.8384 17.1653 21.8126L17.265 21.8078H28.3419ZM28.3419 16.9616C28.6174 16.9616 28.8815 17.071 29.0762 17.2658C29.271 17.4605 29.3804 17.7247 29.3804 18.0001C29.3804 18.2755 29.271 18.5396 29.0762 18.7344C28.8815 18.9291 28.6174 19.0386 28.3419 19.0386H17.265C16.9896 19.0386 16.7255 18.9291 16.5307 18.7344C16.336 18.5396 16.2266 18.2755 16.2266 18.0001C16.2266 17.7247 16.336 17.4605 16.5307 17.2658C16.7255 17.071 16.9896 16.9616 17.265 16.9616H28.3419ZM28.3419 12.1155C28.6174 12.1155 28.8815 12.2249 29.0762 12.4196C29.271 12.6144 29.3804 12.8785 29.3804 13.1539C29.3804 13.4294 29.271 13.6935 29.0762 13.8882C28.8815 14.083 28.6174 14.1924 28.3419 14.1924H17.265C16.9896 14.1924 16.7255 14.083 16.5307 13.8882C16.336 13.6935 16.2266 13.4294 16.2266 13.1539C16.2266 12.8785 16.336 12.6144 16.5307 12.4196C16.7255 12.2249 16.9896 12.1155 17.265 12.1155H28.3419Z" fill="#120D2D"/>
</svg>
