<svg width="29" height="28" viewBox="0 0 29 28" fill="none" xmlns="http://www.w3.org/2000/svg">
<path fill-rule="evenodd" clip-rule="evenodd" d="M6.94848 18.1579C7.11843 18.378 7.19412 18.6565 7.15895 18.9323C7.12378 19.2082 6.98062 19.4588 6.76088 19.6292C6.2496 20.0219 5.85723 20.5487 5.62738 21.151C5.39753 21.7533 5.3392 22.4076 5.45888 23.0411C5.66608 23.0803 5.87981 23.0999 6.10008 23.0999C7.22708 23.0999 8.22808 22.5679 8.87068 21.7391C8.95409 21.6273 9.05892 21.5333 9.17904 21.4626C9.29917 21.3918 9.43218 21.3456 9.57033 21.3268C9.70848 21.308 9.84899 21.3169 9.98367 21.353C10.1184 21.389 10.2445 21.4516 10.3548 21.5369C10.465 21.6222 10.5572 21.7287 10.6258 21.85C10.6945 21.9713 10.7383 22.1051 10.7548 22.2436C10.7712 22.3821 10.7598 22.5224 10.7214 22.6564C10.683 22.7905 10.6183 22.9155 10.5311 23.0242C9.81363 23.9548 8.82133 24.6358 7.69499 24.9705C6.56865 25.3053 5.3655 25.2767 4.25628 24.8891C4.10707 24.837 3.97153 24.7519 3.85978 24.6401C3.74803 24.5284 3.66295 24.3929 3.61088 24.2436C3.22209 23.1345 3.19304 21.9311 3.52784 20.8045C3.86265 19.6779 4.54426 18.6856 5.47568 17.9688C5.69588 17.7985 5.97474 17.7225 6.25093 17.7577C6.52712 17.7929 6.77803 17.9363 6.94848 18.1564" fill="#E1DFF3"/>
<path fill-rule="evenodd" clip-rule="evenodd" d="M8.5527 16.7999C9.46906 17.9738 10.526 19.0307 11.6999 19.9471V25.5499C11.6999 26.1295 12.1703 26.5999 12.7499 26.5999C13.8385 26.6001 14.9121 26.3465 15.8855 25.8591C16.8588 25.3718 17.7051 24.6641 18.3571 23.7923C19.0091 22.9206 19.4487 21.9088 19.6412 20.8374C19.8336 19.766 19.7736 18.6644 19.4657 17.6203C21.879 15.9025 23.8358 13.6207 25.1657 10.9737C26.4955 8.3267 27.1581 5.39473 27.0957 2.4331C27.0903 2.16188 26.9802 1.90326 26.7884 1.71143C26.5965 1.51961 26.3379 1.40947 26.0667 1.4041L25.6999 1.3999C19.5875 1.3999 14.1779 4.4141 10.8795 9.0341C9.83537 8.72625 8.73382 8.66616 7.6624 8.85861C6.59097 9.05105 5.57919 9.49073 4.70746 10.1427C3.83572 10.7947 3.12805 11.641 2.64068 12.6143C2.1533 13.5877 1.89966 14.6613 1.8999 15.7499C1.8999 16.3295 2.3703 16.7999 2.9499 16.7999H8.5527ZM18.6999 12.5999C19.4425 12.5999 20.1547 12.3049 20.6798 11.7798C21.2049 11.2547 21.4999 10.5425 21.4999 9.7999C21.4999 9.0573 21.2049 8.3451 20.6798 7.82C20.1547 7.2949 19.4425 6.9999 18.6999 6.9999C17.9573 6.9999 17.2451 7.2949 16.72 7.82C16.1949 8.3451 15.8999 9.0573 15.8999 9.7999C15.8999 10.5425 16.1949 11.2547 16.72 11.7798C17.2451 12.3049 17.9573 12.5999 18.6999 12.5999Z" fill="#E1DFF3"/>
</svg>
