<svg width="25" height="25" viewBox="0 0 25 25" fill="none" xmlns="http://www.w3.org/2000/svg">
<path d="M19.3242 15.439C19.6829 14.568 19.8776 13.6356 19.8776 12.6109C19.8776 11.8731 19.7649 11.1661 19.5702 10.5103C18.9041 10.664 18.2073 10.7459 17.4798 10.7459C15.9899 10.7475 14.5214 10.3909 13.1982 9.70611C11.8749 9.02131 10.7357 8.02842 9.87659 6.81113C8.95843 9.03547 7.2244 10.8245 5.0298 11.8116C4.98881 12.0678 4.98881 12.3445 4.98881 12.6109C4.98881 13.5892 5.1815 14.5579 5.55587 15.4617C5.93025 16.3655 6.47897 17.1867 7.17072 17.8785C8.56778 19.2755 10.4626 20.0604 12.4383 20.0604C13.5142 20.0604 14.5492 19.8247 15.4817 19.4046C16.0657 20.5215 16.3321 21.0748 16.3117 21.0748C14.6312 21.6384 13.3298 21.9151 12.4383 21.9151C9.95857 21.9151 7.59153 20.9416 5.84955 19.1894C4.78905 18.1339 4.00129 16.8362 3.55425 15.4083H2.19141V10.7459H3.30832C3.64672 9.09877 4.42471 7.57392 5.55976 6.3332C6.69481 5.09249 8.14456 4.18219 9.7552 3.69889C11.3658 3.2156 13.0773 3.17734 14.7079 3.58817C16.3385 3.99901 17.8275 4.84361 19.0168 6.03236C20.3077 7.31894 21.1885 8.95917 21.5478 10.7459H22.6852V15.4083H22.6238L18.9758 18.759L13.545 18.1442V16.433H18.4942L19.3242 15.439ZM9.64091 12.3752C9.94832 12.3752 10.2455 12.4982 10.4607 12.7236C10.6769 12.9416 10.7983 13.2363 10.7983 13.5434C10.7983 13.8504 10.6769 14.1451 10.4607 14.3631C10.2455 14.5783 9.94832 14.7013 9.64091 14.7013C8.99536 14.7013 8.47276 14.1889 8.47276 13.5434C8.47276 12.8978 8.99536 12.3752 9.64091 12.3752ZM15.2255 12.3752C15.871 12.3752 16.3834 12.8978 16.3834 13.5434C16.3834 14.1889 15.871 14.7013 15.2255 14.7013C14.5799 14.7013 14.0573 14.1889 14.0573 13.5434C14.0573 13.2335 14.1804 12.9364 14.3995 12.7173C14.6185 12.4983 14.9157 12.3752 15.2255 12.3752Z" fill="#E1DFF3"/>
</svg>
