<svg width="83" height="82" viewBox="0 0 83 82" fill="none" xmlns="http://www.w3.org/2000/svg">
<rect x="0.5" width="82" height="82" rx="41" fill="#120D2D"/>
<path d="M56.8752 18.7917C58.6875 18.7917 60.4256 18.0717 61.7071 16.7902C62.9886 15.5087 63.7085 13.7706 63.7085 11.9583C63.7085 10.146 62.9886 8.40794 61.7071 7.12644C60.4256 5.84494 58.6875 5.125 56.8752 5.125C55.0628 5.125 53.3248 5.84494 52.0433 7.12644C50.7618 8.40794 50.0418 10.146 50.0418 11.9583C50.0418 13.7706 50.7618 15.5087 52.0433 16.7902C53.3248 18.0717 55.0628 18.7917 56.8752 18.7917ZM44.5752 66.2833L47.9918 51.25L55.1668 58.0833V78.5833H62.0002V52.9583L54.8252 46.125L56.8752 35.875C59.2163 38.5575 62.1046 40.7077 65.3459 42.1811C68.5872 43.6544 72.1064 44.4167 75.6668 44.4167V37.5833C69.6535 37.6858 64.0502 34.5425 60.9752 29.3833L57.5585 23.9167C56.3285 21.8667 54.1418 20.5 51.7502 20.5C50.7252 20.5 50.0418 20.8417 49.0168 20.8417L31.2502 28.3583V44.4167H38.0835V32.8L44.2335 30.4083L38.7668 58.0833L22.0252 54.6667L20.6585 61.5L44.5752 66.2833ZM14.1668 30.75C13.2607 30.75 12.3916 30.39 11.7509 29.7493C11.1101 29.1085 10.7502 28.2395 10.7502 27.3333C10.7502 26.4272 11.1101 25.5581 11.7509 24.9174C12.3916 24.2766 13.2607 23.9167 14.1668 23.9167H24.4168V30.75H14.1668ZM17.5835 17.0833C16.6773 17.0833 15.8083 16.7234 15.1675 16.0826C14.5268 15.4419 14.1668 14.5728 14.1668 13.6667C14.1668 12.7605 14.5268 11.8915 15.1675 11.2507C15.8083 10.61 16.6773 10.25 17.5835 10.25H34.6668V17.0833H17.5835ZM10.7502 44.4167C9.84401 44.4167 8.97496 44.0567 8.33421 43.4159C7.69347 42.7752 7.3335 41.9062 7.3335 41C7.3335 40.0938 7.69347 39.2248 8.33421 38.584C8.97496 37.9433 9.84401 37.5833 10.7502 37.5833H24.4168V44.4167H10.7502Z" fill="#E1DFF3"/>
</svg>
