<svg width="1440" height="308" viewBox="0 0 1440 308" fill="none" xmlns="http://www.w3.org/2000/svg">
<path d="M53.904 307.088C23.9413 307.088 -2.62933 300.587 -25.808 287.584C-48.704 274.299 -66.6533 256.208 -79.656 233.312C-92.6587 210.133 -99.16 183.704 -99.16 154.024C-99.16 123.779 -92.6587 97.208 -79.656 74.312C-66.6533 51.1333 -48.8453 33.0427 -26.232 20.04C-3.33599 7.03732 22.952 0.535989 52.632 0.535989C82.5947 0.535989 108.883 7.17865 131.496 20.464C154.392 33.4667 172.341 51.5573 185.344 74.736C198.347 97.632 204.848 124.061 204.848 154.024C204.848 183.704 198.347 210.133 185.344 233.312C172.624 256.208 154.816 274.299 131.92 287.584C109.307 300.587 83.3013 307.088 53.904 307.088ZM53.904 254.088C71.9947 254.088 87.824 249.848 101.392 241.368C115.243 232.605 125.984 220.733 133.616 205.752C141.531 190.771 145.488 173.528 145.488 154.024C145.488 134.237 141.531 116.853 133.616 101.872C125.701 86.8907 114.819 75.16 100.968 66.68C87.1173 57.9173 71.0053 53.536 52.632 53.536C34.824 53.536 18.8533 57.9173 4.72 66.68C-9.13066 75.16 -20.0133 86.8907 -27.928 101.872C-35.8427 116.853 -39.8 134.237 -39.8 154.024C-39.8 173.528 -35.8427 190.771 -27.928 205.752C-20.0133 220.733 -8.98933 232.605 5.14401 241.368C19.2773 249.848 35.5307 254.088 53.904 254.088ZM286.726 226.952L279.942 154.024L419.014 5.19998H494.062L286.726 226.952ZM251.958 302V5.19998H309.198V302H251.958ZM427.07 302L308.774 151.056L350.75 116.288L498.726 302H427.07ZM534.349 302V5.19998H644.589C665.506 5.19998 684.021 9.29865 700.133 17.496C716.245 25.6933 728.824 37 737.869 51.416C746.914 65.5493 751.437 82.0853 751.437 101.024C751.437 119.68 746.632 136.357 737.021 151.056C727.693 165.472 714.832 176.779 698.437 184.976C682.042 192.891 663.386 196.848 642.469 196.848H592.437V302H534.349ZM697.589 302L628.901 182.856L673.421 151.056L763.309 302H697.589ZM592.437 143.848H645.013C653.776 143.848 661.549 142.011 668.333 138.336C675.4 134.661 680.912 129.573 684.869 123.072C689.109 116.571 691.229 109.221 691.229 101.024C691.229 88.304 686.565 77.9866 677.237 70.072C668.192 62.1573 656.461 58.2 642.045 58.2H592.437V143.848ZM939.918 179.464L885.222 165.472L980.622 5.19998H1046.77L939.918 179.464ZM883.526 302V159.536H941.614V302H883.526ZM885.222 179.464L778.374 5.19998H844.518L939.918 165.472L885.222 179.464ZM1082.15 302V5.19998H1192.39C1213.31 5.19998 1231.83 9.43998 1247.94 17.92C1264.05 26.1173 1276.63 37.7067 1285.67 52.688C1294.72 67.3867 1299.24 84.488 1299.24 103.992C1299.24 123.213 1294.86 140.315 1286.1 155.296C1277.34 170.277 1265.32 182.149 1250.06 190.912C1234.79 199.392 1217.13 203.632 1197.06 203.632H1140.24V302H1082.15ZM1140.24 150.208H1195.79C1208.79 150.208 1219.39 145.968 1227.59 137.488C1236.07 128.725 1240.31 117.56 1240.31 103.992C1240.31 90.424 1235.64 79.4 1226.31 70.92C1217.27 62.44 1205.54 58.2 1191.12 58.2H1140.24V150.208ZM1400.38 302V58.2H1311.34V5.19998H1547.09V58.2H1458.47V302H1400.38Z" fill="#000D1F"/>
</svg>
