<svg width="48" height="48" viewBox="0 0 48 48" fill="none" xmlns="http://www.w3.org/2000/svg">
<g clip-path="url(#clip0_857_17801)">
<path d="M36.2973 46.4248H11.1893C5.88312 46.4248 1.5813 42.1229 1.5813 36.8168V11.7088C1.5813 6.40265 5.88312 2.10083 11.1893 2.10083H36.2973C41.6034 2.10083 45.9052 6.40265 45.9052 11.7088V36.8168C45.9052 42.1229 41.6034 46.4248 36.2973 46.4248Z" fill="#5F4FA1"/>
<path d="M17.9767 24.7615L17.7886 24.9496C17.2943 25.4475 16.4949 25.4523 15.997 24.958L14.7756 23.7511C14.2801 23.2592 14.2753 22.4575 14.7672 21.9595L16.683 20.0256L17.7549 23.9525L17.9767 24.7615Z" fill="white"/>
<path d="M26.3016 29.5538L21.0148 34.8888C20.4011 35.5098 19.4004 35.5122 18.7795 34.8985L18.0078 34.1329C17.3869 33.5192 17.3821 32.5161 17.9958 31.8976L21.5537 28.3047L22.3627 28.5181L26.3016 29.5538Z" fill="white"/>
<path d="M32.9921 20.9659L31.7165 16.2987C31.4754 15.4101 30.7761 14.7193 29.8863 14.4854L25.2059 13.2544C24.3161 13.0205 23.366 13.2785 22.7198 13.9332L19.315 17.3718C18.6664 18.0252 18.4156 18.9765 18.6591 19.8639L19.5597 23.1638L19.9347 24.5322C20.1758 25.422 20.8751 26.1141 21.7649 26.3455L23.137 26.7072L26.4453 27.5753C27.3351 27.8092 28.2827 27.5512 28.9314 26.8965L31.4669 24.3369C31.4766 24.3273 31.4874 24.3164 31.4959 24.3068L32.3362 23.4592C32.9848 22.8033 33.2356 21.8532 32.9921 20.9659ZM28.9591 21.8798L27.3206 23.5339C27.0084 23.8486 26.5526 23.9728 26.1234 23.8619L25.9908 23.8257L23.87 23.2687C23.4432 23.1554 23.1068 22.8226 22.9899 22.3958L22.4136 20.2822L22.3774 20.1508C22.2604 19.7228 22.3798 19.2647 22.6921 18.95L24.3306 17.2958C24.4511 17.1752 24.5946 17.0812 24.7477 17.0173C24.9925 16.9196 25.265 16.9004 25.5278 16.9679L27.7788 17.5611C28.208 17.6744 28.5444 18.0072 28.6613 18.434L29.2738 20.6789C29.2943 20.7513 29.3076 20.8248 29.3124 20.8983C29.3449 21.2576 29.2183 21.6181 28.9591 21.8798Z" fill="white"/>
</g>
<defs>
<clipPath id="clip0_857_17801">
<rect width="47.3972" height="48" fill="white"/>
</clipPath>
</defs>
</svg>
