<svg width="25" height="25" viewBox="0 0 25 25" fill="none" xmlns="http://www.w3.org/2000/svg">
<path d="M14.3551 12.4951L1.56959 23.9996C0.891319 23.5228 0.495624 22.7824 0.500533 21.9988V3.01148C0.495727 2.2279 0.891319 1.48736 1.56959 1.01074L14.3551 12.4951Z" fill="#2196F3"/>
<path d="M24.5005 12.4951C24.5006 13.4056 23.9674 14.2461 23.1041 14.6959L19.0896 16.7367L14.355 12.4951L19.0895 8.25342L23.104 10.3142C23.9619 10.7594 24.4946 11.5913 24.5005 12.4951Z" fill="#FFC107"/>
<path d="M19.0897 16.7365L4.51505 24.1994C4.11137 24.3945 3.66229 24.4975 3.20595 24.4995C2.72874 24.5078 2.25911 24.3896 1.85318 24.1593C1.75572 24.1104 1.66101 24.057 1.56958 23.9992L14.3552 12.4949L19.0897 16.7365Z" fill="#F44336"/>
<path d="M19.0896 8.25342L14.355 12.495L1.56958 1.01062C1.66111 0.952843 1.75572 0.899385 1.85318 0.850523C2.66769 0.397912 3.68479 0.382625 4.51505 0.810476L19.0896 8.25342Z" fill="#4CAF50"/>
</svg>
