<svg width="20" height="21" viewBox="0 0 20 21" fill="none" xmlns="http://www.w3.org/2000/svg">
<g clip-path="url(#clip0_857_16458)">
<path d="M16.6973 4.74643L11.5288 2.32702C10.6118 1.90987 9.44475 1.90987 8.52775 2.32702L3.35934 4.74643C2.19228 5.33043 1.52538 6.66528 1.6921 8.00013C2.10892 10.7532 3.44271 15.9258 8.19434 19.7635C8.77792 20.1807 9.44475 20.3475 10.0283 20.3475C10.6118 20.3475 11.2788 20.0972 11.7789 19.6801C16.5306 15.8424 17.9477 10.6698 18.2812 7.9167C18.5313 6.66528 17.8643 5.33043 16.6973 4.74643Z" fill="#E1DFF3"/>
<path d="M9.58321 13.8474C9.33321 13.8474 9.08321 13.7641 8.91655 13.5141L6.66655 10.7641C6.33321 10.4308 6.41655 9.84745 6.74988 9.59745C7.08321 9.26411 7.66655 9.34745 7.91655 9.68078L9.58321 11.6808L13.0832 7.43079C13.4165 7.09745 13.9165 7.01412 14.2499 7.34745C14.5832 7.68079 14.6665 8.18079 14.3332 8.51412L10.1665 13.5141C10.0832 13.7641 9.83321 13.8474 9.58321 13.8474Z" fill="#120D2D"/>
</g>
<defs>
<clipPath id="clip0_857_16458">
<rect width="20" height="20" fill="white" transform="translate(0 0.367676)"/>
</clipPath>
</defs>
</svg>
