<svg width="1441" height="671" viewBox="0 0 1441 671" fill="none" xmlns="http://www.w3.org/2000/svg">
<path d="M-192.88 116.32C-200.36 116.32 -206.997 114.633 -212.79 111.26C-218.583 107.887 -223.13 103.193 -226.43 97.18C-229.657 91.1667 -231.27 84.2733 -231.27 76.5C-231.27 68.7267 -229.657 61.87 -226.43 55.93C-223.13 49.9167 -218.62 45.2233 -212.9 41.85C-207.18 38.4033 -200.58 36.68 -193.1 36.68C-185.62 36.68 -179.02 38.4033 -173.3 41.85C-167.58 45.2233 -163.107 49.9167 -159.88 55.93C-156.653 61.87 -155.04 68.7267 -155.04 76.5C-155.04 84.2733 -156.653 91.1667 -159.88 97.18C-163.107 103.193 -167.58 107.887 -173.3 111.26C-178.947 114.633 -185.473 116.32 -192.88 116.32ZM-192.88 106.42C-187.6 106.42 -182.943 105.137 -178.91 102.57C-174.877 100.003 -171.723 96.4833 -169.45 92.01C-167.177 87.5367 -166.04 82.3667 -166.04 76.5C-166.04 70.7067 -167.213 65.5733 -169.56 61.1C-171.833 56.5533 -175.023 52.9967 -179.13 50.43C-183.163 47.8633 -187.82 46.58 -193.1 46.58C-198.38 46.58 -203.073 47.8633 -207.18 50.43C-211.287 52.9967 -214.513 56.5533 -216.86 61.1C-219.133 65.5733 -220.27 70.7067 -220.27 76.5C-220.27 82.3667 -219.097 87.5367 -216.75 92.01C-214.403 96.4833 -211.177 100.003 -207.07 102.57C-202.89 105.137 -198.16 106.42 -192.88 106.42ZM-133.447 90.58L-136.637 79.14L-97.3673 38H-83.6173L-133.447 90.58ZM-140.487 115V38H-130.037V115H-140.487ZM-95.4973 115L-126.847 75.84L-119.477 69.02L-82.1873 115H-95.4973ZM-71.7373 115V38H-45.7773C-40.644 38 -36.134 39.0267 -32.2473 41.08C-28.2873 43.06 -25.2073 45.8467 -23.0073 49.44C-20.734 52.96 -19.5973 57.0667 -19.5973 61.76C-19.5973 66.38 -20.8073 70.4867 -23.2273 74.08C-25.574 77.6733 -28.8007 80.4967 -32.9073 82.55C-37.014 84.53 -41.634 85.52 -46.7673 85.52H-60.9573V115H-71.7373ZM-28.7273 115L-46.9873 83.54L-38.4073 77.82L-16.5173 115H-28.7273ZM-60.9573 75.62H-44.7873C-42.1473 75.62 -39.8007 75.0333 -37.7473 73.86C-35.6207 72.6133 -33.934 70.9633 -32.6873 68.91C-31.3673 66.7833 -30.7073 64.4 -30.7073 61.76C-30.7073 57.6533 -32.1373 54.3167 -34.9973 51.75C-37.8573 49.1833 -41.5607 47.9 -46.1073 47.9H-60.9573V75.62ZM27.0272 82.99L17.2372 79.25L42.2072 38H54.7472L27.0272 82.99ZM16.3572 115V78.04H27.2472V115H16.3572ZM16.5772 82.99L-11.1428 38H1.28719L26.2572 79.25L16.5772 82.99ZM65.4404 115V38H91.4004C96.5337 38 101.044 39.0633 104.93 41.19C108.89 43.2433 111.97 46.14 114.17 49.88C116.444 53.5467 117.58 57.8367 117.58 62.75C117.58 67.5167 116.554 71.77 114.5 75.51C112.447 79.25 109.587 82.1833 105.92 84.31C102.327 86.4367 98.1837 87.5 93.4904 87.5H76.2204V115H65.4404ZM76.2204 77.49H93.3804C97.2671 77.49 100.457 76.1333 102.95 73.42C105.444 70.6333 106.69 67.0767 106.69 62.75C106.69 58.2767 105.224 54.6833 102.29 51.97C99.4304 49.2567 95.7637 47.9 91.2904 47.9H76.2204V77.49ZM145.514 115V47.9H121.424V38H180.494V47.9H156.404V115H145.514ZM251.189 116.32C243.856 116.32 237.329 114.633 231.609 111.26C225.889 107.813 221.416 103.12 218.189 97.18C214.962 91.1667 213.349 84.2733 213.349 76.5C213.349 68.7267 214.962 61.87 218.189 55.93C221.416 49.9167 225.852 45.2233 231.499 41.85C237.146 38.4033 243.636 36.68 250.969 36.68C255.736 36.68 260.282 37.56 264.609 39.32C268.936 41.0067 272.786 43.39 276.159 46.47C279.606 49.4767 282.246 52.9967 284.079 57.03L274.399 61.43C273.006 58.4233 271.099 55.82 268.679 53.62C266.259 51.42 263.509 49.6967 260.429 48.45C257.422 47.2033 254.269 46.58 250.969 46.58C245.836 46.58 241.252 47.8633 237.219 50.43C233.186 52.9967 230.032 56.5167 227.759 60.99C225.486 65.4633 224.349 70.6333 224.349 76.5C224.349 82.3667 225.486 87.5733 227.759 92.12C230.106 96.6667 233.296 100.223 237.329 102.79C241.436 105.283 246.092 106.53 251.299 106.53C254.672 106.53 257.862 105.87 260.869 104.55C263.876 103.157 266.552 101.287 268.899 98.94C271.319 96.52 273.262 93.77 274.729 90.69L284.409 94.98C282.576 99.16 279.972 102.863 276.599 106.09C273.226 109.317 269.339 111.847 264.939 113.68C260.612 115.44 256.029 116.32 251.189 116.32ZM297.794 115V38H323.754C328.887 38 333.397 39.0267 337.284 41.08C341.244 43.06 344.324 45.8467 346.524 49.44C348.797 52.96 349.934 57.0667 349.934 61.76C349.934 66.38 348.724 70.4867 346.304 74.08C343.957 77.6733 340.731 80.4967 336.624 82.55C332.517 84.53 327.897 85.52 322.764 85.52H308.574V115H297.794ZM340.804 115L322.544 83.54L331.124 77.82L353.014 115H340.804ZM308.574 75.62H324.744C327.384 75.62 329.731 75.0333 331.784 73.86C333.911 72.6133 335.597 70.9633 336.844 68.91C338.164 66.7833 338.824 64.4 338.824 61.76C338.824 57.6533 337.394 54.3167 334.534 51.75C331.674 49.1833 327.971 47.9 323.424 47.9H308.574V75.62ZM396.558 82.99L386.768 79.25L411.738 38H424.278L396.558 82.99ZM385.888 115V78.04H396.778V115H385.888ZM386.108 82.99L358.388 38H370.818L395.788 79.25L386.108 82.99ZM434.972 115V38H460.932C466.065 38 470.575 39.0633 474.462 41.19C478.422 43.2433 481.502 46.14 483.702 49.88C485.975 53.5467 487.112 57.8367 487.112 62.75C487.112 67.5167 486.085 71.77 484.032 75.51C481.978 79.25 479.118 82.1833 475.452 84.31C471.858 86.4367 467.715 87.5 463.022 87.5H445.752V115H434.972ZM445.752 77.49H462.912C466.798 77.49 469.988 76.1333 472.482 73.42C474.975 70.6333 476.222 67.0767 476.222 62.75C476.222 58.2767 474.755 54.6833 471.822 51.97C468.962 49.2567 465.295 47.9 460.822 47.9H445.752V77.49ZM515.045 115V47.9H490.955V38H550.025V47.9H525.935V115H515.045ZM594.415 116.32C586.935 116.32 580.298 114.633 574.505 111.26C568.712 107.887 564.165 103.193 560.865 97.18C557.638 91.1667 556.025 84.2733 556.025 76.5C556.025 68.7267 557.638 61.87 560.865 55.93C564.165 49.9167 568.675 45.2233 574.395 41.85C580.115 38.4033 586.715 36.68 594.195 36.68C601.675 36.68 608.275 38.4033 613.995 41.85C619.715 45.2233 624.188 49.9167 627.415 55.93C630.642 61.87 632.255 68.7267 632.255 76.5C632.255 84.2733 630.642 91.1667 627.415 97.18C624.188 103.193 619.715 107.887 613.995 111.26C608.348 114.633 601.822 116.32 594.415 116.32ZM594.415 106.42C599.695 106.42 604.352 105.137 608.385 102.57C612.418 100.003 615.572 96.4833 617.845 92.01C620.118 87.5367 621.255 82.3667 621.255 76.5C621.255 70.7067 620.082 65.5733 617.735 61.1C615.462 56.5533 612.272 52.9967 608.165 50.43C604.132 47.8633 599.475 46.58 594.195 46.58C588.915 46.58 584.222 47.8633 580.115 50.43C576.008 52.9967 572.782 56.5533 570.435 61.1C568.162 65.5733 567.025 70.7067 567.025 76.5C567.025 82.3667 568.198 87.5367 570.545 92.01C572.892 96.4833 576.118 100.003 580.225 102.57C584.405 105.137 589.135 106.42 594.415 106.42Z" fill="#011528"/>
<path d="M691.12 116.32C683.64 116.32 677.003 114.633 671.21 111.26C665.417 107.887 660.87 103.193 657.57 97.18C654.343 91.1667 652.73 84.2733 652.73 76.5C652.73 68.7267 654.343 61.87 657.57 55.93C660.87 49.9167 665.38 45.2233 671.1 41.85C676.82 38.4033 683.42 36.68 690.9 36.68C698.38 36.68 704.98 38.4033 710.7 41.85C716.42 45.2233 720.893 49.9167 724.12 55.93C727.347 61.87 728.96 68.7267 728.96 76.5C728.96 84.2733 727.347 91.1667 724.12 97.18C720.893 103.193 716.42 107.887 710.7 111.26C705.053 114.633 698.527 116.32 691.12 116.32ZM691.12 106.42C696.4 106.42 701.057 105.137 705.09 102.57C709.123 100.003 712.277 96.4833 714.55 92.01C716.823 87.5367 717.96 82.3667 717.96 76.5C717.96 70.7067 716.787 65.5733 714.44 61.1C712.167 56.5533 708.977 52.9967 704.87 50.43C700.837 47.8633 696.18 46.58 690.9 46.58C685.62 46.58 680.927 47.8633 676.82 50.43C672.713 52.9967 669.487 56.5533 667.14 61.1C664.867 65.5733 663.73 70.7067 663.73 76.5C663.73 82.3667 664.903 87.5367 667.25 92.01C669.597 96.4833 672.823 100.003 676.93 102.57C681.11 105.137 685.84 106.42 691.12 106.42ZM750.553 90.58L747.363 79.14L786.633 38H800.383L750.553 90.58ZM743.513 115V38H753.963V115H743.513ZM788.503 115L757.153 75.84L764.523 69.02L801.813 115H788.503ZM812.263 115V38H838.223C843.356 38 847.866 39.0267 851.753 41.08C855.713 43.06 858.793 45.8467 860.993 49.44C863.266 52.96 864.403 57.0667 864.403 61.76C864.403 66.38 863.193 70.4867 860.773 74.08C858.426 77.6733 855.199 80.4967 851.093 82.55C846.986 84.53 842.366 85.52 837.233 85.52H823.043V115H812.263ZM855.273 115L837.013 83.54L845.593 77.82L867.483 115H855.273ZM823.043 75.62H839.213C841.853 75.62 844.199 75.0333 846.253 73.86C848.379 72.6133 850.066 70.9633 851.313 68.91C852.633 66.7833 853.293 64.4 853.293 61.76C853.293 57.6533 851.863 54.3167 849.003 51.75C846.143 49.1833 842.439 47.9 837.893 47.9H823.043V75.62ZM911.027 82.99L901.237 79.25L926.207 38H938.747L911.027 82.99ZM900.357 115V78.04H911.247V115H900.357ZM900.577 82.99L872.857 38H885.287L910.257 79.25L900.577 82.99ZM949.44 115V38H975.4C980.534 38 985.044 39.0633 988.93 41.19C992.89 43.2433 995.97 46.14 998.17 49.88C1000.44 53.5467 1001.58 57.8367 1001.58 62.75C1001.58 67.5167 1000.55 71.77 998.5 75.51C996.447 79.25 993.587 82.1833 989.92 84.31C986.327 86.4367 982.184 87.5 977.49 87.5H960.22V115H949.44ZM960.22 77.49H977.38C981.267 77.49 984.457 76.1333 986.95 73.42C989.444 70.6333 990.69 67.0767 990.69 62.75C990.69 58.2767 989.224 54.6833 986.29 51.97C983.43 49.2567 979.764 47.9 975.29 47.9H960.22V77.49ZM1029.51 115V47.9H1005.42V38H1064.49V47.9H1040.4V115H1029.51ZM1135.19 116.32C1127.86 116.32 1121.33 114.633 1115.61 111.26C1109.89 107.813 1105.42 103.12 1102.19 97.18C1098.96 91.1667 1097.35 84.2733 1097.35 76.5C1097.35 68.7267 1098.96 61.87 1102.19 55.93C1105.42 49.9167 1109.85 45.2233 1115.5 41.85C1121.15 38.4033 1127.64 36.68 1134.97 36.68C1139.74 36.68 1144.28 37.56 1148.61 39.32C1152.94 41.0067 1156.79 43.39 1160.16 46.47C1163.61 49.4767 1166.25 52.9967 1168.08 57.03L1158.4 61.43C1157.01 58.4233 1155.1 55.82 1152.68 53.62C1150.26 51.42 1147.51 49.6967 1144.43 48.45C1141.42 47.2033 1138.27 46.58 1134.97 46.58C1129.84 46.58 1125.25 47.8633 1121.22 50.43C1117.19 52.9967 1114.03 56.5167 1111.76 60.99C1109.49 65.4633 1108.35 70.6333 1108.35 76.5C1108.35 82.3667 1109.49 87.5733 1111.76 92.12C1114.11 96.6667 1117.3 100.223 1121.33 102.79C1125.44 105.283 1130.09 106.53 1135.3 106.53C1138.67 106.53 1141.86 105.87 1144.87 104.55C1147.88 103.157 1150.55 101.287 1152.9 98.94C1155.32 96.52 1157.26 93.77 1158.73 90.69L1168.41 94.98C1166.58 99.16 1163.97 102.863 1160.6 106.09C1157.23 109.317 1153.34 111.847 1148.94 113.68C1144.61 115.44 1140.03 116.32 1135.19 116.32ZM1181.79 115V38H1207.75C1212.89 38 1217.4 39.0267 1221.28 41.08C1225.24 43.06 1228.32 45.8467 1230.52 49.44C1232.8 52.96 1233.93 57.0667 1233.93 61.76C1233.93 66.38 1232.72 70.4867 1230.3 74.08C1227.96 77.6733 1224.73 80.4967 1220.62 82.55C1216.52 84.53 1211.9 85.52 1206.76 85.52H1192.57V115H1181.79ZM1224.8 115L1206.54 83.54L1215.12 77.82L1237.01 115H1224.8ZM1192.57 75.62H1208.74C1211.38 75.62 1213.73 75.0333 1215.78 73.86C1217.91 72.6133 1219.6 70.9633 1220.84 68.91C1222.16 66.7833 1222.82 64.4 1222.82 61.76C1222.82 57.6533 1221.39 54.3167 1218.53 51.75C1215.67 49.1833 1211.97 47.9 1207.42 47.9H1192.57V75.62ZM1280.56 82.99L1270.77 79.25L1295.74 38H1308.28L1280.56 82.99ZM1269.89 115V78.04H1280.78V115H1269.89ZM1270.11 82.99L1242.39 38H1254.82L1279.79 79.25L1270.11 82.99ZM1318.97 115V38H1344.93C1350.06 38 1354.57 39.0633 1358.46 41.19C1362.42 43.2433 1365.5 46.14 1367.7 49.88C1369.97 53.5467 1371.11 57.8367 1371.11 62.75C1371.11 67.5167 1370.08 71.77 1368.03 75.51C1365.98 79.25 1363.12 82.1833 1359.45 84.31C1355.86 86.4367 1351.71 87.5 1347.02 87.5H1329.75V115H1318.97ZM1329.75 77.49H1346.91C1350.8 77.49 1353.99 76.1333 1356.48 73.42C1358.97 70.6333 1360.22 67.0767 1360.22 62.75C1360.22 58.2767 1358.75 54.6833 1355.82 51.97C1352.96 49.2567 1349.29 47.9 1344.82 47.9H1329.75V77.49ZM1399.04 115V47.9H1374.95V38H1434.02V47.9H1409.93V115H1399.04ZM1478.41 116.32C1470.93 116.32 1464.3 114.633 1458.5 111.26C1452.71 107.887 1448.16 103.193 1444.86 97.18C1441.64 91.1667 1440.02 84.2733 1440.02 76.5C1440.02 68.7267 1441.64 61.87 1444.86 55.93C1448.16 49.9167 1452.67 45.2233 1458.39 41.85C1464.11 38.4033 1470.71 36.68 1478.19 36.68C1485.67 36.68 1492.27 38.4033 1497.99 41.85C1503.71 45.2233 1508.19 49.9167 1511.41 55.93C1514.64 61.87 1516.25 68.7267 1516.25 76.5C1516.25 84.2733 1514.64 91.1667 1511.41 97.18C1508.19 103.193 1503.71 107.887 1497.99 111.26C1492.35 114.633 1485.82 116.32 1478.41 116.32ZM1478.41 106.42C1483.69 106.42 1488.35 105.137 1492.38 102.57C1496.42 100.003 1499.57 96.4833 1501.84 92.01C1504.12 87.5367 1505.25 82.3667 1505.25 76.5C1505.25 70.7067 1504.08 65.5733 1501.73 61.1C1499.46 56.5533 1496.27 52.9967 1492.16 50.43C1488.13 47.8633 1483.47 46.58 1478.19 46.58C1472.91 46.58 1468.22 47.8633 1464.11 50.43C1460.01 52.9967 1456.78 56.5533 1454.43 61.1C1452.16 65.5733 1451.02 70.7067 1451.02 76.5C1451.02 82.3667 1452.2 87.5367 1454.54 92.01C1456.89 96.4833 1460.12 100.003 1464.22 102.57C1468.4 105.137 1473.13 106.42 1478.41 106.42Z" fill="#011528"/>
<path d="M77.12 289.32C69.64 289.32 63.0033 287.633 57.21 284.26C51.4167 280.887 46.87 276.193 43.57 270.18C40.3433 264.167 38.73 257.273 38.73 249.5C38.73 241.727 40.3433 234.87 43.57 228.93C46.87 222.917 51.38 218.223 57.1 214.85C62.82 211.403 69.42 209.68 76.9 209.68C84.38 209.68 90.98 211.403 96.7 214.85C102.42 218.223 106.893 222.917 110.12 228.93C113.347 234.87 114.96 241.727 114.96 249.5C114.96 257.273 113.347 264.167 110.12 270.18C106.893 276.193 102.42 280.887 96.7 284.26C91.0533 287.633 84.5267 289.32 77.12 289.32ZM77.12 279.42C82.4 279.42 87.0567 278.137 91.09 275.57C95.1233 273.003 98.2767 269.483 100.55 265.01C102.823 260.537 103.96 255.367 103.96 249.5C103.96 243.707 102.787 238.573 100.44 234.1C98.1667 229.553 94.9767 225.997 90.87 223.43C86.8367 220.863 82.18 219.58 76.9 219.58C71.62 219.58 66.9267 220.863 62.82 223.43C58.7133 225.997 55.4867 229.553 53.14 234.1C50.8667 238.573 49.73 243.707 49.73 249.5C49.73 255.367 50.9033 260.537 53.25 265.01C55.5967 269.483 58.8233 273.003 62.93 275.57C67.11 278.137 71.84 279.42 77.12 279.42ZM136.553 263.58L133.363 252.14L172.633 211H186.383L136.553 263.58ZM129.513 288V211H139.963V288H129.513ZM174.503 288L143.153 248.84L150.523 242.02L187.813 288H174.503ZM198.263 288V211H224.223C229.356 211 233.866 212.027 237.753 214.08C241.713 216.06 244.793 218.847 246.993 222.44C249.266 225.96 250.403 230.067 250.403 234.76C250.403 239.38 249.193 243.487 246.773 247.08C244.426 250.673 241.199 253.497 237.093 255.55C232.986 257.53 228.366 258.52 223.233 258.52H209.043V288H198.263ZM241.273 288L223.013 256.54L231.593 250.82L253.483 288H241.273ZM209.043 248.62H225.213C227.853 248.62 230.199 248.033 232.253 246.86C234.379 245.613 236.066 243.963 237.313 241.91C238.633 239.783 239.293 237.4 239.293 234.76C239.293 230.653 237.863 227.317 235.003 224.75C232.143 222.183 228.439 220.9 223.893 220.9H209.043V248.62ZM297.027 255.99L287.237 252.25L312.207 211H324.747L297.027 255.99ZM286.357 288V251.04H297.247V288H286.357ZM286.577 255.99L258.857 211H271.287L296.257 252.25L286.577 255.99ZM335.44 288V211H361.4C366.534 211 371.044 212.063 374.93 214.19C378.89 216.243 381.97 219.14 384.17 222.88C386.444 226.547 387.58 230.837 387.58 235.75C387.58 240.517 386.554 244.77 384.5 248.51C382.447 252.25 379.587 255.183 375.92 257.31C372.327 259.437 368.184 260.5 363.49 260.5H346.22V288H335.44ZM346.22 250.49H363.38C367.267 250.49 370.457 249.133 372.95 246.42C375.444 243.633 376.69 240.077 376.69 235.75C376.69 231.277 375.224 227.683 372.29 224.97C369.43 222.257 365.764 220.9 361.29 220.9H346.22V250.49ZM415.514 288V220.9H391.424V211H450.494V220.9H426.404V288H415.514ZM521.189 289.32C513.856 289.32 507.329 287.633 501.609 284.26C495.889 280.813 491.416 276.12 488.189 270.18C484.962 264.167 483.349 257.273 483.349 249.5C483.349 241.727 484.962 234.87 488.189 228.93C491.416 222.917 495.852 218.223 501.499 214.85C507.146 211.403 513.636 209.68 520.969 209.68C525.736 209.68 530.282 210.56 534.609 212.32C538.936 214.007 542.786 216.39 546.159 219.47C549.606 222.477 552.246 225.997 554.079 230.03L544.399 234.43C543.006 231.423 541.099 228.82 538.679 226.62C536.259 224.42 533.509 222.697 530.429 221.45C527.422 220.203 524.269 219.58 520.969 219.58C515.836 219.58 511.252 220.863 507.219 223.43C503.186 225.997 500.032 229.517 497.759 233.99C495.486 238.463 494.349 243.633 494.349 249.5C494.349 255.367 495.486 260.573 497.759 265.12C500.106 269.667 503.296 273.223 507.329 275.79C511.436 278.283 516.092 279.53 521.299 279.53C524.672 279.53 527.862 278.87 530.869 277.55C533.876 276.157 536.552 274.287 538.899 271.94C541.319 269.52 543.262 266.77 544.729 263.69L554.409 267.98C552.576 272.16 549.972 275.863 546.599 279.09C543.226 282.317 539.339 284.847 534.939 286.68C530.612 288.44 526.029 289.32 521.189 289.32ZM567.794 288V211H593.754C598.887 211 603.397 212.027 607.284 214.08C611.244 216.06 614.324 218.847 616.524 222.44C618.797 225.96 619.934 230.067 619.934 234.76C619.934 239.38 618.724 243.487 616.304 247.08C613.957 250.673 610.731 253.497 606.624 255.55C602.517 257.53 597.897 258.52 592.764 258.52H578.574V288H567.794ZM610.804 288L592.544 256.54L601.124 250.82L623.014 288H610.804ZM578.574 248.62H594.744C597.384 248.62 599.731 248.033 601.784 246.86C603.911 245.613 605.597 243.963 606.844 241.91C608.164 239.783 608.824 237.4 608.824 234.76C608.824 230.653 607.394 227.317 604.534 224.75C601.674 222.183 597.971 220.9 593.424 220.9H578.574V248.62ZM666.558 255.99L656.768 252.25L681.738 211H694.278L666.558 255.99ZM655.888 288V251.04H666.778V288H655.888ZM656.108 255.99L628.388 211H640.818L665.788 252.25L656.108 255.99ZM704.972 288V211H730.932C736.065 211 740.575 212.063 744.462 214.19C748.422 216.243 751.502 219.14 753.702 222.88C755.975 226.547 757.112 230.837 757.112 235.75C757.112 240.517 756.085 244.77 754.032 248.51C751.978 252.25 749.118 255.183 745.452 257.31C741.858 259.437 737.715 260.5 733.022 260.5H715.752V288H704.972ZM715.752 250.49H732.912C736.798 250.49 739.988 249.133 742.482 246.42C744.975 243.633 746.222 240.077 746.222 235.75C746.222 231.277 744.755 227.683 741.822 224.97C738.962 222.257 735.295 220.9 730.822 220.9H715.752V250.49ZM785.045 288V220.9H760.955V211H820.025V220.9H795.935V288H785.045ZM864.415 289.32C856.935 289.32 850.298 287.633 844.505 284.26C838.712 280.887 834.165 276.193 830.865 270.18C827.638 264.167 826.025 257.273 826.025 249.5C826.025 241.727 827.638 234.87 830.865 228.93C834.165 222.917 838.675 218.223 844.395 214.85C850.115 211.403 856.715 209.68 864.195 209.68C871.675 209.68 878.275 211.403 883.995 214.85C889.715 218.223 894.188 222.917 897.415 228.93C900.642 234.87 902.255 241.727 902.255 249.5C902.255 257.273 900.642 264.167 897.415 270.18C894.188 276.193 889.715 280.887 883.995 284.26C878.348 287.633 871.822 289.32 864.415 289.32ZM864.415 279.42C869.695 279.42 874.352 278.137 878.385 275.57C882.418 273.003 885.572 269.483 887.845 265.01C890.118 260.537 891.255 255.367 891.255 249.5C891.255 243.707 890.082 238.573 887.735 234.1C885.462 229.553 882.272 225.997 878.165 223.43C874.132 220.863 869.475 219.58 864.195 219.58C858.915 219.58 854.222 220.863 850.115 223.43C846.008 225.997 842.782 229.553 840.435 234.1C838.162 238.573 837.025 243.707 837.025 249.5C837.025 255.367 838.198 260.537 840.545 265.01C842.892 269.483 846.118 273.003 850.225 275.57C854.405 278.137 859.135 279.42 864.415 279.42Z" fill="#011528"/>
<path d="M961.12 289.32C953.64 289.32 947.003 287.633 941.21 284.26C935.417 280.887 930.87 276.193 927.57 270.18C924.343 264.167 922.73 257.273 922.73 249.5C922.73 241.727 924.343 234.87 927.57 228.93C930.87 222.917 935.38 218.223 941.1 214.85C946.82 211.403 953.42 209.68 960.9 209.68C968.38 209.68 974.98 211.403 980.7 214.85C986.42 218.223 990.893 222.917 994.12 228.93C997.347 234.87 998.96 241.727 998.96 249.5C998.96 257.273 997.347 264.167 994.12 270.18C990.893 276.193 986.42 280.887 980.7 284.26C975.053 287.633 968.527 289.32 961.12 289.32ZM961.12 279.42C966.4 279.42 971.057 278.137 975.09 275.57C979.123 273.003 982.277 269.483 984.55 265.01C986.823 260.537 987.96 255.367 987.96 249.5C987.96 243.707 986.787 238.573 984.44 234.1C982.167 229.553 978.977 225.997 974.87 223.43C970.837 220.863 966.18 219.58 960.9 219.58C955.62 219.58 950.927 220.863 946.82 223.43C942.713 225.997 939.487 229.553 937.14 234.1C934.867 238.573 933.73 243.707 933.73 249.5C933.73 255.367 934.903 260.537 937.25 265.01C939.597 269.483 942.823 273.003 946.93 275.57C951.11 278.137 955.84 279.42 961.12 279.42ZM1020.55 263.58L1017.36 252.14L1056.63 211H1070.38L1020.55 263.58ZM1013.51 288V211H1023.96V288H1013.51ZM1058.5 288L1027.15 248.84L1034.52 242.02L1071.81 288H1058.5ZM1082.26 288V211H1108.22C1113.36 211 1117.87 212.027 1121.75 214.08C1125.71 216.06 1128.79 218.847 1130.99 222.44C1133.27 225.96 1134.4 230.067 1134.4 234.76C1134.4 239.38 1133.19 243.487 1130.77 247.08C1128.43 250.673 1125.2 253.497 1121.09 255.55C1116.99 257.53 1112.37 258.52 1107.23 258.52H1093.04V288H1082.26ZM1125.27 288L1107.01 256.54L1115.59 250.82L1137.48 288H1125.27ZM1093.04 248.62H1109.21C1111.85 248.62 1114.2 248.033 1116.25 246.86C1118.38 245.613 1120.07 243.963 1121.31 241.91C1122.63 239.783 1123.29 237.4 1123.29 234.76C1123.29 230.653 1121.86 227.317 1119 224.75C1116.14 222.183 1112.44 220.9 1107.89 220.9H1093.04V248.62ZM1181.03 255.99L1171.24 252.25L1196.21 211H1208.75L1181.03 255.99ZM1170.36 288V251.04H1181.25V288H1170.36ZM1170.58 255.99L1142.86 211H1155.29L1180.26 252.25L1170.58 255.99ZM1219.44 288V211H1245.4C1250.53 211 1255.04 212.063 1258.93 214.19C1262.89 216.243 1265.97 219.14 1268.17 222.88C1270.44 226.547 1271.58 230.837 1271.58 235.75C1271.58 240.517 1270.55 244.77 1268.5 248.51C1266.45 252.25 1263.59 255.183 1259.92 257.31C1256.33 259.437 1252.18 260.5 1247.49 260.5H1230.22V288H1219.44ZM1230.22 250.49H1247.38C1251.27 250.49 1254.46 249.133 1256.95 246.42C1259.44 243.633 1260.69 240.077 1260.69 235.75C1260.69 231.277 1259.22 227.683 1256.29 224.97C1253.43 222.257 1249.76 220.9 1245.29 220.9H1230.22V250.49ZM1299.51 288V220.9H1275.42V211H1334.49V220.9H1310.4V288H1299.51ZM1405.19 289.32C1397.86 289.32 1391.33 287.633 1385.61 284.26C1379.89 280.813 1375.42 276.12 1372.19 270.18C1368.96 264.167 1367.35 257.273 1367.35 249.5C1367.35 241.727 1368.96 234.87 1372.19 228.93C1375.42 222.917 1379.85 218.223 1385.5 214.85C1391.15 211.403 1397.64 209.68 1404.97 209.68C1409.74 209.68 1414.28 210.56 1418.61 212.32C1422.94 214.007 1426.79 216.39 1430.16 219.47C1433.61 222.477 1436.25 225.997 1438.08 230.03L1428.4 234.43C1427.01 231.423 1425.1 228.82 1422.68 226.62C1420.26 224.42 1417.51 222.697 1414.43 221.45C1411.42 220.203 1408.27 219.58 1404.97 219.58C1399.84 219.58 1395.25 220.863 1391.22 223.43C1387.19 225.997 1384.03 229.517 1381.76 233.99C1379.49 238.463 1378.35 243.633 1378.35 249.5C1378.35 255.367 1379.49 260.573 1381.76 265.12C1384.11 269.667 1387.3 273.223 1391.33 275.79C1395.44 278.283 1400.09 279.53 1405.3 279.53C1408.67 279.53 1411.86 278.87 1414.87 277.55C1417.88 276.157 1420.55 274.287 1422.9 271.94C1425.32 269.52 1427.26 266.77 1428.73 263.69L1438.41 267.98C1436.58 272.16 1433.97 275.863 1430.6 279.09C1427.23 282.317 1423.34 284.847 1418.94 286.68C1414.61 288.44 1410.03 289.32 1405.19 289.32ZM1451.79 288V211H1477.75C1482.89 211 1487.4 212.027 1491.28 214.08C1495.24 216.06 1498.32 218.847 1500.52 222.44C1502.8 225.96 1503.93 230.067 1503.93 234.76C1503.93 239.38 1502.72 243.487 1500.3 247.08C1497.96 250.673 1494.73 253.497 1490.62 255.55C1486.52 257.53 1481.9 258.52 1476.76 258.52H1462.57V288H1451.79ZM1494.8 288L1476.54 256.54L1485.12 250.82L1507.01 288H1494.8ZM1462.57 248.62H1478.74C1481.38 248.62 1483.73 248.033 1485.78 246.86C1487.91 245.613 1489.6 243.963 1490.84 241.91C1492.16 239.783 1492.82 237.4 1492.82 234.76C1492.82 230.653 1491.39 227.317 1488.53 224.75C1485.67 222.183 1481.97 220.9 1477.42 220.9H1462.57V248.62ZM1550.56 255.99L1540.77 252.25L1565.74 211H1578.28L1550.56 255.99ZM1539.89 288V251.04H1550.78V288H1539.89ZM1540.11 255.99L1512.39 211H1524.82L1549.79 252.25L1540.11 255.99ZM1588.97 288V211H1614.93C1620.06 211 1624.57 212.063 1628.46 214.19C1632.42 216.243 1635.5 219.14 1637.7 222.88C1639.97 226.547 1641.11 230.837 1641.11 235.75C1641.11 240.517 1640.08 244.77 1638.03 248.51C1635.98 252.25 1633.12 255.183 1629.45 257.31C1625.86 259.437 1621.71 260.5 1617.02 260.5H1599.75V288H1588.97ZM1599.75 250.49H1616.91C1620.8 250.49 1623.99 249.133 1626.48 246.42C1628.97 243.633 1630.22 240.077 1630.22 235.75C1630.22 231.277 1628.75 227.683 1625.82 224.97C1622.96 222.257 1619.29 220.9 1614.82 220.9H1599.75V250.49ZM1669.04 288V220.9H1644.95V211H1704.02V220.9H1679.93V288H1669.04ZM1748.41 289.32C1740.93 289.32 1734.3 287.633 1728.5 284.26C1722.71 280.887 1718.16 276.193 1714.86 270.18C1711.64 264.167 1710.02 257.273 1710.02 249.5C1710.02 241.727 1711.64 234.87 1714.86 228.93C1718.16 222.917 1722.67 218.223 1728.39 214.85C1734.11 211.403 1740.71 209.68 1748.19 209.68C1755.67 209.68 1762.27 211.403 1767.99 214.85C1773.71 218.223 1778.19 222.917 1781.41 228.93C1784.64 234.87 1786.25 241.727 1786.25 249.5C1786.25 257.273 1784.64 264.167 1781.41 270.18C1778.19 276.193 1773.71 280.887 1767.99 284.26C1762.35 287.633 1755.82 289.32 1748.41 289.32ZM1748.41 279.42C1753.69 279.42 1758.35 278.137 1762.38 275.57C1766.42 273.003 1769.57 269.483 1771.84 265.01C1774.12 260.537 1775.25 255.367 1775.25 249.5C1775.25 243.707 1774.08 238.573 1771.73 234.1C1769.46 229.553 1766.27 225.997 1762.16 223.43C1758.13 220.863 1753.47 219.58 1748.19 219.58C1742.91 219.58 1738.22 220.863 1734.11 223.43C1730.01 225.997 1726.78 229.553 1724.43 234.1C1722.16 238.573 1721.02 243.707 1721.02 249.5C1721.02 255.367 1722.2 260.537 1724.54 265.01C1726.89 269.483 1730.12 273.003 1734.22 275.57C1738.4 278.137 1743.13 279.42 1748.41 279.42Z" fill="#011528"/>
<path d="M-612.88 462.32C-620.36 462.32 -626.997 460.633 -632.79 457.26C-638.583 453.887 -643.13 449.193 -646.43 443.18C-649.657 437.167 -651.27 430.273 -651.27 422.5C-651.27 414.727 -649.657 407.87 -646.43 401.93C-643.13 395.917 -638.62 391.223 -632.9 387.85C-627.18 384.403 -620.58 382.68 -613.1 382.68C-605.62 382.68 -599.02 384.403 -593.3 387.85C-587.58 391.223 -583.107 395.917 -579.88 401.93C-576.653 407.87 -575.04 414.727 -575.04 422.5C-575.04 430.273 -576.653 437.167 -579.88 443.18C-583.107 449.193 -587.58 453.887 -593.3 457.26C-598.947 460.633 -605.473 462.32 -612.88 462.32ZM-612.88 452.42C-607.6 452.42 -602.943 451.137 -598.91 448.57C-594.877 446.003 -591.723 442.483 -589.45 438.01C-587.177 433.537 -586.04 428.367 -586.04 422.5C-586.04 416.707 -587.213 411.573 -589.56 407.1C-591.833 402.553 -595.023 398.997 -599.13 396.43C-603.163 393.863 -607.82 392.58 -613.1 392.58C-618.38 392.58 -623.073 393.863 -627.18 396.43C-631.287 398.997 -634.513 402.553 -636.86 407.1C-639.133 411.573 -640.27 416.707 -640.27 422.5C-640.27 428.367 -639.097 433.537 -636.75 438.01C-634.403 442.483 -631.177 446.003 -627.07 448.57C-622.89 451.137 -618.16 452.42 -612.88 452.42ZM-553.447 436.58L-556.637 425.14L-517.367 384H-503.617L-553.447 436.58ZM-560.487 461V384H-550.037V461H-560.487ZM-515.497 461L-546.847 421.84L-539.477 415.02L-502.187 461H-515.497ZM-491.737 461V384H-465.777C-460.644 384 -456.134 385.027 -452.247 387.08C-448.287 389.06 -445.207 391.847 -443.007 395.44C-440.734 398.96 -439.597 403.067 -439.597 407.76C-439.597 412.38 -440.807 416.487 -443.227 420.08C-445.574 423.673 -448.801 426.497 -452.907 428.55C-457.014 430.53 -461.634 431.52 -466.767 431.52H-480.957V461H-491.737ZM-448.727 461L-466.987 429.54L-458.407 423.82L-436.517 461H-448.727ZM-480.957 421.62H-464.787C-462.147 421.62 -459.801 421.033 -457.747 419.86C-455.621 418.613 -453.934 416.963 -452.687 414.91C-451.367 412.783 -450.707 410.4 -450.707 407.76C-450.707 403.653 -452.137 400.317 -454.997 397.75C-457.857 395.183 -461.561 393.9 -466.107 393.9H-480.957V421.62ZM-392.973 428.99L-402.763 425.25L-377.793 384H-365.253L-392.973 428.99ZM-403.643 461V424.04H-392.753V461H-403.643ZM-403.423 428.99L-431.143 384H-418.713L-393.743 425.25L-403.423 428.99ZM-354.56 461V384H-328.6C-323.466 384 -318.956 385.063 -315.07 387.19C-311.11 389.243 -308.03 392.14 -305.83 395.88C-303.556 399.547 -302.42 403.837 -302.42 408.75C-302.42 413.517 -303.446 417.77 -305.5 421.51C-307.553 425.25 -310.413 428.183 -314.08 430.31C-317.673 432.437 -321.816 433.5 -326.51 433.5H-343.78V461H-354.56ZM-343.78 423.49H-326.62C-322.733 423.49 -319.543 422.133 -317.05 419.42C-314.556 416.633 -313.31 413.077 -313.31 408.75C-313.31 404.277 -314.776 400.683 -317.71 397.97C-320.57 395.257 -324.236 393.9 -328.71 393.9H-343.78V423.49ZM-274.486 461V393.9H-298.576V384H-239.506V393.9H-263.596V461H-274.486ZM-168.811 462.32C-176.144 462.32 -182.671 460.633 -188.391 457.26C-194.111 453.813 -198.584 449.12 -201.811 443.18C-205.038 437.167 -206.651 430.273 -206.651 422.5C-206.651 414.727 -205.038 407.87 -201.811 401.93C-198.584 395.917 -194.148 391.223 -188.501 387.85C-182.854 384.403 -176.364 382.68 -169.031 382.68C-164.264 382.68 -159.718 383.56 -155.391 385.32C-151.064 387.007 -147.214 389.39 -143.841 392.47C-140.394 395.477 -137.754 398.997 -135.921 403.03L-145.601 407.43C-146.994 404.423 -148.901 401.82 -151.321 399.62C-153.741 397.42 -156.491 395.697 -159.571 394.45C-162.578 393.203 -165.731 392.58 -169.031 392.58C-174.164 392.58 -178.748 393.863 -182.781 396.43C-186.814 398.997 -189.968 402.517 -192.241 406.99C-194.514 411.463 -195.651 416.633 -195.651 422.5C-195.651 428.367 -194.514 433.573 -192.241 438.12C-189.894 442.667 -186.704 446.223 -182.671 448.79C-178.564 451.283 -173.908 452.53 -168.701 452.53C-165.328 452.53 -162.138 451.87 -159.131 450.55C-156.124 449.157 -153.448 447.287 -151.101 444.94C-148.681 442.52 -146.738 439.77 -145.271 436.69L-135.591 440.98C-137.424 445.16 -140.028 448.863 -143.401 452.09C-146.774 455.317 -150.661 457.847 -155.061 459.68C-159.388 461.44 -163.971 462.32 -168.811 462.32ZM-122.206 461V384H-96.2461C-91.1128 384 -86.6028 385.027 -82.7161 387.08C-78.7561 389.06 -75.6761 391.847 -73.4761 395.44C-71.2028 398.96 -70.0661 403.067 -70.0661 407.76C-70.0661 412.38 -71.2761 416.487 -73.6961 420.08C-76.0428 423.673 -79.2694 426.497 -83.3761 428.55C-87.4828 430.53 -92.1028 431.52 -97.2361 431.52H-111.426V461H-122.206ZM-79.1961 461L-97.4561 429.54L-88.8761 423.82L-66.9861 461H-79.1961ZM-111.426 421.62H-95.2561C-92.6161 421.62 -90.2694 421.033 -88.2161 419.86C-86.0894 418.613 -84.4028 416.963 -83.1561 414.91C-81.8361 412.783 -81.1761 410.4 -81.1761 407.76C-81.1761 403.653 -82.6061 400.317 -85.4661 397.75C-88.3261 395.183 -92.0294 393.9 -96.5761 393.9H-111.426V421.62ZM-23.4416 428.99L-33.2316 425.25L-8.26156 384H4.27844L-23.4416 428.99ZM-34.1116 461V424.04H-23.2216V461H-34.1116ZM-33.8916 428.99L-61.6116 384H-49.1816L-24.2116 425.25L-33.8916 428.99ZM14.9716 461V384H40.9316C46.065 384 50.575 385.063 54.4616 387.19C58.4216 389.243 61.5016 392.14 63.7016 395.88C65.975 399.547 67.1116 403.837 67.1116 408.75C67.1116 413.517 66.085 417.77 64.0316 421.51C61.9783 425.25 59.1183 428.183 55.4516 430.31C51.8583 432.437 47.715 433.5 43.0216 433.5H25.7516V461H14.9716ZM25.7516 423.49H42.9116C46.7983 423.49 49.9883 422.133 52.4816 419.42C54.975 416.633 56.2216 413.077 56.2216 408.75C56.2216 404.277 54.755 400.683 51.8216 397.97C48.9616 395.257 45.295 393.9 40.8216 393.9H25.7516V423.49ZM95.0448 461V393.9H70.9548V384H130.025V393.9H105.935V461H95.0448ZM174.415 462.32C166.935 462.32 160.298 460.633 154.505 457.26C148.712 453.887 144.165 449.193 140.865 443.18C137.638 437.167 136.025 430.273 136.025 422.5C136.025 414.727 137.638 407.87 140.865 401.93C144.165 395.917 148.675 391.223 154.395 387.85C160.115 384.403 166.715 382.68 174.195 382.68C181.675 382.68 188.275 384.403 193.995 387.85C199.715 391.223 204.188 395.917 207.415 401.93C210.642 407.87 212.255 414.727 212.255 422.5C212.255 430.273 210.642 437.167 207.415 443.18C204.188 449.193 199.715 453.887 193.995 457.26C188.348 460.633 181.822 462.32 174.415 462.32ZM174.415 452.42C179.695 452.42 184.352 451.137 188.385 448.57C192.418 446.003 195.572 442.483 197.845 438.01C200.118 433.537 201.255 428.367 201.255 422.5C201.255 416.707 200.082 411.573 197.735 407.1C195.462 402.553 192.272 398.997 188.165 396.43C184.132 393.863 179.475 392.58 174.195 392.58C168.915 392.58 164.222 393.863 160.115 396.43C156.008 398.997 152.782 402.553 150.435 407.1C148.162 411.573 147.025 416.707 147.025 422.5C147.025 428.367 148.198 433.537 150.545 438.01C152.892 442.483 156.118 446.003 160.225 448.57C164.405 451.137 169.135 452.42 174.415 452.42Z" fill="#011528"/>
<path d="M271.12 462.32C263.64 462.32 257.003 460.633 251.21 457.26C245.417 453.887 240.87 449.193 237.57 443.18C234.343 437.167 232.73 430.273 232.73 422.5C232.73 414.727 234.343 407.87 237.57 401.93C240.87 395.917 245.38 391.223 251.1 387.85C256.82 384.403 263.42 382.68 270.9 382.68C278.38 382.68 284.98 384.403 290.7 387.85C296.42 391.223 300.893 395.917 304.12 401.93C307.347 407.87 308.96 414.727 308.96 422.5C308.96 430.273 307.347 437.167 304.12 443.18C300.893 449.193 296.42 453.887 290.7 457.26C285.053 460.633 278.527 462.32 271.12 462.32ZM271.12 452.42C276.4 452.42 281.057 451.137 285.09 448.57C289.123 446.003 292.277 442.483 294.55 438.01C296.823 433.537 297.96 428.367 297.96 422.5C297.96 416.707 296.787 411.573 294.44 407.1C292.167 402.553 288.977 398.997 284.87 396.43C280.837 393.863 276.18 392.58 270.9 392.58C265.62 392.58 260.927 393.863 256.82 396.43C252.713 398.997 249.487 402.553 247.14 407.1C244.867 411.573 243.73 416.707 243.73 422.5C243.73 428.367 244.903 433.537 247.25 438.01C249.597 442.483 252.823 446.003 256.93 448.57C261.11 451.137 265.84 452.42 271.12 452.42ZM330.553 436.58L327.363 425.14L366.633 384H380.383L330.553 436.58ZM323.513 461V384H333.963V461H323.513ZM368.503 461L337.153 421.84L344.523 415.02L381.813 461H368.503ZM392.263 461V384H418.223C423.356 384 427.866 385.027 431.753 387.08C435.713 389.06 438.793 391.847 440.993 395.44C443.266 398.96 444.403 403.067 444.403 407.76C444.403 412.38 443.193 416.487 440.773 420.08C438.426 423.673 435.199 426.497 431.093 428.55C426.986 430.53 422.366 431.52 417.233 431.52H403.043V461H392.263ZM435.273 461L417.013 429.54L425.593 423.82L447.483 461H435.273ZM403.043 421.62H419.213C421.853 421.62 424.199 421.033 426.253 419.86C428.379 418.613 430.066 416.963 431.313 414.91C432.633 412.783 433.293 410.4 433.293 407.76C433.293 403.653 431.863 400.317 429.003 397.75C426.143 395.183 422.439 393.9 417.893 393.9H403.043V421.62ZM491.027 428.99L481.237 425.25L506.207 384H518.747L491.027 428.99ZM480.357 461V424.04H491.247V461H480.357ZM480.577 428.99L452.857 384H465.287L490.257 425.25L480.577 428.99ZM529.44 461V384H555.4C560.534 384 565.044 385.063 568.93 387.19C572.89 389.243 575.97 392.14 578.17 395.88C580.444 399.547 581.58 403.837 581.58 408.75C581.58 413.517 580.554 417.77 578.5 421.51C576.447 425.25 573.587 428.183 569.92 430.31C566.327 432.437 562.184 433.5 557.49 433.5H540.22V461H529.44ZM540.22 423.49H557.38C561.267 423.49 564.457 422.133 566.95 419.42C569.444 416.633 570.69 413.077 570.69 408.75C570.69 404.277 569.224 400.683 566.29 397.97C563.43 395.257 559.764 393.9 555.29 393.9H540.22V423.49ZM609.514 461V393.9H585.424V384H644.494V393.9H620.404V461H609.514ZM715.189 462.32C707.856 462.32 701.329 460.633 695.609 457.26C689.889 453.813 685.416 449.12 682.189 443.18C678.962 437.167 677.349 430.273 677.349 422.5C677.349 414.727 678.962 407.87 682.189 401.93C685.416 395.917 689.852 391.223 695.499 387.85C701.146 384.403 707.636 382.68 714.969 382.68C719.736 382.68 724.282 383.56 728.609 385.32C732.936 387.007 736.786 389.39 740.159 392.47C743.606 395.477 746.246 398.997 748.079 403.03L738.399 407.43C737.006 404.423 735.099 401.82 732.679 399.62C730.259 397.42 727.509 395.697 724.429 394.45C721.422 393.203 718.269 392.58 714.969 392.58C709.836 392.58 705.252 393.863 701.219 396.43C697.186 398.997 694.032 402.517 691.759 406.99C689.486 411.463 688.349 416.633 688.349 422.5C688.349 428.367 689.486 433.573 691.759 438.12C694.106 442.667 697.296 446.223 701.329 448.79C705.436 451.283 710.092 452.53 715.299 452.53C718.672 452.53 721.862 451.87 724.869 450.55C727.876 449.157 730.552 447.287 732.899 444.94C735.319 442.52 737.262 439.77 738.729 436.69L748.409 440.98C746.576 445.16 743.972 448.863 740.599 452.09C737.226 455.317 733.339 457.847 728.939 459.68C724.612 461.44 720.029 462.32 715.189 462.32ZM761.794 461V384H787.754C792.887 384 797.397 385.027 801.284 387.08C805.244 389.06 808.324 391.847 810.524 395.44C812.797 398.96 813.934 403.067 813.934 407.76C813.934 412.38 812.724 416.487 810.304 420.08C807.957 423.673 804.731 426.497 800.624 428.55C796.517 430.53 791.897 431.52 786.764 431.52H772.574V461H761.794ZM804.804 461L786.544 429.54L795.124 423.82L817.014 461H804.804ZM772.574 421.62H788.744C791.384 421.62 793.731 421.033 795.784 419.86C797.911 418.613 799.597 416.963 800.844 414.91C802.164 412.783 802.824 410.4 802.824 407.76C802.824 403.653 801.394 400.317 798.534 397.75C795.674 395.183 791.971 393.9 787.424 393.9H772.574V421.62ZM860.558 428.99L850.768 425.25L875.738 384H888.278L860.558 428.99ZM849.888 461V424.04H860.778V461H849.888ZM850.108 428.99L822.388 384H834.818L859.788 425.25L850.108 428.99ZM898.972 461V384H924.932C930.065 384 934.575 385.063 938.462 387.19C942.422 389.243 945.502 392.14 947.702 395.88C949.975 399.547 951.112 403.837 951.112 408.75C951.112 413.517 950.085 417.77 948.032 421.51C945.978 425.25 943.118 428.183 939.452 430.31C935.858 432.437 931.715 433.5 927.022 433.5H909.752V461H898.972ZM909.752 423.49H926.912C930.798 423.49 933.988 422.133 936.482 419.42C938.975 416.633 940.222 413.077 940.222 408.75C940.222 404.277 938.755 400.683 935.822 397.97C932.962 395.257 929.295 393.9 924.822 393.9H909.752V423.49ZM979.045 461V393.9H954.955V384H1014.02V393.9H989.935V461H979.045ZM1058.41 462.32C1050.93 462.32 1044.3 460.633 1038.5 457.26C1032.71 453.887 1028.16 449.193 1024.86 443.18C1021.64 437.167 1020.02 430.273 1020.02 422.5C1020.02 414.727 1021.64 407.87 1024.86 401.93C1028.16 395.917 1032.67 391.223 1038.39 387.85C1044.11 384.403 1050.71 382.68 1058.19 382.68C1065.67 382.68 1072.27 384.403 1077.99 387.85C1083.71 391.223 1088.19 395.917 1091.41 401.93C1094.64 407.87 1096.25 414.727 1096.25 422.5C1096.25 430.273 1094.64 437.167 1091.41 443.18C1088.19 449.193 1083.71 453.887 1077.99 457.26C1072.35 460.633 1065.82 462.32 1058.41 462.32ZM1058.41 452.42C1063.69 452.42 1068.35 451.137 1072.38 448.57C1076.42 446.003 1079.57 442.483 1081.84 438.01C1084.12 433.537 1085.25 428.367 1085.25 422.5C1085.25 416.707 1084.08 411.573 1081.73 407.1C1079.46 402.553 1076.27 398.997 1072.16 396.43C1068.13 393.863 1063.47 392.58 1058.19 392.58C1052.91 392.58 1048.22 393.863 1044.11 396.43C1040.01 398.997 1036.78 402.553 1034.43 407.1C1032.16 411.573 1031.02 416.707 1031.02 422.5C1031.02 428.367 1032.2 433.537 1034.54 438.01C1036.89 442.483 1040.12 446.003 1044.22 448.57C1048.4 451.137 1053.13 452.42 1058.41 452.42Z" fill="#011528"/>
<path d="M397.12 635.32C389.64 635.32 383.003 633.633 377.21 630.26C371.417 626.887 366.87 622.193 363.57 616.18C360.343 610.167 358.73 603.273 358.73 595.5C358.73 587.727 360.343 580.87 363.57 574.93C366.87 568.917 371.38 564.223 377.1 560.85C382.82 557.403 389.42 555.68 396.9 555.68C404.38 555.68 410.98 557.403 416.7 560.85C422.42 564.223 426.893 568.917 430.12 574.93C433.347 580.87 434.96 587.727 434.96 595.5C434.96 603.273 433.347 610.167 430.12 616.18C426.893 622.193 422.42 626.887 416.7 630.26C411.053 633.633 404.527 635.32 397.12 635.32ZM397.12 625.42C402.4 625.42 407.057 624.137 411.09 621.57C415.123 619.003 418.277 615.483 420.55 611.01C422.823 606.537 423.96 601.367 423.96 595.5C423.96 589.707 422.787 584.573 420.44 580.1C418.167 575.553 414.977 571.997 410.87 569.43C406.837 566.863 402.18 565.58 396.9 565.58C391.62 565.58 386.927 566.863 382.82 569.43C378.713 571.997 375.487 575.553 373.14 580.1C370.867 584.573 369.73 589.707 369.73 595.5C369.73 601.367 370.903 606.537 373.25 611.01C375.597 615.483 378.823 619.003 382.93 621.57C387.11 624.137 391.84 625.42 397.12 625.42ZM456.553 609.58L453.363 598.14L492.633 557H506.383L456.553 609.58ZM449.513 634V557H459.963V634H449.513ZM494.503 634L463.153 594.84L470.523 588.02L507.813 634H494.503ZM518.263 634V557H544.223C549.356 557 553.866 558.027 557.753 560.08C561.713 562.06 564.793 564.847 566.993 568.44C569.266 571.96 570.403 576.067 570.403 580.76C570.403 585.38 569.193 589.487 566.773 593.08C564.426 596.673 561.199 599.497 557.093 601.55C552.986 603.53 548.366 604.52 543.233 604.52H529.043V634H518.263ZM561.273 634L543.013 602.54L551.593 596.82L573.483 634H561.273ZM529.043 594.62H545.213C547.853 594.62 550.199 594.033 552.253 592.86C554.379 591.613 556.066 589.963 557.313 587.91C558.633 585.783 559.293 583.4 559.293 580.76C559.293 576.653 557.863 573.317 555.003 570.75C552.143 568.183 548.439 566.9 543.893 566.9H529.043V594.62ZM617.027 601.99L607.237 598.25L632.207 557H644.747L617.027 601.99ZM606.357 634V597.04H617.247V634H606.357ZM606.577 601.99L578.857 557H591.287L616.257 598.25L606.577 601.99ZM655.44 634V557H681.4C686.534 557 691.044 558.063 694.93 560.19C698.89 562.243 701.97 565.14 704.17 568.88C706.444 572.547 707.58 576.837 707.58 581.75C707.58 586.517 706.554 590.77 704.5 594.51C702.447 598.25 699.587 601.183 695.92 603.31C692.327 605.437 688.184 606.5 683.49 606.5H666.22V634H655.44ZM666.22 596.49H683.38C687.267 596.49 690.457 595.133 692.95 592.42C695.444 589.633 696.69 586.077 696.69 581.75C696.69 577.277 695.224 573.683 692.29 570.97C689.43 568.257 685.764 566.9 681.29 566.9H666.22V596.49ZM735.514 634V566.9H711.424V557H770.494V566.9H746.404V634H735.514ZM841.189 635.32C833.856 635.32 827.329 633.633 821.609 630.26C815.889 626.813 811.416 622.12 808.189 616.18C804.962 610.167 803.349 603.273 803.349 595.5C803.349 587.727 804.962 580.87 808.189 574.93C811.416 568.917 815.852 564.223 821.499 560.85C827.146 557.403 833.636 555.68 840.969 555.68C845.736 555.68 850.282 556.56 854.609 558.32C858.936 560.007 862.786 562.39 866.159 565.47C869.606 568.477 872.246 571.997 874.079 576.03L864.399 580.43C863.006 577.423 861.099 574.82 858.679 572.62C856.259 570.42 853.509 568.697 850.429 567.45C847.422 566.203 844.269 565.58 840.969 565.58C835.836 565.58 831.252 566.863 827.219 569.43C823.186 571.997 820.032 575.517 817.759 579.99C815.486 584.463 814.349 589.633 814.349 595.5C814.349 601.367 815.486 606.573 817.759 611.12C820.106 615.667 823.296 619.223 827.329 621.79C831.436 624.283 836.092 625.53 841.299 625.53C844.672 625.53 847.862 624.87 850.869 623.55C853.876 622.157 856.552 620.287 858.899 617.94C861.319 615.52 863.262 612.77 864.729 609.69L874.409 613.98C872.576 618.16 869.972 621.863 866.599 625.09C863.226 628.317 859.339 630.847 854.939 632.68C850.612 634.44 846.029 635.32 841.189 635.32ZM887.794 634V557H913.754C918.887 557 923.397 558.027 927.284 560.08C931.244 562.06 934.324 564.847 936.524 568.44C938.797 571.96 939.934 576.067 939.934 580.76C939.934 585.38 938.724 589.487 936.304 593.08C933.957 596.673 930.731 599.497 926.624 601.55C922.517 603.53 917.897 604.52 912.764 604.52H898.574V634H887.794ZM930.804 634L912.544 602.54L921.124 596.82L943.014 634H930.804ZM898.574 594.62H914.744C917.384 594.62 919.731 594.033 921.784 592.86C923.911 591.613 925.597 589.963 926.844 587.91C928.164 585.783 928.824 583.4 928.824 580.76C928.824 576.653 927.394 573.317 924.534 570.75C921.674 568.183 917.971 566.9 913.424 566.9H898.574V594.62ZM986.558 601.99L976.768 598.25L1001.74 557H1014.28L986.558 601.99ZM975.888 634V597.04H986.778V634H975.888ZM976.108 601.99L948.388 557H960.818L985.788 598.25L976.108 601.99ZM1024.97 634V557H1050.93C1056.06 557 1060.57 558.063 1064.46 560.19C1068.42 562.243 1071.5 565.14 1073.7 568.88C1075.97 572.547 1077.11 576.837 1077.11 581.75C1077.11 586.517 1076.08 590.77 1074.03 594.51C1071.98 598.25 1069.12 601.183 1065.45 603.31C1061.86 605.437 1057.71 606.5 1053.02 606.5H1035.75V634H1024.97ZM1035.75 596.49H1052.91C1056.8 596.49 1059.99 595.133 1062.48 592.42C1064.97 589.633 1066.22 586.077 1066.22 581.75C1066.22 577.277 1064.75 573.683 1061.82 570.97C1058.96 568.257 1055.29 566.9 1050.82 566.9H1035.75V596.49ZM1105.04 634V566.9H1080.95V557H1140.02V566.9H1115.93V634H1105.04ZM1184.41 635.32C1176.93 635.32 1170.3 633.633 1164.5 630.26C1158.71 626.887 1154.16 622.193 1150.86 616.18C1147.64 610.167 1146.02 603.273 1146.02 595.5C1146.02 587.727 1147.64 580.87 1150.86 574.93C1154.16 568.917 1158.67 564.223 1164.39 560.85C1170.11 557.403 1176.71 555.68 1184.19 555.68C1191.67 555.68 1198.27 557.403 1203.99 560.85C1209.71 564.223 1214.19 568.917 1217.41 574.93C1220.64 580.87 1222.25 587.727 1222.25 595.5C1222.25 603.273 1220.64 610.167 1217.41 616.18C1214.19 622.193 1209.71 626.887 1203.99 630.26C1198.35 633.633 1191.82 635.32 1184.41 635.32ZM1184.41 625.42C1189.69 625.42 1194.35 624.137 1198.38 621.57C1202.42 619.003 1205.57 615.483 1207.84 611.01C1210.12 606.537 1211.25 601.367 1211.25 595.5C1211.25 589.707 1210.08 584.573 1207.73 580.1C1205.46 575.553 1202.27 571.997 1198.16 569.43C1194.13 566.863 1189.47 565.58 1184.19 565.58C1178.91 565.58 1174.22 566.863 1170.11 569.43C1166.01 571.997 1162.78 575.553 1160.43 580.1C1158.16 584.573 1157.02 589.707 1157.02 595.5C1157.02 601.367 1158.2 606.537 1160.54 611.01C1162.89 615.483 1166.12 619.003 1170.22 621.57C1174.4 624.137 1179.13 625.42 1184.41 625.42Z" fill="#011528"/>
<path d="M1281.12 635.32C1273.64 635.32 1267 633.633 1261.21 630.26C1255.42 626.887 1250.87 622.193 1247.57 616.18C1244.34 610.167 1242.73 603.273 1242.73 595.5C1242.73 587.727 1244.34 580.87 1247.57 574.93C1250.87 568.917 1255.38 564.223 1261.1 560.85C1266.82 557.403 1273.42 555.68 1280.9 555.68C1288.38 555.68 1294.98 557.403 1300.7 560.85C1306.42 564.223 1310.89 568.917 1314.12 574.93C1317.35 580.87 1318.96 587.727 1318.96 595.5C1318.96 603.273 1317.35 610.167 1314.12 616.18C1310.89 622.193 1306.42 626.887 1300.7 630.26C1295.05 633.633 1288.53 635.32 1281.12 635.32ZM1281.12 625.42C1286.4 625.42 1291.06 624.137 1295.09 621.57C1299.12 619.003 1302.28 615.483 1304.55 611.01C1306.82 606.537 1307.96 601.367 1307.96 595.5C1307.96 589.707 1306.79 584.573 1304.44 580.1C1302.17 575.553 1298.98 571.997 1294.87 569.43C1290.84 566.863 1286.18 565.58 1280.9 565.58C1275.62 565.58 1270.93 566.863 1266.82 569.43C1262.71 571.997 1259.49 575.553 1257.14 580.1C1254.87 584.573 1253.73 589.707 1253.73 595.5C1253.73 601.367 1254.9 606.537 1257.25 611.01C1259.6 615.483 1262.82 619.003 1266.93 621.57C1271.11 624.137 1275.84 625.42 1281.12 625.42ZM1340.55 609.58L1337.36 598.14L1376.63 557H1390.38L1340.55 609.58ZM1333.51 634V557H1343.96V634H1333.51ZM1378.5 634L1347.15 594.84L1354.52 588.02L1391.81 634H1378.5ZM1402.26 634V557H1428.22C1433.36 557 1437.87 558.027 1441.75 560.08C1445.71 562.06 1448.79 564.847 1450.99 568.44C1453.27 571.96 1454.4 576.067 1454.4 580.76C1454.4 585.38 1453.19 589.487 1450.77 593.08C1448.43 596.673 1445.2 599.497 1441.09 601.55C1436.99 603.53 1432.37 604.52 1427.23 604.52H1413.04V634H1402.26ZM1445.27 634L1427.01 602.54L1435.59 596.82L1457.48 634H1445.27ZM1413.04 594.62H1429.21C1431.85 594.62 1434.2 594.033 1436.25 592.86C1438.38 591.613 1440.07 589.963 1441.31 587.91C1442.63 585.783 1443.29 583.4 1443.29 580.76C1443.29 576.653 1441.86 573.317 1439 570.75C1436.14 568.183 1432.44 566.9 1427.89 566.9H1413.04V594.62ZM1501.03 601.99L1491.24 598.25L1516.21 557H1528.75L1501.03 601.99ZM1490.36 634V597.04H1501.25V634H1490.36ZM1490.58 601.99L1462.86 557H1475.29L1500.26 598.25L1490.58 601.99ZM1539.44 634V557H1565.4C1570.53 557 1575.04 558.063 1578.93 560.19C1582.89 562.243 1585.97 565.14 1588.17 568.88C1590.44 572.547 1591.58 576.837 1591.58 581.75C1591.58 586.517 1590.55 590.77 1588.5 594.51C1586.45 598.25 1583.59 601.183 1579.92 603.31C1576.33 605.437 1572.18 606.5 1567.49 606.5H1550.22V634H1539.44ZM1550.22 596.49H1567.38C1571.27 596.49 1574.46 595.133 1576.95 592.42C1579.44 589.633 1580.69 586.077 1580.69 581.75C1580.69 577.277 1579.22 573.683 1576.29 570.97C1573.43 568.257 1569.76 566.9 1565.29 566.9H1550.22V596.49ZM1619.51 634V566.9H1595.42V557H1654.49V566.9H1630.4V634H1619.51ZM1725.19 635.32C1717.86 635.32 1711.33 633.633 1705.61 630.26C1699.89 626.813 1695.42 622.12 1692.19 616.18C1688.96 610.167 1687.35 603.273 1687.35 595.5C1687.35 587.727 1688.96 580.87 1692.19 574.93C1695.42 568.917 1699.85 564.223 1705.5 560.85C1711.15 557.403 1717.64 555.68 1724.97 555.68C1729.74 555.68 1734.28 556.56 1738.61 558.32C1742.94 560.007 1746.79 562.39 1750.16 565.47C1753.61 568.477 1756.25 571.997 1758.08 576.03L1748.4 580.43C1747.01 577.423 1745.1 574.82 1742.68 572.62C1740.26 570.42 1737.51 568.697 1734.43 567.45C1731.42 566.203 1728.27 565.58 1724.97 565.58C1719.84 565.58 1715.25 566.863 1711.22 569.43C1707.19 571.997 1704.03 575.517 1701.76 579.99C1699.49 584.463 1698.35 589.633 1698.35 595.5C1698.35 601.367 1699.49 606.573 1701.76 611.12C1704.11 615.667 1707.3 619.223 1711.33 621.79C1715.44 624.283 1720.09 625.53 1725.3 625.53C1728.67 625.53 1731.86 624.87 1734.87 623.55C1737.88 622.157 1740.55 620.287 1742.9 617.94C1745.32 615.52 1747.26 612.77 1748.73 609.69L1758.41 613.98C1756.58 618.16 1753.97 621.863 1750.6 625.09C1747.23 628.317 1743.34 630.847 1738.94 632.68C1734.61 634.44 1730.03 635.32 1725.19 635.32ZM1771.79 634V557H1797.75C1802.89 557 1807.4 558.027 1811.28 560.08C1815.24 562.06 1818.32 564.847 1820.52 568.44C1822.8 571.96 1823.93 576.067 1823.93 580.76C1823.93 585.38 1822.72 589.487 1820.3 593.08C1817.96 596.673 1814.73 599.497 1810.62 601.55C1806.52 603.53 1801.9 604.52 1796.76 604.52H1782.57V634H1771.79ZM1814.8 634L1796.54 602.54L1805.12 596.82L1827.01 634H1814.8ZM1782.57 594.62H1798.74C1801.38 594.62 1803.73 594.033 1805.78 592.86C1807.91 591.613 1809.6 589.963 1810.84 587.91C1812.16 585.783 1812.82 583.4 1812.82 580.76C1812.82 576.653 1811.39 573.317 1808.53 570.75C1805.67 568.183 1801.97 566.9 1797.42 566.9H1782.57V594.62ZM1870.56 601.99L1860.77 598.25L1885.74 557H1898.28L1870.56 601.99ZM1859.89 634V597.04H1870.78V634H1859.89ZM1860.11 601.99L1832.39 557H1844.82L1869.79 598.25L1860.11 601.99ZM1908.97 634V557H1934.93C1940.06 557 1944.57 558.063 1948.46 560.19C1952.42 562.243 1955.5 565.14 1957.7 568.88C1959.97 572.547 1961.11 576.837 1961.11 581.75C1961.11 586.517 1960.08 590.77 1958.03 594.51C1955.98 598.25 1953.12 601.183 1949.45 603.31C1945.86 605.437 1941.71 606.5 1937.02 606.5H1919.75V634H1908.97ZM1919.75 596.49H1936.91C1940.8 596.49 1943.99 595.133 1946.48 592.42C1948.97 589.633 1950.22 586.077 1950.22 581.75C1950.22 577.277 1948.75 573.683 1945.82 570.97C1942.96 568.257 1939.29 566.9 1934.82 566.9H1919.75V596.49ZM1989.04 634V566.9H1964.95V557H2024.02V566.9H1999.93V634H1989.04ZM2068.41 635.32C2060.93 635.32 2054.3 633.633 2048.5 630.26C2042.71 626.887 2038.16 622.193 2034.86 616.18C2031.64 610.167 2030.02 603.273 2030.02 595.5C2030.02 587.727 2031.64 580.87 2034.86 574.93C2038.16 568.917 2042.67 564.223 2048.39 560.85C2054.11 557.403 2060.71 555.68 2068.19 555.68C2075.67 555.68 2082.27 557.403 2087.99 560.85C2093.71 564.223 2098.19 568.917 2101.41 574.93C2104.64 580.87 2106.25 587.727 2106.25 595.5C2106.25 603.273 2104.64 610.167 2101.41 616.18C2098.19 622.193 2093.71 626.887 2087.99 630.26C2082.35 633.633 2075.82 635.32 2068.41 635.32ZM2068.41 625.42C2073.69 625.42 2078.35 624.137 2082.38 621.57C2086.42 619.003 2089.57 615.483 2091.84 611.01C2094.12 606.537 2095.25 601.367 2095.25 595.5C2095.25 589.707 2094.08 584.573 2091.73 580.1C2089.46 575.553 2086.27 571.997 2082.16 569.43C2078.13 566.863 2073.47 565.58 2068.19 565.58C2062.91 565.58 2058.22 566.863 2054.11 569.43C2050.01 571.997 2046.78 575.553 2044.43 580.1C2042.16 584.573 2041.02 589.707 2041.02 595.5C2041.02 601.367 2042.2 606.537 2044.54 611.01C2046.89 615.483 2050.12 619.003 2054.22 621.57C2058.4 624.137 2063.13 625.42 2068.41 625.42Z" fill="#011528"/>
</svg>
