<svg width="29" height="28" viewBox="0 0 29 28" fill="none" xmlns="http://www.w3.org/2000/svg">
<path d="M18 14H22.7717C24.0025 14 25 15.0442 25 16.3333C25 17.6225 24.0025 18.6667 22.7717 18.6667C24.0025 18.6667 25 19.7108 25 21C25 22.2892 24.0025 23.3333 22.7717 23.3333H18M19.1667 18.6667H23.8333M19.1667 12.8333V24.5V14M22.6667 12.8333V14M22.6667 23.3333V24.5M8.66667 5.83333C8.66667 6.45217 8.42083 7.04566 7.98325 7.48325C7.54566 7.92083 6.95217 8.16667 6.33333 8.16667C5.71449 8.16667 5.121 7.92083 4.68342 7.48325C4.24583 7.04566 4 6.45217 4 5.83333C4 5.21449 4.24583 4.621 4.68342 4.18342C5.121 3.74583 5.71449 3.5 6.33333 3.5C6.95217 3.5 7.54566 3.74583 7.98325 4.18342C8.42083 4.621 8.66667 5.21449 8.66667 5.83333ZM8.66667 5.83333H18M8.66667 5.83333V15.1667C8.66667 16.0949 9.03542 16.9852 9.69179 17.6415C10.3482 18.2979 11.2384 18.6667 12.1667 18.6667H13.3333M18 5.83333C18 6.45217 18.2458 7.04566 18.6834 7.48325C19.121 7.92083 19.7145 8.16667 20.3333 8.16667C20.9522 8.16667 21.5457 7.92083 21.9832 7.48325C22.4208 7.04566 22.6667 6.45217 22.6667 5.83333C22.6667 5.21449 22.4208 4.621 21.9832 4.18342C21.5457 3.74583 20.9522 3.5 20.3333 3.5C19.7145 3.5 19.121 3.74583 18.6834 4.18342C18.2458 4.621 18 5.21449 18 5.83333Z" stroke="#E1DFF3" stroke-width="2" stroke-linecap="round" stroke-linejoin="round"/>
</svg>
