<svg width="17" height="20" viewBox="0 0 17 20" fill="none" xmlns="http://www.w3.org/2000/svg">
<path d="M3.48062 10.635L3.32388 10.7918C2.91195 11.2067 2.24582 11.2107 1.83086 10.7988L0.813082 9.79307C0.400141 9.38314 0.396123 8.715 0.806049 8.30005L2.40255 6.68848L3.29575 9.96086L3.48062 10.635Z" fill="white"/>
<path d="M10.4181 14.6293L6.01236 19.0752C5.50095 19.5926 4.66703 19.5946 4.1496 19.0832L3.50658 18.4452C2.98915 17.9338 2.98513 17.0979 3.49653 16.5825L6.46147 13.5884L7.13563 13.7662L10.4181 14.6293Z" fill="white"/>
<path d="M15.9935 7.4724L14.9305 3.58313C14.7296 2.84265 14.1468 2.26694 13.4054 2.07202L9.50503 1.0462C8.76354 0.851286 7.97182 1.0663 7.43329 1.61186L4.59595 4.47733C4.05541 5.02189 3.84643 5.81461 4.04939 6.55409L4.79991 9.30401L5.11238 10.4444C5.31333 11.1859 5.89607 11.7626 6.63755 11.9555L7.78092 12.2569L10.5379 12.9803C11.2794 13.1752 12.0691 12.9602 12.6096 12.4146L14.7225 10.2816C14.7306 10.2736 14.7396 10.2645 14.7467 10.2565L15.447 9.55017C15.9875 9.0036 16.1965 8.21188 15.9935 7.4724ZM12.6327 8.23398L11.2673 9.61246C11.0071 9.8747 10.6273 9.97818 10.2696 9.88575L10.1591 9.85561L8.3918 9.39143C8.03612 9.29698 7.75581 9.01968 7.65835 8.66401L7.17809 6.90273L7.14795 6.79321C7.05049 6.43654 7.14996 6.05474 7.41018 5.79251L8.7756 4.41403C8.87607 4.31356 8.99563 4.23519 9.12323 4.18194C9.32719 4.10056 9.55426 4.08448 9.77329 4.14075L11.6491 4.63507C12.0068 4.72951 12.2871 5.00682 12.3846 5.36249L12.895 7.23328C12.912 7.29356 12.9231 7.35485 12.9271 7.41614C12.9542 7.71555 12.8487 8.01596 12.6327 8.23398Z" fill="white"/>
</svg>
