<svg width="19" height="18" viewBox="0 0 19 18" fill="none" xmlns="http://www.w3.org/2000/svg">
<path fill-rule="evenodd" clip-rule="evenodd" d="M6.3125 5.625C6.3125 3.86459 7.73959 2.4375 9.5 2.4375C11.2604 2.4375 12.6875 3.86459 12.6875 5.625C12.6875 7.38541 11.2604 8.8125 9.5 8.8125C7.73959 8.8125 6.3125 7.38541 6.3125 5.625ZM9.5 3.5625C8.3609 3.5625 7.4375 4.48592 7.4375 5.625C7.4375 6.76409 8.3609 7.6875 9.5 7.6875C10.6391 7.6875 11.5625 6.76409 11.5625 5.625C11.5625 4.48592 10.6391 3.5625 9.5 3.5625Z" fill="#E1DFF3"/>
<path fill-rule="evenodd" clip-rule="evenodd" d="M6.5 11.0625C5.56802 11.0625 4.8125 11.818 4.8125 12.75V13.6412C4.8125 13.6548 4.82233 13.6663 4.83573 13.6685C7.92479 14.1729 11.0752 14.1729 14.1643 13.6685C14.1777 13.6663 14.1875 13.6548 14.1875 13.6412V12.75C14.1875 11.818 13.432 11.0625 12.5 11.0625H12.2443C12.2246 11.0625 12.205 11.0656 12.1861 11.0717L11.537 11.2837C10.2134 11.7159 8.7866 11.7159 7.46299 11.2837L6.81385 11.0717C6.79507 11.0656 6.77542 11.0625 6.75565 11.0625H6.5ZM3.6875 12.75C3.6875 11.1967 4.9467 9.9375 6.5 9.9375H6.75565C6.89402 9.9375 7.03152 9.9594 7.16305 10.0023L7.81219 10.2143C8.90893 10.5724 10.0911 10.5724 11.1878 10.2143L11.8369 10.0023C11.9685 9.9594 12.106 9.9375 12.2443 9.9375H12.5C14.0533 9.9375 15.3125 11.1967 15.3125 12.75V13.6412C15.3125 14.2061 14.9031 14.6878 14.3455 14.7788C11.1364 15.3028 7.86358 15.3028 4.65445 14.7788C4.09691 14.6878 3.6875 14.2061 3.6875 13.6412V12.75Z" fill="#E1DFF3"/>
</svg>
