<svg width="23" height="22" viewBox="0 0 23 22" fill="none" xmlns="http://www.w3.org/2000/svg">
<path d="M22.4884 6.4934C22.475 5.57013 22.304 4.65418 21.9765 3.79066C21.4036 2.31611 20.2369 1.15013 18.7598 0.579333C17.9059 0.258565 17.003 0.0865951 16.0892 0.0670807C14.9139 0.0146358 14.5413 0 11.558 0C8.5746 0 8.19221 8.17837e-08 7.02549 0.0670807C6.11289 0.0865951 5.21006 0.258565 4.3561 0.579333C2.87907 1.15013 1.71114 2.31611 1.13939 3.79066C0.81808 4.6432 0.6446 5.54452 0.627497 6.45559C0.574964 7.63012 0.559082 8.00211 0.559082 10.9805C0.559082 13.9589 0.559082 14.3394 0.627497 15.5054C0.645822 16.4177 0.81808 17.3178 1.13939 18.1727C1.71236 19.6461 2.87907 20.8121 4.35732 21.3829C5.20762 21.7146 6.11045 21.9024 7.02671 21.9317C8.2032 21.9841 8.57582 22 11.5592 22C14.5426 22 14.9249 22 16.0917 21.9317C17.0043 21.9134 17.9071 21.7414 18.7623 21.4207C20.2393 20.8487 21.406 19.6827 21.979 18.2093C22.3003 17.3556 22.4726 16.4555 22.4909 15.542C22.5434 14.3687 22.5593 13.9967 22.5593 11.0171C22.5568 8.0387 22.5568 7.66061 22.4884 6.4934ZM11.5506 16.6128C8.43044 16.6128 5.90276 14.0894 5.90276 10.9744C5.90276 7.85941 8.43044 5.33596 11.5506 5.33596C14.6684 5.33596 17.1985 7.85941 17.1985 10.9744C17.1985 14.0894 14.6684 16.6128 11.5506 16.6128ZM17.4233 6.44218C16.694 6.44218 16.1063 5.85431 16.1063 5.1274C16.1063 4.40049 16.694 3.81262 17.4233 3.81262C18.1502 3.81262 18.7391 4.40049 18.7391 5.1274C18.7391 5.85431 18.1502 6.44218 17.4233 6.44218Z" fill="#E1DFF3"/>
<path d="M11.5381 14.6353C13.5643 14.6353 15.2069 12.9955 15.2069 10.9727C15.2069 8.94986 13.5643 7.31006 11.5381 7.31006C9.51194 7.31006 7.86938 8.94986 7.86938 10.9727C7.86938 12.9955 9.51194 14.6353 11.5381 14.6353Z" fill="#E1DFF3"/>
</svg>
